<?xml version="1.0" encoding="utf-8"?>
<!-- Generator: Adobe Illustrator 27.5.0, SVG Export Plug-In . SVG Version: 6.00 Build 0)  -->
<svg version="1.1" xmlns="http://www.w3.org/2000/svg" xmlns:xlink="http://www.w3.org/1999/xlink" x="0px" y="0px"
	 viewBox="0 0 500 500" style="enable-background:new 0 0 500 500;" xml:space="preserve">
<g id="Background_Simple">
	<g>
		<path style="fill:#92E3A9;" d="M116.518,386.776c3.35,6.492,6.862,12.887,10.857,18.98
			c46.111,70.318,169.606,108.598,230.799,35.916c14.585-17.323,19.668-38.256,29.484-58.123
			c22.327-45.185,64.042-72.199,90.198-114.039c20.276-32.434,17.573-74.002,6.262-109.064
			c-12.291-38.1-33.921-64.709-68.519-84.936c-38.787-22.676-80.272-16.38-122.197-8.489c-18.855,3.549-38.295,7.169-57.574,5.815
			c-24.137-1.696-47.968-8.527-71.915-11.848c-24.905-3.453-50.745-4.27-74.735,3.256c-76.83,24.1-95.031,137.037-63.437,201.732
			c11.184,22.9,30.138,40.567,47.738,58.492C92.476,343.818,104.122,362.755,116.518,386.776z"/>
		<path style="opacity:0.7;fill:#FFFFFF;" d="M116.518,386.776c3.35,6.492,6.862,12.887,10.857,18.98
			c46.111,70.318,169.606,108.598,230.799,35.916c14.585-17.323,19.668-38.256,29.484-58.123
			c22.327-45.185,64.042-72.199,90.198-114.039c20.276-32.434,17.573-74.002,6.262-109.064
			c-12.291-38.1-33.921-64.709-68.519-84.936c-38.787-22.676-80.272-16.38-122.197-8.489c-18.855,3.549-38.295,7.169-57.574,5.815
			c-24.137-1.696-47.968-8.527-71.915-11.848c-24.905-3.453-50.745-4.27-74.735,3.256c-76.83,24.1-95.031,137.037-63.437,201.732
			c11.184,22.9,30.138,40.567,47.738,58.492C92.476,343.818,104.122,362.755,116.518,386.776z"/>
	</g>
</g>
<g id="Shadow">
	<ellipse style="opacity:0.3;" cx="259.854" cy="438.924" rx="219.516" ry="35.049"/>
</g>
<g id="Cord">
	<g>
		<path style="fill:#263238;stroke:#263238;stroke-miterlimit:10;" d="M178.633,374.61c0.808,1.179,1.869,2.566,2.502,3.891
			c0.386,0.809,1.076,0.627,1.821,0.318c2.962-5.457,6.424-10.631,9.448-16.074c0.64-0.526,1.199-1.226,0.76-1.976
			c-0.719-1.229-1.427-2.677-2.11-3.914c-0.417-0.755-1.102-0.61-1.845-0.285c-3.392,5.281-6.969,10.526-9.908,16.094
			C178.623,373.194,178.14,373.891,178.633,374.61z"/>
		<path style="fill:#92E3A9;stroke:#263238;stroke-miterlimit:10;" d="M203.137,376.123c-1.147,0.875-2.696,1.919-3.912,2.649
			c-0.743,0.445-1.278,0.415-1.674-0.375c-3.171-6.319-7.716-12.578-9.854-19.691c-0.267-0.889,0.333-1.551,1.137-2.046
			c1.317-0.811,3.203-2.04,4.558-2.784c0.827-0.454,1.415-0.463,1.796,0.342c3.044,6.443,6.117,13.157,8.618,19.987
			C204.117,375.059,203.837,375.589,203.137,376.123z"/>
		<path style="fill:#263238;stroke:#263238;stroke-miterlimit:10;" d="M154.286,376.651c0.538,1.39,1.202,3.004,1.759,4.36
			c0.34,0.828,0.961,0.782,1.715,0.526c3.022-5.455,7.353-10.342,10.641-15.715c0.707-0.477,1.25-1.21,0.737-1.944
			c-0.84-1.203-1.691-2.766-2.305-4.157c-0.375-0.849-1.087-0.716-1.859-0.468c-3.369,5.117-6.579,10.242-9.843,15.422
			C154.419,375.171,153.957,375.802,154.286,376.651z"/>
		<path style="fill:#92E3A9;stroke:#263238;stroke-miterlimit:10;" d="M182.6,379.127c-1.263,0.838-3.224,2.005-4.599,2.722
			c-0.839,0.438-1.312,0.455-1.795-0.426c-3.863-7.042-9.693-12.1-12.674-20.125c-0.373-1.004,0.277-1.519,1.087-1.978
			c1.327-0.752,3.309-1.802,4.731-2.475c0.868-0.41,1.384-0.332,1.859,0.51c3.792,6.731,9.418,12.283,12.374,19.757
			C183.951,378.047,183.372,378.615,182.6,379.127z"/>
		<path style="fill:#263238;stroke:#263238;stroke-miterlimit:10;" d="M136.844,377.535c0.323,1.356,0.827,2.915,1.294,4.164
			c0.285,0.763,0.824,0.702,1.489,0.432c2.706-5.287,5.402-10.468,7.893-15.845c0.584-0.638,0.949-1.242,0.729-2.076
			c-0.361-1.366-0.844-3.043-1.244-4.36c-0.245-0.804-0.718-0.801-1.386-0.533c-2.579,5.455-5.199,10.833-7.975,16.186
			C137.048,376.081,136.647,376.707,136.844,377.535z"/>
		<path style="fill:#92E3A9;stroke:#263238;stroke-miterlimit:10;" d="M157.426,381.813c-1.263,0.76-3.175,1.731-4.516,2.35
			c-0.819,0.378-1.262,0.262-1.559-0.643c-2.374-7.235-5.319-14.241-6.841-22.055c-0.19-0.977,0.127-1.569,0.833-2.077
			c1.156-0.832,2.587-1.733,3.796-2.379c0.738-0.394,1.061-0.29,1.372,0.606c2.496,7.165,6.449,14.451,7.969,22.215
			C158.67,380.802,158.197,381.349,157.426,381.813z"/>
		<path style="fill:#263238;stroke:#263238;stroke-miterlimit:10;" d="M120.634,378.429c0.293,1.334,0.658,2.913,0.981,4.23
			c0.197,0.804,0.76,0.801,1.423,0.566c3.107-5.083,5.901-10.247,8.837-15.418c0.583-0.564,1.044-1.186,0.891-2.02
			c-0.251-1.366-0.59-2.968-0.897-4.291c-0.187-0.808-0.775-0.696-1.391-0.386c-2.873,5.256-5.855,10.35-8.972,15.444
			C120.92,377.053,120.456,377.615,120.634,378.429z"/>
		<path style="fill:#92E3A9;stroke:#263238;stroke-miterlimit:10;" d="M139.346,382.398c-1.182,0.785-2.792,1.744-4.001,2.385
			c-0.738,0.391-1.219,0.338-1.465-0.499c-1.966-6.697-3.62-13.813-4.668-21.044c-0.131-0.904,0.276-1.53,0.973-2.043
			c1.142-0.84,2.71-1.807,3.877-2.437c0.713-0.384,1.145-0.373,1.353,0.486c1.664,6.874,3.294,14.284,4.732,21.3
			C140.328,381.423,140.068,381.919,139.346,382.398z"/>
		<path style="fill:#263238;stroke:#263238;stroke-miterlimit:10;" d="M105.255,377.457c0.08,1.392,0.214,3.058,0.35,4.426
			c0.083,0.835,0.588,0.922,1.223,0.816c3.546-4.582,6.862-9.212,10.036-14.102c0.588-0.484,1.039-1.057,0.965-1.877
			c-0.122-1.343-0.228-2.974-0.379-4.284c-0.092-0.799-0.633-0.766-1.207-0.579c-3.231,4.768-6.42,9.404-9.952,13.894
			C105.67,376.131,105.206,376.607,105.255,377.457z"/>
		<path style="fill:#92E3A9;stroke:#263238;stroke-miterlimit:10;" d="M122.729,383.489c-1.215,0.683-2.963,1.59-4.189,2.145
			c-0.748,0.339-1.246,0.286-1.41-0.57c-1.306-6.846-2.025-14.014-2.255-21.332c-0.029-0.915,0.411-1.435,1.095-1.831
			c1.12-0.648,2.651-1.371,3.772-1.826c0.684-0.278,1.084-0.219,1.176,0.653c0.736,6.977,1.693,14.06,2.791,20.909
			C123.847,382.494,123.471,383.072,122.729,383.489z"/>
		<path style="fill:#263238;stroke:#263238;stroke-miterlimit:10;" d="M91.751,372.557c-0.157,1.477-0.287,3.284-0.363,4.74
			c-0.046,0.889,0.394,1.078,1.009,1.108c3.805-3.898,7.294-7.93,10.858-12.111c0.605-0.361,1.086-0.826,1.14-1.66
			c0.089-1.367,0.163-3.034,0.203-4.366c0.025-0.813-0.414-0.929-0.967-0.912c-3.468,4.068-7.017,7.876-10.666,11.687
			C92.308,371.283,91.847,371.655,91.751,372.557z"/>
		<path style="fill:#92E3A9;stroke:#263238;stroke-miterlimit:10;" d="M106.514,382.898c-1.192,0.467-2.866,1.028-4.066,1.356
			c-0.732,0.2-1.153,0.017-1.184-0.894c-0.246-7.288-0.046-14.878,0.946-22.454c0.124-0.947,0.503-1.359,1.195-1.588
			c1.135-0.375,2.664-0.892,3.767-1.111c0.673-0.134,1.02,0.007,0.962,0.929c-0.468,7.371-0.685,14.88-0.507,22.114
			C107.65,382.154,107.242,382.613,106.514,382.898z"/>
		<path style="fill:#263238;stroke:#263238;stroke-miterlimit:10;" d="M80.477,363.314c-0.339,1.54-0.77,3.513-1.122,5.068
			c-0.215,0.949,0.135,1.307,0.745,1.482c4.007-3.172,7.864-6.344,11.715-9.801c0.636-0.242,1.108-0.586,1.291-1.47
			c0.301-1.449,0.652-3.289,0.952-4.731c0.183-0.88-0.115-1.185-0.686-1.314c-3.782,3.406-7.644,6.333-11.57,9.393
			C81.147,362.095,80.683,362.374,80.477,363.314z"/>
		<path style="fill:#92E3A9;stroke:#263238;stroke-miterlimit:10;" d="M92.08,378.543c-1.186,0.248-2.784,0.491-3.96,0.574
			c-0.718,0.051-1.035-0.281-0.909-1.268c1.003-7.887,2.511-16.081,4.598-24c0.261-0.99,0.674-1.326,1.352-1.399
			c1.111-0.119,2.484-0.113,3.544-0.05c0.647,0.038,0.941,0.313,0.718,1.279c-1.788,7.724-3.127,15.684-4.071,23.371
			C93.233,378.013,92.804,378.392,92.08,378.543z"/>
		<path style="fill:#263238;stroke:#263238;stroke-miterlimit:10;" d="M70.575,351.723c-0.523,1.531-1.099,3.456-1.55,4.998
			c-0.275,0.941,0.061,1.324,0.622,1.587c4.281-2.715,8.445-5.529,12.661-8.398c0.675-0.118,1.167-0.399,1.489-1.328
			c0.528-1.523,1.159-3.507,1.625-5.035c0.284-0.932,0.016-1.302-0.535-1.564c-4.23,2.982-8.486,5.722-12.783,8.447
			C71.427,350.496,70.895,350.788,70.575,351.723z"/>
		<path style="fill:#92E3A9;stroke:#263238;stroke-miterlimit:10;" d="M79.769,369.947c-1.192,0.005-2.764-0.097-3.914-0.274
			c-0.702-0.108-0.975-0.505-0.687-1.542c2.3-8.288,4.994-16.896,8.016-25.056c0.378-1.02,0.819-1.301,1.502-1.239
			c1.119,0.102,2.485,0.367,3.531,0.668c0.638,0.183,0.836,0.608,0.478,1.611c-2.861,8.025-5.396,16.332-7.449,24.479
			C80.99,369.614,80.496,369.944,79.769,369.947z"/>
		<path style="fill:#263238;stroke:#263238;stroke-miterlimit:10;" d="M60.698,339.45c-0.574,1.561-1.204,3.436-1.692,5.008
			c-0.298,0.959,0.094,1.355,0.666,1.617c4.693-2.681,9.342-5.212,13.977-8.103c0.678-0.065,1.208-0.369,1.555-1.28
			c0.568-1.492,1.195-3.355,1.686-4.859c0.3-0.917-0.051-1.26-0.607-1.474c-4.614,2.931-9.237,5.504-13.956,7.913
			C61.649,338.287,61.048,338.497,60.698,339.45z"/>
		<path style="fill:#92E3A9;stroke:#263238;stroke-miterlimit:10;" d="M69.324,358.341c-1.155-0.16-2.676-0.503-3.773-0.836
			c-0.67-0.203-0.902-0.637-0.543-1.642c2.872-8.042,6.212-16.505,9.444-24.453c0.404-0.994,0.906-1.248,1.621-1.192
			c1.172,0.092,2.707,0.334,3.821,0.6c0.68,0.162,0.924,0.557,0.516,1.566c-3.259,8.065-6.626,16.639-9.534,24.794
			C70.512,358.198,70.029,358.439,69.324,358.341z"/>
		<path style="fill:#263238;stroke:#263238;stroke-miterlimit:10;" d="M51.568,325.229c-0.757,1.453-1.63,3.239-2.307,4.72
			c-0.414,0.904-0.139,1.377,0.329,1.784c4.643-1.709,9.261-3.227,13.9-4.948c0.624,0.08,1.201-0.176,1.609-1.04
			c0.668-1.416,1.473-3.185,2.099-4.614c0.382-0.873,0.09-1.265-0.417-1.545c-4.407,2.218-9.137,3.702-13.596,4.863
			C52.587,324.255,52.03,324.342,51.568,325.229z"/>
		<path style="fill:#92E3A9;stroke:#263238;stroke-miterlimit:10;" d="M59.321,346.108c-1.198-0.223-2.854-0.607-3.997-0.966
			c-0.698-0.219-0.974-0.678-0.61-1.665c2.91-7.893,6.319-15.646,10.24-23.136c0.49-0.937,0.989-1.049,1.646-0.919
			c1.075,0.213,2.501,0.698,3.491,1.11c0.604,0.251,0.804,0.665,0.364,1.585c-3.522,7.364-6.437,15.32-9.477,22.879
			C60.597,345.94,60.052,346.245,59.321,346.108z"/>
		<path style="fill:#263238;stroke:#263238;stroke-miterlimit:10;" d="M47.593,306.69c-0.991,1.305-2.172,2.956-3.109,4.31
			c-0.572,0.827-0.421,1.409-0.09,1.987c4.271-0.279,8.322,0.05,12.704-0.915c0.571,0.231,1.078,0.137,1.612-0.673
			c0.874-1.327,2.002-2.994,2.882-4.306c0.537-0.801,0.382-1.268,0.03-1.764c-4.232,0.758-8.249,0.718-12.385,0.929
			C48.721,305.868,48.198,305.894,47.593,306.69z"/>
		<path style="fill:#92E3A9;stroke:#263238;stroke-miterlimit:10;" d="M49.279,331.681c-1.036-0.475-2.402-1.22-3.368-1.861
			c-0.59-0.391-0.715-0.961-0.197-1.935c4.147-7.79,8.889-15.409,14.189-22.334c0.663-0.866,1.065-0.824,1.6-0.45
			c0.876,0.613,1.895,1.64,2.694,2.372c0.488,0.447,0.537,0.951-0.075,1.795c-4.894,6.747-9.027,14.409-13.196,21.664
			C50.406,331.84,49.911,331.971,49.279,331.681z"/>
		<path style="fill:#263238;stroke:#263238;stroke-miterlimit:10;" d="M47.087,286.899c-1.099,1.183-2.454,2.688-3.537,3.919
			c-0.661,0.751-0.66,1.418-0.394,2.09c4.139,0.352,8.129,0.995,12.334,1.12c0.498,0.372,0.966,0.441,1.621-0.299
			c1.073-1.213,2.459-2.818,3.515-4.04c0.645-0.746,0.531-1.281,0.363-1.942c-3.976-0.701-8.224-0.63-12.295-0.997
			C48.232,286.353,47.757,286.177,47.087,286.899z"/>
		<path style="fill:#92E3A9;stroke:#263238;stroke-miterlimit:10;" d="M44.126,312.828c-0.817-0.809-1.924-2.074-2.622-3.043
			c-0.426-0.591-0.539-1.028,0.158-1.915c5.571-7.09,11.744-14.067,17.848-20.469c0.763-0.801,1.061-0.522,1.425,0.06
			c0.597,0.953,1.471,2.205,2.097,3.181c0.382,0.596,0.393,1.099-0.337,1.89c-5.833,6.322-11.523,13.232-16.941,20.041
			C45.078,313.424,44.624,313.322,44.126,312.828z"/>
		<path style="fill:#263238;stroke:#263238;stroke-miterlimit:10;" d="M46.015,268.597c-1.101,0.973-2.399,2.155-3.465,3.191
			c-0.651,0.633-0.544,1.25-0.299,1.822c4.471,0.782,9.077,0.935,13.662,1.298c0.448,0.464,0.996,0.507,1.651-0.129
			c1.073-1.043,2.338-2.274,3.379-3.335c0.635-0.648,0.515-1.193,0.228-1.714c-4.568-0.306-9.155-0.123-13.554-1.079
			C47.179,268.268,46.687,268.003,46.015,268.597z"/>
		<path style="fill:#92E3A9;stroke:#263238;stroke-miterlimit:10;" d="M42.908,292.706c-0.707-0.974-1.577-2.456-2.167-3.576
			c-0.361-0.684-0.271-1.349,0.459-2.1c5.841-6.005,12.083-11.968,18.197-17.491c0.765-0.691,1.204-0.573,1.687-0.066
			c0.792,0.831,1.768,2.018,2.441,2.985c0.411,0.59,0.392,1.099-0.387,1.827c-6.227,5.821-12.56,12.305-18.607,18.406
			C43.775,293.453,43.34,293.3,42.908,292.706z"/>
		<path style="fill:#263238;stroke:#263238;stroke-miterlimit:10;" d="M48.729,251.786c-1.253,0.616-2.911,1.446-4.15,2.145
			c-0.757,0.427-0.826,1.052-0.816,1.739c3.411,1.983,6.933,3.431,10.67,4.719c0.397,0.435,0.864,0.575,1.554,0.169
			c1.131-0.665,2.602-1.524,3.72-2.182c0.682-0.402,0.801-0.898,0.707-1.512c-3.682-0.966-7.147-2.501-10.299-4.538
			C49.866,251.732,49.494,251.411,48.729,251.786z"/>
		<path style="fill:#92E3A9;stroke:#263238;stroke-miterlimit:10;" d="M42.009,273.405c-0.672-0.983-1.601-2.404-2.15-3.486
			c-0.335-0.661-0.281-1.221,0.46-1.837c5.926-4.922,12.285-8.428,18.648-11.698c0.796-0.409,1.15-0.365,1.441,0.224
			c0.477,0.965,0.965,2.203,1.323,3.215c0.219,0.618,0.105,1.074-0.658,1.504c-6.106,3.435-11.729,7.377-17.435,12.198
			C42.925,274.127,42.419,274.004,42.009,273.405z"/>
		<path style="fill:#263238;stroke:#263238;stroke-miterlimit:10;" d="M57.549,234.467c-1.356,0.478-3.025,1.032-4.364,1.483
			c-0.817,0.275-1.083,0.851-1.246,1.655c2.631,2.794,5.285,5.423,8.097,7.969c0.145,0.697,0.497,0.946,1.274,0.677
			c1.272-0.441,3.022-0.967,4.29-1.399c0.774-0.264,1.043-0.708,1.222-1.47c-2.807-2.403-5.435-5.154-7.963-7.912
			C58.74,234.701,58.377,234.175,57.549,234.467z"/>
		<path style="fill:#92E3A9;stroke:#263238;stroke-miterlimit:10;" d="M43.629,255.39c-0.321-1.195-0.706-2.822-0.807-4.139
			c-0.062-0.804,0.191-1.332,1.085-1.71c7.147-3.027,14.748-5.195,21.886-7.197c0.893-0.25,1.081,0.006,1.118,0.761
			c0.059,1.237,0.097,2.754,0.114,4.029c0.01,0.778-0.301,1.215-1.166,1.395c-6.918,1.442-14.055,4.13-20.905,7.436
			C44.096,256.379,43.825,256.12,43.629,255.39z"/>
		<path style="fill:#263238;stroke:#263238;stroke-miterlimit:10;" d="M66.362,212.236c-1.314,0.533-2.798,1.079-4.105,1.393
			c-0.798,0.191-1.151,1.023-1.318,1.828c2.316,4.845,4.824,9.262,7.98,13.297c0.164,0.667,0.426,1.431,1.248,1.076
			c1.347-0.58,2.639-1.01,3.986-1.267c0.822-0.157,1.001-0.952,1.018-1.694c-3.15-4.095-5.558-8.582-7.944-13.396
			C67.248,212.775,67.164,211.911,66.362,212.236z"/>
		<path style="fill:#92E3A9;stroke:#263238;stroke-miterlimit:10;" d="M51.87,237.279c-0.023-1.376,0.084-3.196,0.208-4.617
			c0.076-0.867,0.47-1.466,1.292-1.73c6.572-2.109,14.107-5.286,20.593-5.851c0.811-0.071,1.199,0.524,1.285,1.419
			c0.14,1.466,0.282,3.466,0.287,4.956c0.003,0.91-0.294,1.425-1.163,1.6c-6.951,1.4-14.375,3.384-21.332,5.196
			C52.171,238.478,51.884,238.118,51.87,237.279z"/>
		<path style="fill:#263238;stroke:#263238;stroke-miterlimit:10;" d="M81.869,189.97c-1.212-0.349-2.558-0.748-3.78-1.052
			c-0.746-0.185-1.3,0.474-1.775,1.198c-0.124,5.741-0.209,11.26,0.759,16.597c-0.145,0.726-0.164,1.511,0.561,1.545
			c1.187,0.056,2.43,0.211,3.564,0.408c0.692,0.12,1.11-0.532,1.477-1.196c-0.662-5.163-0.456-10.314-0.493-15.673
			C82.509,190.998,82.609,190.183,81.869,189.97z"/>
		<path style="fill:#92E3A9;stroke:#263238;stroke-miterlimit:10;" d="M60.907,215.01c0.219-1.537,0.471-3.891,0.879-5.49
			c0.249-0.976,0.433-1.502,1.475-1.761c8.332-2.073,11.18-4.986,19.199-2.311c1.003,0.334,0.683,0.835,0.407,1.724
			c-0.452,1.458-1.345,3.488-1.872,4.904c-0.322,0.865-0.733,1.294-1.435,1.188c-5.609-0.848-11.858,2.215-17.771,3.245
			C61.05,216.638,60.773,215.948,60.907,215.01z"/>
		<path style="fill:#263238;stroke:#263238;stroke-miterlimit:10;" d="M107.645,171.027c-1.673-0.125-3.467-0.442-5.009-0.879
			c-0.941-0.267-1.718,0.532-2.496,1.272c-1.608,6.369-4.431,12.479-6.05,18.861c-0.474,0.629-1.075,1.755-0.354,2.086
			c1.181,0.542,2.625,0.739,3.689,1.467c0.65,0.445,1.63-0.59,2.201-1.175c3.114-6.377,6.574-12.951,8.031-19.747
			C108.323,172.123,108.666,171.103,107.645,171.027z"/>
		<path style="fill:#92E3A9;stroke:#263238;stroke-miterlimit:10;" d="M76.471,189.651c0.758-1.496,1.955-3.795,2.848-5.3
			c0.545-0.919,0.913-1.16,1.753-0.988c6.714,1.371,14.342,2.638,19.93,6.555c0.699,0.49-0.274,1.644-0.993,2.447
			c-1.177,1.314-3.184,4.031-4.319,5.517c-0.693,0.907-1.303,1.396-1.99,1.041c-5.498-2.838-11.55-4.724-17.14-7.267
			C75.86,191.337,76.008,190.565,76.471,189.651z"/>
	</g>
</g>
<g id="Telephone">
	<g>
		<polygon style="fill:#92E3A9;stroke:#263238;stroke-miterlimit:10;" points="235.058,192.034 214.312,192.034 212.133,235.305 
			237.236,235.305 		"/>
		<polygon style="fill:#92E3A9;stroke:#263238;stroke-miterlimit:10;" points="327.251,192.034 306.505,192.034 304.327,235.305 
			329.43,235.305 		"/>
		<path style="fill:#263238;stroke:#263238;stroke-miterlimit:10;" d="M167.857,449.558h-18.343c-5.348,0-9.683-4.335-9.683-9.683
			v-10.17c0-5.348,4.335-9.683,9.683-9.683h18.343c5.348,0,9.683,4.335,9.683,9.683v10.17
			C177.541,445.223,173.205,449.558,167.857,449.558z"/>
		<path style="fill:#263238;stroke:#263238;stroke-miterlimit:10;" d="M384.357,449.558h-18.343c-5.348,0-9.683-4.335-9.683-9.683
			v-10.17c0-5.348,4.335-9.683,9.683-9.683h18.343c5.348,0,9.683,4.335,9.683,9.683v10.17
			C394.04,445.223,389.705,449.558,384.357,449.558z"/>
		<path style="fill:#92E3A9;stroke:#263238;stroke-miterlimit:10;" d="M385.602,431.757H150.214c-8.521,0-15.153-4.453-14.221-9.549
			l0.637-9.551c1.556-23.313,4.329-46.529,8.309-69.553l17.356-100.409c1.035-5.988,9.423-10.537,19.43-10.537h172.367
			c10.006,0,18.395,4.549,19.43,10.537l17.453,100.97c4.422,25.584,7.355,51.404,8.782,77.328l0.067,1.214
			C400.756,427.304,394.124,431.757,385.602,431.757z"/>
		<g>
			<path style="fill:#92E3A9;" d="M360.926,365.224H174.891c-12.32,0-22.307-6.009-22.307-13.421l17.299-100.261
				c0-6.3,8.489-11.408,18.961-11.408h158.13c10.472,0,18.961,5.107,18.961,11.408l17.299,100.261
				C383.233,359.215,373.246,365.224,360.926,365.224z"/>
			<path style="opacity:0.52;fill:#FFFFFF;" d="M360.926,365.224H174.891c-12.32,0-22.307-6.009-22.307-13.421l17.299-100.261
				c0-6.3,8.489-11.408,18.961-11.408h158.13c10.472,0,18.961,5.107,18.961,11.408l17.299,100.261
				C383.233,359.215,373.246,365.224,360.926,365.224z"/>
			<path style="fill:none;stroke:#263238;stroke-miterlimit:10;" d="M360.926,365.224H174.891c-12.32,0-22.307-6.009-22.307-13.421
				l17.299-100.261c0-6.3,8.489-11.408,18.961-11.408h158.13c10.472,0,18.961,5.107,18.961,11.408l17.299,100.261
				C383.233,359.215,373.246,365.224,360.926,365.224z"/>
		</g>
		<g>
			<g>
				<polygon style="fill:#8F8F8F;stroke:#263238;stroke-miterlimit:10;" points="242.274,271.819 224.885,271.819 225.924,258.588 
					242.904,258.588 				"/>
				<polygon style="fill:#8F8F8F;stroke:#263238;stroke-miterlimit:10;" points="277.749,271.819 260.359,271.819 260.564,258.588 
					277.544,258.588 				"/>
				<polygon style="fill:#8F8F8F;stroke:#263238;stroke-miterlimit:10;" points="313.223,271.819 295.834,271.819 295.203,258.588 
					312.184,258.588 				"/>
			</g>
			<g>
				<polygon style="fill:#8F8F8F;stroke:#263238;stroke-miterlimit:10;" points="241.241,293.516 223.18,293.516 224.3,279.256 
					241.92,279.256 				"/>
				<polygon style="fill:#8F8F8F;stroke:#263238;stroke-miterlimit:10;" points="278.084,293.516 260.024,293.516 260.244,279.256 
					277.864,279.256 				"/>
				<polygon style="fill:#8F8F8F;stroke:#263238;stroke-miterlimit:10;" points="314.927,293.516 296.867,293.516 296.188,279.256 
					313.807,279.256 				"/>
			</g>
			<g>
				<polygon style="fill:#8F8F8F;stroke:#263238;stroke-miterlimit:10;" points="240.124,316.953 221.339,316.953 222.55,301.542 
					240.858,301.542 				"/>
				<polygon style="fill:#8F8F8F;stroke:#263238;stroke-miterlimit:10;" points="278.447,316.953 259.661,316.953 259.9,301.542 
					278.208,301.542 				"/>
				<polygon style="fill:#8F8F8F;stroke:#263238;stroke-miterlimit:10;" points="316.769,316.953 297.983,316.953 297.249,301.542 
					315.558,301.542 				"/>
			</g>
			<g>
				<polygon style="fill:#8F8F8F;stroke:#263238;stroke-miterlimit:10;" points="238.915,342.351 219.344,342.351 220.657,325.641 
					239.711,325.641 				"/>
				<polygon style="fill:#8F8F8F;stroke:#263238;stroke-miterlimit:10;" points="278.839,342.351 259.268,342.351 259.527,325.641 
					278.581,325.641 				"/>
				<polygon style="fill:#8F8F8F;stroke:#263238;stroke-miterlimit:10;" points="318.764,342.351 299.193,342.351 298.397,325.641 
					317.451,325.641 				"/>
			</g>
		</g>
		<g>
			<g>
				<polygon style="fill:#263238;stroke:#263238;stroke-miterlimit:10;" points="242.274,266.716 224.885,266.716 225.924,253.484 
					242.904,253.484 				"/>
				<polygon style="fill:#263238;stroke:#263238;stroke-miterlimit:10;" points="277.749,266.716 260.359,266.716 260.564,253.484 
					277.544,253.484 				"/>
				<polygon style="fill:#263238;stroke:#263238;stroke-miterlimit:10;" points="313.223,266.716 295.834,266.716 295.203,253.484 
					312.184,253.484 				"/>
			</g>
			<g>
				<polygon style="fill:#263238;stroke:#263238;stroke-miterlimit:10;" points="241.241,288.412 223.18,288.412 224.3,274.152 
					241.92,274.152 				"/>
				<polygon style="fill:#263238;stroke:#263238;stroke-miterlimit:10;" points="278.084,288.412 260.024,288.412 260.244,274.152 
					277.864,274.152 				"/>
				<polygon style="fill:#263238;stroke:#263238;stroke-miterlimit:10;" points="314.927,288.412 296.867,288.412 296.188,274.152 
					313.807,274.152 				"/>
			</g>
			<g>
				<polygon style="fill:#263238;stroke:#263238;stroke-miterlimit:10;" points="240.124,311.849 221.339,311.849 222.55,296.438 
					240.858,296.438 				"/>
				<polygon style="fill:#263238;stroke:#263238;stroke-miterlimit:10;" points="278.447,311.849 259.661,311.849 259.9,296.438 
					278.208,296.438 				"/>
				<polygon style="fill:#263238;stroke:#263238;stroke-miterlimit:10;" points="316.769,311.849 297.983,311.849 297.249,296.438 
					315.558,296.438 				"/>
			</g>
			<g>
				<polygon style="fill:#263238;stroke:#263238;stroke-miterlimit:10;" points="238.915,337.247 219.344,337.247 220.657,320.537 
					239.711,320.537 				"/>
				<polygon style="fill:#263238;stroke:#263238;stroke-miterlimit:10;" points="278.839,337.247 259.268,337.247 259.527,320.537 
					278.581,320.537 				"/>
				<polygon style="fill:#263238;stroke:#263238;stroke-miterlimit:10;" points="318.764,337.247 299.193,337.247 298.397,320.537 
					317.451,320.537 				"/>
			</g>
		</g>
		<path style="opacity:0.13;" d="M387.675,426.698H147.907c-2.646,0-4.712-2.286-4.445-4.918l4.653-45.882
			c0.231-2.281,2.152-4.017,4.445-4.017h230.462c2.293,0,4.213,1.736,4.445,4.017l4.653,45.882
			C392.387,424.412,390.321,426.698,387.675,426.698z"/>
	</g>
</g>
<g id="Banana">
	<g>
		
			<rect x="98.697" y="162.551" transform="matrix(0.786 0.6183 -0.6183 0.786 129.6424 -30.7826)" style="fill:#FFFFFF;stroke:#263238;stroke-miterlimit:10;" width="21.167" height="18.601"/>
		<path style="fill:#92E3A9;stroke:#263238;stroke-miterlimit:10;" d="M422.021,193.668c0,0,1.138,4.143-8.213,5.402
			c-9.351,1.259-18.158,3.548-19.32-1.636c-1.163-5.184,3.004-5.281-0.375-16.147c-3.379-10.865-3.245-27.542-12.811-35.66
			c-7.332-6.221-17.714-6.295-24.842-13.051c-8.761-8.304-15.409-19.039-25.351-25.971c-9.815-6.844-21.959-10.864-33.68-12.767
			c-23.933-3.884-49.503,1.088-70.23,13.671c-16.959,10.295-39.923,27.052-56.761,42.556
			c-16.838,15.504-37.156,20.075-41.771,23.309c-4.615,3.234-9.23,6.468-21.404-1.588c-12.173-8.056-12.789-34.62-3.279-51.518
			c41.044-72.93,137.485-115.844,218.672-93.017c35.299,9.925,76.038,33.175,83.115,72.466c2.991,16.607-1.419,28.696-2.122,43.304
			c-0.703,14.608,6.988,31.628,10.27,38.326C417.2,188.047,424.54,189.962,422.021,193.668z"/>
		<path style="fill:#263238;stroke:#263238;stroke-miterlimit:10;" d="M414.711,182.75c-2.097,0.024-4.062-0.097-5.579-0.666
			c-5.822-2.183-5.094-19.649-12.371-24.743c-7.277-5.094,0,8.733,0.728,16.01c0.728,7.277-5.094,0-5.094,0l-0.111,0.217
			c0.535,2.745,1.099,5.371,1.829,7.718c3.379,10.866-0.788,10.962,0.375,16.147c1.163,5.184,9.969,2.895,19.32,1.636
			c9.351-1.259,8.213-5.402,8.213-5.402C424.354,190.235,418.236,188.333,414.711,182.75z"/>
		<path style="fill:none;stroke:#263238;stroke-miterlimit:10;" d="M222,87.807c6.976-1.847,14.731-3.432,23.393-4.693"/>
		<path style="fill:none;stroke:#263238;stroke-miterlimit:10;" d="M136,151.941c4.314-3.287,9.01-7.517,13.757-12.93
			c13.056-14.887,24.526-33.911,56.982-46.322"/>
		<path style="fill:none;stroke:#263238;stroke-miterlimit:10;" d="M115.912,162.726c0,0,5.579-1.357,13.633-6.337"/>
		<path style="fill:none;stroke:#263238;stroke-miterlimit:10;" d="M358.051,106.537c3.278,3.401,6.362,7.309,9.066,11.796"/>
		<path style="fill:none;stroke:#263238;stroke-miterlimit:10;" d="M316.825,84.584c0,0,17.973,2.71,34.358,15.723"/>
		<path style="fill:none;stroke:#263238;stroke-miterlimit:10;" d="M386.943,79.187c1.67,2.146,3.326,4.405,4.958,6.782"/>
		<path style="fill:none;stroke:#263238;stroke-miterlimit:10;" d="M332.986,39.911c0,0,24.775,5.784,48.655,32.872"/>
	</g>
</g>
</svg>
