<?xml version="1.0" encoding="utf-8"?>
<!-- Generator: Adobe Illustrator 27.5.0, SVG Export Plug-In . SVG Version: 6.00 Build 0)  -->
<svg version="1.1" xmlns="http://www.w3.org/2000/svg" xmlns:xlink="http://www.w3.org/1999/xlink" x="0px" y="0px"
	 viewBox="0 0 750 500" style="enable-background:new 0 0 750 500;" xml:space="preserve">
<g id="Background_complete">
	<rect x="632.484" y="103.941" style="fill:#F5F5F5;" width="42.284" height="17.558"/>
	<g>
		<rect x="534.209" y="46.303" style="fill:#E6E6E6;" width="109.678" height="140.719"/>
		<rect x="509.67" y="46.303" style="fill:#F0F0F0;" width="128.835" height="140.719"/>
		<rect x="521.549" y="58.802" style="fill:#FFFFFF;" width="104.518" height="115.721"/>
		<rect x="555.881" y="95.777" style="fill:#F0F0F0;" width="37.728" height="41.772"/>
	</g>
	<g>
		<g>
			<g>
				<g>
					<g>
						<g>
							<path style="fill:#E0E0E0;" d="M673.842,301.372H493.096c-3.232,0-5.862-2.63-5.862-5.862V32.236
								c0-3.232,2.63-5.862,5.862-5.862h180.746c3.232,0,5.862,2.629,5.862,5.862V295.51
								C679.704,298.742,677.074,301.372,673.842,301.372z M493.096,26.625c-3.095,0-5.612,2.518-5.612,5.612V295.51
								c0,3.095,2.518,5.612,5.612,5.612h180.746c3.095,0,5.612-2.518,5.612-5.612V32.236c0-3.094-2.518-5.612-5.612-5.612H493.096z
								"/>
						</g>
					</g>
					<g>
						<g>
							<path style="fill:#E0E0E0;" d="M465.414,301.372H284.668c-3.232,0-5.862-2.63-5.862-5.862V32.236
								c0-3.232,2.629-5.862,5.862-5.862h180.747c3.232,0,5.862,2.629,5.862,5.862V295.51
								C471.276,298.742,468.647,301.372,465.414,301.372z M284.668,26.625c-3.094,0-5.612,2.518-5.612,5.612V295.51
								c0,3.095,2.518,5.612,5.612,5.612h180.747c3.095,0,5.612-2.518,5.612-5.612V32.236c0-3.094-2.518-5.612-5.612-5.612H284.668z
								"/>
						</g>
					</g>
				</g>
				<g>
					<g>
						<g>
							<path style="fill:#E0E0E0;" d="M257.12,301.372H76.374c-3.232,0-5.862-2.63-5.862-5.862V32.236
								c0-3.232,2.629-5.862,5.862-5.862H257.12c3.232,0,5.862,2.629,5.862,5.862V295.51
								C262.983,298.742,260.353,301.372,257.12,301.372z M76.374,26.625c-3.094,0-5.612,2.518-5.612,5.612V295.51
								c0,3.095,2.518,5.612,5.612,5.612H257.12c3.095,0,5.612-2.518,5.612-5.612V32.236c0-3.094-2.517-5.612-5.612-5.612H76.374z"
								/>
						</g>
					</g>
				</g>
			</g>
			<g>
				<g>
					<rect x="0.108" y="321.703" style="fill:#E0E0E0;" width="750" height="0.12"/>
				</g>
			</g>
		</g>
		<g>
			<rect x="653.626" y="345.539" style="fill:#EBEBEB;" width="55.729" height="0.421"/>
			<rect x="495.044" y="350.105" style="fill:#EBEBEB;" width="14.627" height="0.421"/>
			<rect x="40.645" y="332.742" style="fill:#EBEBEB;" width="72.674" height="0.421"/>
			<rect x="128.299" y="332.742" style="fill:#EBEBEB;" width="10.656" height="0.421"/>
			<rect x="173.586" y="339.846" style="fill:#EBEBEB;" width="157.613" height="0.421"/>
		</g>
	</g>
	<g>
		<rect x="36.813" y="213.843" style="fill:#E0E0E0;" width="42.284" height="17.558"/>
		<rect x="60.311" y="196.417" style="fill:#E6E6E6;" width="42.284" height="17.558"/>
		<rect x="61.711" y="231.072" style="fill:#F5F5F5;" width="42.284" height="17.558"/>
	</g>
	<g>
		<rect x="339.789" y="57.687" style="fill:#E0E0E0;" width="42.284" height="17.558"/>
		<rect x="364.687" y="74.916" style="fill:#F5F5F5;" width="42.284" height="17.558"/>
	</g>
	<g>
		<rect x="186.577" y="259.217" style="fill:#E0E0E0;" width="42.284" height="17.558"/>
		<rect x="211.475" y="276.446" style="fill:#F5F5F5;" width="42.284" height="17.558"/>
	</g>
	<g>
		<rect x="650.964" y="201.242" style="fill:#E0E0E0;" width="42.284" height="17.558"/>
		<rect x="675.862" y="218.471" style="fill:#F5F5F5;" width="42.284" height="17.558"/>
	</g>
	<rect x="145.605" y="67" style="fill:#F5F5F5;" width="42.284" height="17.558"/>
	<rect x="544.028" y="222.524" style="fill:#F5F5F5;" width="42.284" height="17.558"/>
</g>
<g id="Background_simple" style="display:none;">
	<g style="display:inline;">
		<path style="fill:#407BFF;" d="M266.693,65.025c-39.273,2.562-77.145,8.017-110.733,16.572
			c-39.588,10.084-80.036,25.794-68.089,46.342c22.056,37.935,127.864,38.626,106.738,64.132
			c-23.93,28.892-7.882,62.782,99.495,72.206c203.947,17.9,450.488-86.837,381.244-144.389
			C632.238,84.058,475.228,51.421,266.693,65.025z"/>
		<path style="opacity:0.9;fill:#FFFFFF;" d="M266.693,65.025c-39.273,2.562-77.145,8.017-110.733,16.572
			c-39.588,10.084-80.036,25.794-68.089,46.342c22.056,37.935,127.864,38.626,106.738,64.132
			c-23.93,28.892-7.882,62.782,99.495,72.206c203.947,17.9,450.488-86.837,381.244-144.389
			C632.238,84.058,475.228,51.421,266.693,65.025z"/>
	</g>
</g>
<g id="Shadows">
	<g>
		<g>
			<path style="fill:#F5F5F5;" d="M571.745,376.564c0,6.046-76.931,10.947-171.83,10.947s-171.83-4.901-171.83-10.947
				c0-6.046,76.931-10.947,171.83-10.947S571.745,370.518,571.745,376.564z"/>
		</g>
	</g>
	<g>
		<g>
			<path style="fill:#F5F5F5;" d="M208.17,376.564c0,6.046-40.352,10.947-90.128,10.947s-90.128-4.901-90.128-10.947
				c0-6.046,40.352-10.947,90.128-10.947S208.17,370.518,208.17,376.564z"/>
		</g>
	</g>
	<g>
		<g>
			<path style="fill:#F5F5F5;" d="M729.787,361.245c0,6.046-31.95,10.947-71.362,10.947s-71.362-4.901-71.362-10.947
				c0-6.046,31.95-10.947,71.362-10.947S729.787,355.199,729.787,361.245z"/>
		</g>
	</g>
</g>
<g id="Table">
	<path style="fill:#263238;" d="M723.798,346.335H32.925c-0.207,0-0.375-0.168-0.375-0.375c0-0.207,0.168-0.375,0.375-0.375h690.873
		c0.207,0,0.375,0.168,0.375,0.375C724.173,346.167,724.005,346.335,723.798,346.335z"/>
</g>
<g id="Plant">
	<g>
		<g>
			<g>
				<path style="fill:#FDBBB5;" d="M614.117,234.121c1.09-3.276,1.346-6.825,0.739-10.223c-2.173,2.704-3.641,5.97-4.219,9.39
					c-0.359-2.094-0.723-4.207-1.527-6.173c-0.805-1.966-2.098-3.8-3.936-4.865c-1.107,4.533-0.543,9.455,1.561,13.621
					c-1.922-3.298-5.138-5.819-8.799-6.896c0.701,4.984,4.49,9.4,9.309,10.85l3.426-0.438c2.789-0.494,5.394-1.969,7.253-4.105
					c1.859-2.137,2.96-4.92,3.064-7.751C618.097,228.958,615.663,231.293,614.117,234.121z"/>
			</g>
			<g>
				<path style="fill:#E97A75;" d="M615.221,237.24c1.348-4.052,1.665-8.443,0.914-12.647c-2.688,3.345-4.504,7.386-5.22,11.617
					c-0.443-2.59-0.894-5.204-1.889-7.636c-0.996-2.432-2.596-4.7-4.87-6.018c-1.37,5.608-0.672,11.697,1.931,16.85
					c-2.377-4.08-6.356-7.198-10.886-8.531c0.867,6.166,5.554,11.629,11.516,13.423l4.239-0.542c3.45-0.612,6.673-2.436,8.973-5.079
					c2.3-2.643,3.661-6.087,3.791-9.588C620.144,230.853,617.133,233.741,615.221,237.24z"/>
			</g>
		</g>
		<g>
			<g>
				<path style="fill:#FDBBB5;" d="M674.88,257.984c1.996-1.402,3.473-3.274,4.254-5.391c-2.593,0.672-4.865,1.925-6.535,3.602
					c0.493-1.298,0.989-2.61,1.104-4.007s-0.18-2.908-1.157-4.199c-2.465,2.093-3.83,5.039-3.779,8.152
					c-0.23-2.562-1.703-5.186-4.03-7.18c-1.287,3.032-0.076,6.926,2.974,9.568l2.701,1.062c2.249,0.788,4.716,0.963,6.87,0.486
					c2.154-0.477,3.98-1.602,5.083-3.133C679.704,256.636,677.052,257.004,674.88,257.984z"/>
			</g>
			<g>
				<path style="fill:#E97A75;" d="M674.568,260.135c2.469-1.735,4.296-4.05,5.263-6.668c-3.207,0.832-6.019,2.381-8.084,4.456
					c0.61-1.606,1.223-3.228,1.366-4.957c0.143-1.729-0.222-3.597-1.432-5.195c-3.049,2.589-4.739,6.234-4.675,10.085
					c-0.285-3.17-2.107-6.416-4.985-8.882c-1.592,3.751-0.094,8.569,3.68,11.836l3.342,1.314c2.782,0.975,5.834,1.191,8.499,0.602
					c2.665-0.59,4.923-1.982,6.288-3.875C680.537,258.467,677.255,258.922,674.568,260.135z"/>
			</g>
		</g>
		<g>
			<g>
				<path style="fill:#407BFF;" d="M657.581,243.187c-0.157-6.358-0.588-12.975-3.719-18.511c-3.131-5.536-9.751-9.611-15.851-7.809
					c-7.452,2.201-10.181,11.164-11.542,18.814c-4.463,25.091-6.748,50.569-6.82,76.054l34.775-3.08
					C656.27,286.874,658.119,265.04,657.581,243.187z"/>
			</g>
			<path style="fill:#263238;" d="M636.17,217.906c-2.224,7.457-3.373,15.275-4.236,22.994c-2.548,23.292-2.636,46.76-4.224,70.121
				c0.888-15.59,1.222-31.205,2.117-46.796C630.931,248.7,631.696,232.904,636.17,217.906L636.17,217.906z"/>
			<path style="fill:#263238;" d="M642.232,216.728c-2.334,31.06-3.036,62.223-3.886,93.351
				C638.883,278.946,639.589,247.763,642.232,216.728L642.232,216.728z"/>
			<path style="fill:#263238;" d="M649.236,219.348c1.074,14.952,1.574,29.942,1.73,44.931c0.003,14.975-0.114,30.031-2.233,44.881
				c1.919-14.871,2.059-29.905,1.983-44.879C650.635,249.293,650.11,234.309,649.236,219.348L649.236,219.348z"/>
			<g style="opacity:0.3;">
				<path d="M657.581,243.187c-0.157-6.358-0.588-12.975-3.719-18.511c-3.131-5.536-9.751-9.611-15.851-7.809
					c-7.452,2.201-10.181,11.164-11.542,18.814c-4.463,25.091-6.748,50.569-6.82,76.054l34.775-3.08
					C656.27,286.874,658.119,265.04,657.581,243.187z"/>
			</g>
		</g>
		<g>
			<g>
				<path style="fill:#407BFF;" d="M626.202,260.01c-0.75-6.901-2.496-14.863-8.756-17.862c-6.399-3.065-14.371,1.201-17.861,7.379
					c-3.49,6.178-3.672,13.616-3.765,20.711c-0.206,15.675-0.412,31.35-0.618,47.025l32.002-4.815
					C628.429,294.985,628.093,277.413,626.202,260.01z"/>
			</g>
			<path style="fill:#263238;" d="M606.692,243.121c-5.125,23.926-3.63,48.622-3.394,72.923
				C602.745,291.762,601.264,266.985,606.692,243.121L606.692,243.121z"/>
			<path style="fill:#263238;" d="M611.026,243.027c0.242,23.802,0.853,47.749,2.209,71.522
				C611.564,290.757,610.96,266.876,611.026,243.027L611.026,243.027z"/>
			<path style="fill:#263238;" d="M617.446,242.148c3.925,23.434,6.379,47.32,5.09,71.093
				C623.511,289.457,621.064,265.634,617.446,242.148L617.446,242.148z"/>
		</g>
		<g>
			<g>
				<path style="fill:#407BFF;" d="M676.134,276.34c0.653-5.414,0.734-11.816-3.523-15.225c-4.351-3.484-11.21-1.637-14.979,2.469
					c-3.769,4.106-5.231,9.765-6.564,15.177c-2.945,11.957-5.891,23.915-8.836,35.872l25.343,2.007
					C671.618,303.497,674.486,289.992,676.134,276.34z"/>
			</g>
			<path style="fill:#263238;" d="M664.21,259.947c-8.146,17.409-11.391,36.563-15.566,55.194
				C652.505,296.457,655.782,277.227,664.21,259.947L664.21,259.947z"/>
			<path style="fill:#263238;" d="M667.543,260.646c-4.023,18.3-7.801,36.662-11.03,55.119
				C659.432,297.257,663.218,278.875,667.543,260.646L667.543,260.646z"/>
			<path style="fill:#263238;" d="M672.611,261.115c-1.131,18.631-3.502,37.351-8.749,55.303
				C668.805,298.384,671.169,279.727,672.611,261.115L672.611,261.115z"/>
		</g>
		<path style="fill:#263238;" d="M636.146,366.685h-2.569c-24.914,0-45.111-20.197-45.111-45.111v-14.892h92.791v14.892
			C681.257,346.488,661.06,366.685,636.146,366.685z"/>
		<path style="fill:#407BFF;" d="M588.519,322.754c24.085,0,48.17,0,72.255,0c6.81,0,13.62,0,20.431,0c0.322,0,0.322-0.5,0-0.5
			c-24.085,0-48.17,0-72.255,0c-6.81,0-13.62,0-20.431,0C588.198,322.254,588.197,322.754,588.519,322.754L588.519,322.754z"/>
	</g>
</g>
<g id="Keyboard">
	<g>
		<path style="fill:#263238;" d="M229.847,448.58c-5.871-0.012-10.25-4.658-9.064-9.616c3.511-14.677,10.279-41.271,12.52-50.052
			c0.433-1.695,2.176-2.898,4.189-2.895l300.271,0.503c2.602,0.004,4.861,1.548,5.461,3.731l13.239,48.2
			c1.405,5.115-3.167,9.994-9.261,9.877c-20.968-0.404-63.166-1.247-75.8-1.731c-17.037-0.653-64.742,1.632-87.079,1.959
			C365.82,448.826,264.201,448.649,229.847,448.58z"/>
		<g style="opacity:0.2;">
			<path style="fill:#FFFFFF;" d="M516.987,415.995l-0.689-3.141c-0.157-0.716-0.882-1.234-1.727-1.234h-8.232
				c-1.079,0-1.904,0.831-1.736,1.75l0.571,3.141c0.134,0.737,0.871,1.281,1.736,1.281h8.349
				C516.361,417.792,517.191,416.929,516.987,415.995z"/>
			<path style="fill:#FFFFFF;" d="M503.422,416.042l-0.571-3.141c-0.134-0.737-0.871-1.281-1.736-1.281h-7.142
				c-1.051,0-1.867,0.79-1.746,1.69l0.422,3.141c0.103,0.764,0.853,1.341,1.746,1.341h7.292
				C502.765,417.792,503.589,416.962,503.422,416.042z"/>
			<path style="fill:#FFFFFF;" d="M502.494,419.212h-7.503c-1.051,0-1.867,0.79-1.746,1.69l0.422,3.142
				c0.103,0.764,0.853,1.341,1.746,1.341h7.653c1.079,0,1.904-0.831,1.736-1.75l-0.571-3.142
				C504.097,419.755,503.36,419.212,502.494,419.212z"/>
			<path style="fill:#FFFFFF;" d="M533.287,427.952c-0.195-0.675-0.898-1.149-1.705-1.149h-11.576l-0.628,0.102l-0.022-0.102
				h-13.368l-0.595,0.08l-0.015-0.08h-9.368c-1.051,0-1.867,0.79-1.746,1.69l0.456,3.401c0.104,0.772,0.867,1.351,1.768,1.341
				l35.986-0.394c1.134-0.012,1.958-0.934,1.683-1.882L533.287,427.952z"/>
			<path style="fill:#FFFFFF;" d="M493.375,410.201h6.931c1.079,0,1.904-0.831,1.736-1.75l-0.423-2.327
				c-0.134-0.737-0.871-1.281-1.736-1.281h-6.82c-1.051,0-1.867,0.79-1.746,1.69l0.312,2.327
				C491.731,409.624,492.482,410.201,493.375,410.201z"/>
			<path style="fill:#FFFFFF;" d="M505.53,410.201h8.065c1.102,0,1.932-0.864,1.727-1.797l-0.51-2.327
				c-0.157-0.716-0.882-1.234-1.727-1.234h-7.978c-1.079,0-1.904,0.831-1.736,1.75l0.423,2.327
				C503.928,409.658,504.664,410.201,505.53,410.201z"/>
			<path style="fill:#FFFFFF;" d="M516.965,402.809h6.579c1.143,0,1.982-0.926,1.705-1.883l-0.418-1.444
				c-0.195-0.675-0.898-1.149-1.705-1.149h-6.478c-1.102,0-1.932,0.864-1.727,1.797l0.317,1.444
				C515.395,402.29,516.12,402.809,516.965,402.809z"/>
			<path style="fill:#FFFFFF;" d="M527.607,408.319l-0.673-2.327c-0.195-0.675-0.898-1.149-1.705-1.149h-6.891
				c-1.102,0-1.932,0.864-1.727,1.797l0.51,2.327c0.157,0.716,0.882,1.234,1.727,1.234h7.054
				C527.044,410.201,527.883,409.275,527.607,408.319z"/>
			<path style="fill:#FFFFFF;" d="M503.901,402.809h7.811c1.102,0,1.932-0.864,1.727-1.797l-0.317-1.445
				c-0.157-0.716-0.882-1.234-1.727-1.234h-7.757c-1.079,0-1.904,0.831-1.736,1.75l0.263,1.445
				C502.299,402.265,503.036,402.809,503.901,402.809z"/>
			<path style="fill:#FFFFFF;" d="M528.864,402.809h5.604c1.178,0,2.023-0.98,1.683-1.953l-0.505-1.444
				c-0.224-0.64-0.908-1.079-1.683-1.079h-5.518c-1.143,0-1.982,0.926-1.705,1.882l0.418,1.445
				C527.354,402.335,528.057,402.809,528.864,402.809z"/>
			<path style="fill:#FFFFFF;" d="M536.339,432.636l8.775,0.067c1.169-0.013,1.998-0.988,1.661-1.953l-6.306-18.052
				c-0.224-0.64-0.907-1.078-1.683-1.078h-6.277c-1.143,0-1.982,0.926-1.705,1.882L536.339,432.636L536.339,432.636z"/>
			<path style="fill:#FFFFFF;" d="M500.413,401.058l-0.263-1.444c-0.134-0.737-0.871-1.281-1.736-1.281h-6.539
				c-1.051,0-1.867,0.79-1.746,1.69l0.194,1.445c0.103,0.764,0.853,1.341,1.746,1.341h6.608
				C499.756,402.809,500.58,401.978,500.413,401.058z"/>
			<path style="fill:#FFFFFF;" d="M453.187,409.038h6.931c1.079,0,1.903-0.831,1.736-1.75l-0.423-2.327
				c-0.134-0.737-0.871-1.281-1.736-1.281h-6.82c-1.051,0-1.867,0.79-1.746,1.69l0.312,2.327
				C451.544,408.461,452.294,409.038,453.187,409.038z"/>
			<path style="fill:#FFFFFF;" d="M465.342,409.038h8.065c1.102,0,1.932-0.864,1.727-1.797l-0.51-2.327
				c-0.157-0.716-0.882-1.234-1.727-1.234h-7.978c-1.079,0-1.904,0.831-1.736,1.75l0.423,2.327
				C463.74,408.494,464.477,409.038,465.342,409.038z"/>
			<path style="fill:#FFFFFF;" d="M477.173,402.261h6.579c1.143,0,1.982-0.926,1.705-1.882l-0.418-1.444
				c-0.195-0.675-0.899-1.149-1.705-1.149h-6.478c-1.102,0-1.932,0.864-1.727,1.797l0.317,1.444
				C475.603,401.743,476.329,402.261,477.173,402.261z"/>
			<path style="fill:#FFFFFF;" d="M487.419,407.155l-0.673-2.327c-0.195-0.675-0.898-1.149-1.705-1.149h-6.891
				c-1.102,0-1.932,0.864-1.727,1.797l0.51,2.327c0.157,0.716,0.882,1.234,1.727,1.234h7.054
				C486.856,409.038,487.695,408.112,487.419,407.155z"/>
			<path style="fill:#FFFFFF;" d="M464.11,402.261h7.811c1.102,0,1.932-0.864,1.727-1.797l-0.317-1.445
				c-0.157-0.716-0.882-1.234-1.727-1.234h-7.757c-1.079,0-1.903,0.831-1.736,1.75l0.263,1.445
				C462.508,401.717,463.245,402.261,464.11,402.261z"/>
			<path style="fill:#FFFFFF;" d="M460.622,400.511l-0.263-1.444c-0.134-0.737-0.871-1.281-1.736-1.281h-6.539
				c-1.051,0-1.867,0.79-1.746,1.69l0.194,1.444c0.103,0.764,0.853,1.341,1.746,1.341h6.608
				C459.965,402.261,460.789,401.43,460.622,400.511z"/>
			<path style="fill:#FFFFFF;" d="M532,423.502l-0.909-3.142c-0.195-0.675-0.898-1.149-1.705-1.149h-7.898
				c-1.102,0-1.932,0.864-1.727,1.797l0.689,3.142c0.157,0.716,0.882,1.234,1.727,1.234h8.118
				C531.437,425.384,532.276,424.458,532,423.502z"/>
			<path style="fill:#FFFFFF;" d="M529.803,415.91l-0.909-3.141c-0.195-0.675-0.898-1.149-1.705-1.149h-7.366
				c-1.102,0-1.932,0.864-1.727,1.797l0.689,3.141c0.157,0.716,0.882,1.234,1.727,1.234h7.586
				C529.241,417.792,530.08,416.866,529.803,415.91z"/>
			<path style="fill:#FFFFFF;" d="M538.915,408.248l-0.889-2.49c-0.194-0.544-0.777-0.915-1.437-0.915h-6.041
				c-1.143,0-1.982,0.926-1.705,1.882l0.673,2.327c0.195,0.675,0.898,1.149,1.705,1.149h6.01
				C538.41,410.201,539.254,409.221,538.915,408.248z"/>
			<path style="fill:#FFFFFF;" d="M518.651,423.587l-0.689-3.142c-0.157-0.716-0.882-1.234-1.727-1.234h-8.516
				c-1.079,0-1.904,0.831-1.736,1.75l0.571,3.141c0.134,0.737,0.871,1.281,1.736,1.281h8.634
				C518.026,425.384,518.856,424.521,518.651,423.587z"/>
			<path style="fill:#FFFFFF;" d="M476.572,423.75l-0.689-3.141c-0.157-0.716-0.882-1.234-1.727-1.234h-8.232
				c-1.079,0-1.904,0.831-1.736,1.75l0.571,3.141c0.134,0.737,0.871,1.281,1.736,1.281h8.349
				C475.947,425.547,476.777,424.683,476.572,423.75z"/>
			<path style="fill:#FFFFFF;" d="M462.08,426.966h-7.504c-1.051,0-1.867,0.79-1.746,1.69l0.422,3.142
				c0.103,0.764,0.853,1.341,1.746,1.341h7.653c1.079,0,1.903-0.831,1.736-1.75l-0.571-3.142
				C463.683,427.509,462.946,426.966,462.08,426.966z"/>
			<path style="fill:#FFFFFF;" d="M491.585,431.256l-0.909-3.142c-0.195-0.675-0.898-1.149-1.705-1.149h-7.898
				c-1.102,0-1.932,0.864-1.727,1.797l0.689,3.142c0.157,0.716,0.882,1.234,1.727,1.234h8.118
				C491.023,433.139,491.862,432.213,491.585,431.256z"/>
			<path style="fill:#FFFFFF;" d="M478.237,431.342l-0.689-3.142c-0.157-0.716-0.882-1.234-1.727-1.234h-8.516
				c-1.079,0-1.904,0.831-1.736,1.75l0.571,3.141c0.134,0.737,0.871,1.281,1.736,1.281h8.634
				C477.611,433.139,478.441,432.275,478.237,431.342z"/>
		</g>
		<g style="opacity:0.2;">
			<path style="fill:#FFFFFF;" d="M285.008,422.445l0.254-3.532c0.055-0.76-0.645-1.402-1.528-1.402h-9.038
				c-0.786,0-1.445,0.514-1.523,1.188l-0.412,3.532c-0.091,0.777,0.617,1.452,1.523,1.452h9.196
				C284.289,423.684,284.958,423.142,285.008,422.445z"/>
			<path style="fill:#FFFFFF;" d="M289.288,408.5h7.193c0.835,0,1.517-0.578,1.531-1.298l0.053-2.717
				c0.014-0.738-0.675-1.343-1.531-1.343h-7.051c-0.809,0-1.478,0.542-1.528,1.239l-0.195,2.717
				C287.705,407.858,288.405,408.5,289.288,408.5z"/>
			<path style="fill:#FFFFFF;" d="M276.055,408.5h8.517c0.809,0,1.478-0.543,1.528-1.239l0.195-2.717
				c0.055-0.76-0.645-1.402-1.528-1.402h-8.395c-0.786,0-1.445,0.514-1.523,1.188l-0.317,2.717
				C274.44,407.826,275.148,408.5,276.055,408.5z"/>
			<path style="fill:#FFFFFF;" d="M300.47,408.5h10.748c0.454,0,0.823-0.318,0.823-0.71v-3.938c0-0.392-0.368-0.71-0.823-0.71
				h-10.671c-0.449,0-0.815,0.31-0.823,0.698l-0.077,3.938C299.639,408.175,300.01,408.5,300.47,408.5z"/>
			<path style="fill:#FFFFFF;" d="M342.594,408.5h11.21c0.454,0,0.823-0.318,0.823-0.71v-3.938c0-0.392-0.368-0.71-0.823-0.71
				h-11.21c-0.454,0-0.823,0.318-0.823,0.71v3.938C341.771,408.183,342.139,408.5,342.594,408.5z"/>
			<path style="fill:#FFFFFF;" d="M329.123,408.5h10.179c0.454,0,0.823-0.318,0.823-0.71v-3.938c0-0.392-0.368-0.71-0.823-0.71
				h-10.179c-0.454,0-0.823,0.318-0.823,0.71v3.938C328.3,408.183,328.669,408.5,329.123,408.5z"/>
			<path style="fill:#FFFFFF;" d="M357.096,408.5h11.407c0.449,0,0.815-0.311,0.823-0.698l0.076-3.938
				c0.008-0.396-0.363-0.721-0.823-0.721h-11.483c-0.454,0-0.823,0.318-0.823,0.71v3.938
				C356.273,408.183,356.641,408.5,357.096,408.5z"/>
			<path style="fill:#FFFFFF;" d="M314.509,408.5h11.323c0.455,0,0.823-0.318,0.823-0.71v-3.938c0-0.392-0.368-0.71-0.823-0.71
				h-11.323c-0.454,0-0.823,0.318-0.823,0.71v3.938C313.686,408.183,314.054,408.5,314.509,408.5z"/>
			<path style="fill:#FFFFFF;" d="M395.716,417.725h-10.134c-0.725,0-1.31,0.513-1.298,1.138l0.077,3.934
				c0.012,0.611,0.589,1.101,1.298,1.101h10.221c0.735,0,1.324-0.526,1.297-1.159l-0.164-3.934
				C396.988,418.202,396.414,417.725,395.716,417.725z"/>
			<path style="fill:#FFFFFF;" d="M411.631,417.725H399.96c-0.735,0-1.324,0.526-1.297,1.16l0.164,3.934
				c0.025,0.602,0.599,1.079,1.297,1.079h11.857c0.756,0,1.352-0.555,1.294-1.205l-0.35-3.934
				C412.874,418.175,412.31,417.725,411.631,417.725z"/>
			<path style="fill:#FFFFFF;" d="M296.253,417.511h-7.802c-0.809,0-1.478,0.542-1.528,1.239l-0.254,3.532
				c-0.055,0.76,0.645,1.402,1.528,1.402h7.987c0.836,0,1.517-0.578,1.531-1.298l0.069-3.532
				C297.798,418.116,297.108,417.511,296.253,417.511z"/>
			<path style="fill:#FFFFFF;" d="M398.347,411.079l0.164,3.934c0.025,0.602,0.598,1.079,1.297,1.079h11.499
				c0.756,0,1.352-0.555,1.294-1.205l-0.35-3.934c-0.052-0.583-0.616-1.034-1.294-1.034h-11.313
				C398.909,409.92,398.32,410.445,398.347,411.079z"/>
			<g>
				<path style="fill:#FFFFFF;" d="M369.126,418.233c0.008-0.396-0.363-0.721-0.823-0.721h-11.207c-0.454,0-0.823,0.318-0.823,0.71
					v4.753c0,0.392,0.368,0.71,0.823,0.71h12.159c-0.138-0.262-0.223-0.562-0.219-0.752L369.126,418.233z"/>
				<path style="fill:#FFFFFF;" d="M382.628,418.209c-0.008-0.387-0.374-0.698-0.823-0.698h-10.21c-0.449,0-0.816,0.311-0.823,0.698
					l-0.091,4.746c-0.004,0.186-0.09,0.475-0.226,0.729h11.443c0.46,0,0.831-0.325,0.823-0.721L382.628,418.209z"/>
			</g>
			<path style="fill:#FFFFFF;" d="M339.302,417.511h-10.179c-0.454,0-0.823,0.318-0.823,0.71v4.723c0,0.392-0.368,0.71-0.823,0.71
				l0,0c-0.454,0-0.823-0.318-0.823-0.71v-4.723c0-0.392-0.368-0.71-0.823-0.71h-11.323c-0.454,0-0.823,0.318-0.823,0.71v4.723
				c0,0.392-0.368,0.71-0.823,0.71l0,0c-0.454,0-0.823-0.318-0.823-0.71v-4.723c0-0.392-0.368-0.71-0.823-0.71h-10.952
				c-0.449,0-0.815,0.31-0.823,0.698l-0.093,4.753c-0.008,0.397,0.363,0.722,0.823,0.722h39.13c0.454,0,0.823-0.318,0.823-0.71
				v-4.753C340.125,417.829,339.757,417.511,339.302,417.511z"/>
			<path style="fill:#FFFFFF;" d="M353.804,417.511h-11.21c-0.454,0-0.823,0.318-0.823,0.71v4.753c0,0.392,0.368,0.71,0.823,0.71
				h11.21c0.454,0,0.823-0.318,0.823-0.71v-4.753C354.627,417.829,354.258,417.511,353.804,417.511z"/>
			<path style="fill:#FFFFFF;" d="M284.279,409.92h-8.698c-0.786,0-1.445,0.514-1.523,1.188l-0.412,3.532
				c-0.091,0.777,0.617,1.452,1.523,1.452h8.856c0.809,0,1.478-0.542,1.528-1.239l0.254-3.532
				C285.862,410.562,285.162,409.92,284.279,409.92z"/>
			<path style="fill:#FFFFFF;" d="M385.362,408.714h9.886c0.735,0,1.324-0.526,1.297-1.159l-0.13-3.119
				c-0.025-0.602-0.599-1.079-1.297-1.079h-9.817c-0.725,0-1.31,0.513-1.298,1.138l0.061,3.119
				C384.076,408.224,384.654,408.714,385.362,408.714z"/>
			<path style="fill:#FFFFFF;" d="M372.278,408.5h8.841c0.725,0,1.31-0.513,1.298-1.138l-0.061-3.119
				c-0.012-0.611-0.59-1.101-1.298-1.101h-8.72c-0.709,0-1.286,0.49-1.298,1.101l-0.06,3.119
				C370.969,407.988,371.553,408.5,372.278,408.5z"/>
			<path style="fill:#FFFFFF;" d="M311.217,409.92h-10.803c-0.449,0-0.815,0.31-0.823,0.698l-0.093,4.753
				c-0.008,0.397,0.363,0.722,0.823,0.722h10.896c0.454,0,0.823-0.318,0.823-0.71v-4.753
				C312.04,410.237,311.672,409.92,311.217,409.92z"/>
			<path style="fill:#FFFFFF;" d="M288.742,416.092h7.59c0.836,0,1.517-0.578,1.531-1.298l0.069-3.532
				c0.014-0.738-0.675-1.342-1.531-1.342h-7.405c-0.809,0-1.478,0.543-1.528,1.239l-0.254,3.532
				C287.16,415.45,287.86,416.092,288.742,416.092z"/>
			<path style="fill:#FFFFFF;" d="M428.049,401.724h16.633c0.94,0,1.671-0.705,1.565-1.511l-0.23-1.751
				c-0.09-0.69-0.77-1.21-1.575-1.206l-16.653,0.091c-0.947,0.005-1.674,0.724-1.552,1.533l0.25,1.66
				C426.589,401.217,427.258,401.724,428.049,401.724z"/>
			<path style="fill:#FFFFFF;" d="M425.099,409.92h-9.888c-0.756,0-1.352,0.555-1.294,1.205l0.35,3.934
				c0.052,0.583,0.616,1.034,1.294,1.034h10.13c0.783,0,1.388-0.594,1.287-1.263l-0.592-3.934
				C426.302,410.337,425.751,409.92,425.099,409.92z"/>
			<path style="fill:#FFFFFF;" d="M431.109,423.684h16.762c0.775,0,1.377-0.581,1.29-1.245l-0.516-3.934
				c-0.074-0.566-0.629-0.994-1.29-0.994h-16.838c-0.783,0-1.388,0.594-1.287,1.263l0.592,3.934
				C429.906,423.267,430.457,423.684,431.109,423.684z"/>
			<path style="fill:#FFFFFF;" d="M262.198,416.092h8.24c0.786,0,1.445-0.514,1.523-1.188l0.412-3.532
				c0.091-0.777-0.617-1.452-1.523-1.452h-8.079c-0.764,0-1.411,0.485-1.516,1.138l-0.572,3.532
				C260.552,415.383,261.268,416.092,262.198,416.092z"/>
			<path style="fill:#FFFFFF;" d="M368.448,409.92h-11.353c-0.454,0-0.823,0.318-0.823,0.71v4.753c0,0.392,0.368,0.71,0.823,0.71
				h11.262c0.449,0,0.815-0.311,0.823-0.698l0.091-4.753C369.279,410.245,368.908,409.92,368.448,409.92z"/>
			<polygon style="fill:#FFFFFF;" points="382.467,409.92 370.931,409.92 370.813,416.092 382.587,416.092 			"/>
			<path style="fill:#FFFFFF;" d="M325.831,409.92h-11.323c-0.454,0-0.823,0.318-0.823,0.71v4.753c0,0.392,0.368,0.71,0.823,0.71
				h11.323c0.455,0,0.823-0.318,0.823-0.71v-4.753C326.654,410.237,326.286,409.92,325.831,409.92z"/>
			<path style="fill:#FFFFFF;" d="M395.4,410.133h-9.967c-0.725,0-1.31,0.513-1.298,1.138l0.077,3.934
				c0.012,0.611,0.59,1.101,1.298,1.101h10.053c0.735,0,1.324-0.526,1.297-1.159l-0.164-3.934
				C396.672,410.61,396.099,410.133,395.4,410.133z"/>
			<path style="fill:#FFFFFF;" d="M339.302,409.92h-10.179c-0.454,0-0.823,0.318-0.823,0.71v4.753c0,0.392,0.368,0.71,0.823,0.71
				h10.179c0.454,0,0.823-0.318,0.823-0.71v-4.753C340.125,410.237,339.757,409.92,339.302,409.92z"/>
			<path style="fill:#FFFFFF;" d="M353.804,409.92h-11.21c-0.454,0-0.823,0.318-0.823,0.71v4.753c0,0.392,0.368,0.71,0.823,0.71
				h11.21c0.454,0,0.823-0.318,0.823-0.71v-4.753C354.627,410.237,354.258,409.92,353.804,409.92z"/>
			<path style="fill:#FFFFFF;" d="M410.354,403.143h-10.992c-0.735,0-1.324,0.526-1.297,1.159l0.13,3.119
				c0.025,0.602,0.598,1.079,1.297,1.079h11.14c0.756,0,1.352-0.555,1.294-1.205l-0.277-3.119
				C411.597,403.594,411.033,403.143,410.354,403.143z"/>
			<path style="fill:#FFFFFF;" d="M381.953,425.103h-94.714c-0.435,0-0.794,0.292-0.821,0.666l-0.579,8.054
				c-0.03,0.411,0.351,0.757,0.828,0.753l95.436-0.674c0.457-0.003,0.824-0.327,0.816-0.721l-0.144-7.38
				C382.769,425.414,382.402,425.103,381.953,425.103z"/>
			<path style="fill:#FFFFFF;" d="M396.031,425.317h-10.302c-0.725,0-1.31,0.513-1.298,1.138l0.127,6.534
				c0.012,0.614,0.596,1.105,1.309,1.101l10.444-0.074c0.731-0.005,1.313-0.53,1.287-1.159l-0.269-6.46
				C397.304,425.794,396.73,425.317,396.031,425.317z"/>
			<path style="fill:#FFFFFF;" d="M283.188,425.103h-9.378c-0.786,0-1.445,0.514-1.523,1.188l-0.808,6.929
				c-0.091,0.782,0.625,1.459,1.536,1.452l9.693-0.068c0.804-0.006,1.466-0.547,1.516-1.239l0.493-6.86
				C284.771,425.745,284.071,425.103,283.188,425.103z"/>
			<path style="fill:#FFFFFF;" d="M258.96,414.955l0.572-3.532c0.129-0.794-0.587-1.503-1.516-1.503h-14.405
				c-0.731,0-1.361,0.446-1.502,1.065l-0.808,3.532c-0.187,0.816,0.538,1.576,1.502,1.576h14.641
				C258.208,416.092,258.855,415.607,258.96,414.955z"/>
			<path style="fill:#FFFFFF;" d="M412.306,425.317h-12.03c-0.735,0-1.324,0.526-1.297,1.159l0.267,6.43
				c0.025,0.606,0.605,1.084,1.308,1.079l12.327-0.087c0.752-0.005,1.341-0.558,1.284-1.205l-0.564-6.343
				C413.548,425.767,412.984,425.317,412.306,425.317z"/>
			<path style="fill:#FFFFFF;" d="M269.79,433.518l0.812-6.962c0.091-0.777-0.617-1.452-1.523-1.452h-8.768
				c-0.764,0-1.411,0.485-1.516,1.138l-1.138,7.026c-0.129,0.798,0.594,1.509,1.529,1.503l9.095-0.064
				C269.06,434.7,269.712,434.188,269.79,433.518z"/>
			<path style="fill:#FFFFFF;" d="M269.964,417.511h-8.424c-0.764,0-1.411,0.485-1.516,1.138l-0.572,3.532
				c-0.129,0.794,0.586,1.503,1.516,1.503h8.584c0.786,0,1.445-0.513,1.523-1.188l0.412-3.532
				C271.578,418.186,270.87,417.511,269.964,417.511z"/>
			<path style="fill:#FFFFFF;" d="M257.73,422.546l0.572-3.532c0.129-0.794-0.587-1.503-1.516-1.503h-14.912
				c-0.731,0-1.361,0.446-1.502,1.065l-0.808,3.532c-0.187,0.816,0.538,1.576,1.502,1.576h15.148
				C256.978,423.684,257.625,423.199,257.73,422.546z"/>
			<path style="fill:#FFFFFF;" d="M255.556,425.103h-15.419c-0.731,0-1.361,0.446-1.502,1.065l-1.641,7.172
				c-0.188,0.82,0.545,1.582,1.515,1.576l15.916-0.112c0.759-0.005,1.399-0.489,1.504-1.138l1.144-7.06
				C257.202,425.812,256.486,425.103,255.556,425.103z"/>
			<path style="fill:#FFFFFF;" d="M427.383,425.103H416.56c-0.756,0-1.352,0.555-1.294,1.205l0.561,6.313
				c0.052,0.587,0.622,1.039,1.305,1.034l11.199-0.079c0.779-0.005,1.377-0.597,1.277-1.263l-0.938-6.234
				C428.586,425.521,428.035,425.103,427.383,425.103z"/>
			<path style="fill:#FFFFFF;" d="M450.439,432.184l-0.915-5.979c-0.096-0.631-0.72-1.102-1.458-1.102l0,0H431.66
				c-0.783,0-1.388,0.593-1.287,1.263l0.933,6.204c0.085,0.561,0.642,0.98,1.298,0.975l16.556-0.117
				C449.93,433.423,450.525,432.844,450.439,432.184z"/>
			<path style="fill:#FFFFFF;" d="M261.288,400.586l0.133-0.821c0.129-0.797-0.592-1.508-1.526-1.503l-13.644,0.074
				c-0.728,0.004-1.352,0.449-1.493,1.065l-0.171,0.747c-0.187,0.816,0.538,1.576,1.502,1.576h13.682
				C260.535,401.724,261.182,401.238,261.288,400.586z"/>
			<path style="fill:#FFFFFF;" d="M414.591,418.716l0.35,3.934c0.052,0.583,0.616,1.034,1.294,1.034h10.597
				c0.783,0,1.388-0.594,1.287-1.263l-0.592-3.934c-0.084-0.558-0.635-0.975-1.287-0.975h-10.355
				C415.13,417.511,414.534,418.066,414.591,418.716z"/>
			<path style="fill:#FFFFFF;" d="M429.967,416.092h16.909c0.775,0,1.377-0.581,1.29-1.245l-0.516-3.934
				c-0.074-0.566-0.629-0.994-1.29-0.994h-16.985c-0.783,0-1.388,0.594-1.287,1.263l0.592,3.934
				C428.764,415.675,429.315,416.092,429.967,416.092z"/>
			<path style="fill:#FFFFFF;" d="M428.825,408.5h17.056c0.775,0,1.377-0.581,1.29-1.245l-0.409-3.119
				c-0.074-0.566-0.629-0.994-1.29-0.994h-17.116c-0.783,0-1.388,0.594-1.287,1.263l0.469,3.119
				C427.622,408.083,428.173,408.5,428.825,408.5z"/>
			<path style="fill:#FFFFFF;" d="M314.509,401.724h11.323c0.455,0,0.823-0.318,0.823-0.709v-2.402c0-0.394-0.372-0.712-0.828-0.71
				l-11.323,0.062c-0.452,0.003-0.818,0.319-0.818,0.71v2.341C313.686,401.406,314.054,401.724,314.509,401.724z"/>
			<path style="fill:#FFFFFF;" d="M357.096,401.724h11.537c0.449,0,0.815-0.31,0.823-0.698l0.051-2.636
				c0.008-0.398-0.366-0.724-0.828-0.721l-11.588,0.063c-0.452,0.003-0.818,0.319-0.818,0.71v2.573
				C356.273,401.406,356.641,401.724,357.096,401.724z"/>
			<path style="fill:#FFFFFF;" d="M371.925,401.724h9.545c0.46,0,0.831-0.325,0.823-0.721l-0.053-2.705
				c-0.008-0.389-0.377-0.7-0.828-0.698l-9.442,0.052c-0.447,0.002-0.81,0.312-0.818,0.698l-0.051,2.654
				C371.095,401.399,371.465,401.724,371.925,401.724z"/>
			<path style="fill:#FFFFFF;" d="M329.123,401.724h10.179c0.454,0,0.823-0.318,0.823-0.709v-2.476c0-0.394-0.372-0.712-0.828-0.71
				l-10.179,0.056c-0.452,0.002-0.818,0.319-0.818,0.709v2.42C328.3,401.406,328.669,401.724,329.123,401.724z"/>
			<path style="fill:#FFFFFF;" d="M342.594,401.724h11.21c0.454,0,0.823-0.318,0.823-0.709v-2.555c0-0.394-0.372-0.712-0.828-0.71
				l-11.21,0.061c-0.452,0.003-0.818,0.32-0.818,0.71v2.494C341.771,401.406,342.139,401.724,342.594,401.724z"/>
			<path style="fill:#FFFFFF;" d="M412.806,398.626l0.183,2.064c0.052,0.583,0.616,1.034,1.294,1.034h9.245
				c0.783,0,1.388-0.593,1.287-1.263l-0.318-2.114c-0.084-0.56-0.64-0.979-1.296-0.975l-9.111,0.05
				C413.339,397.426,412.749,397.979,412.806,398.626z"/>
			<path style="fill:#FFFFFF;" d="M385.23,401.937h9.736c0.735,0,1.324-0.526,1.297-1.159l-0.082-1.959
				c-0.025-0.605-0.603-1.083-1.305-1.079l-9.691,0.053c-0.722,0.004-1.302,0.515-1.29,1.138l0.037,1.906
				C383.944,401.448,384.522,401.937,385.23,401.937z"/>
			<path style="fill:#FFFFFF;" d="M399.21,401.724h10.819c0.756,0,1.352-0.555,1.294-1.205l-0.181-2.041
				c-0.052-0.586-0.621-1.038-1.303-1.034l-10.72,0.059c-0.732,0.004-1.315,0.529-1.289,1.159l0.082,1.982
				C397.938,401.247,398.511,401.724,399.21,401.724z"/>
			<path style="fill:#FFFFFF;" d="M289.775,401.724h6.838c0.836,0,1.517-0.578,1.531-1.298l0.02-1.022
				c0.014-0.741-0.681-1.347-1.541-1.342l-6.788,0.037c-0.805,0.004-1.469,0.546-1.518,1.239l-0.071,0.985
				C288.192,401.082,288.892,401.724,289.775,401.724z"/>
			<path style="fill:#FFFFFF;" d="M276.845,401.724h8.213c0.809,0,1.478-0.542,1.528-1.239l0.069-0.959
				c0.055-0.763-0.651-1.407-1.538-1.402l-8.176,0.045c-0.783,0.004-1.435,0.517-1.514,1.188l-0.107,0.914
				C275.231,401.049,275.939,401.724,276.845,401.724z"/>
			<path style="fill:#FFFFFF;" d="M264.525,401.724h7.587c0.786,0,1.445-0.513,1.523-1.188l0.104-0.889
				c0.091-0.781-0.623-1.457-1.533-1.452l-7.554,0.041c-0.76,0.004-1.401,0.488-1.507,1.138l-0.137,0.847
				C262.88,401.015,263.595,401.724,264.525,401.724z"/>
			<path style="fill:#FFFFFF;" d="M272.846,407.312l0.317-2.717c0.091-0.777-0.617-1.452-1.524-1.452h-7.772
				c-0.764,0-1.411,0.485-1.516,1.138l-0.44,2.717c-0.129,0.794,0.587,1.503,1.516,1.503h7.895
				C272.109,408.5,272.767,407.987,272.846,407.312z"/>
			<path style="fill:#FFFFFF;" d="M244.539,408.5h14.134c0.764,0,1.411-0.485,1.516-1.138l0.44-2.717
				c0.129-0.794-0.587-1.503-1.516-1.503h-13.953c-0.731,0-1.361,0.446-1.502,1.065l-0.621,2.717
				C242.851,407.741,243.575,408.5,244.539,408.5z"/>
			<path style="fill:#FFFFFF;" d="M300.602,401.724h10.615c0.454,0,0.823-0.318,0.823-0.709v-2.323c0-0.394-0.372-0.712-0.828-0.71
				l-10.571,0.058c-0.447,0.002-0.81,0.312-0.818,0.698l-0.044,2.265C299.772,401.399,300.142,401.724,300.602,401.724z"/>
			<path style="fill:#FFFFFF;" d="M413.314,404.348l0.277,3.119c0.052,0.583,0.616,1.034,1.294,1.034h9.662
				c0.783,0,1.388-0.594,1.287-1.263l-0.469-3.119c-0.084-0.558-0.635-0.975-1.287-0.975h-9.47
				C413.853,403.143,413.257,403.698,413.314,404.348z"/>
		</g>
		<path style="opacity:0.2;fill:#FFFFFF;" d="M424.029,393.833h16.126c0.911,0,1.62-0.493,1.518-1.057l-0.223-1.224
			c-0.088-0.483-0.746-0.846-1.527-0.843l-16.145,0.063c-0.918,0.004-1.623,0.506-1.505,1.072l0.242,1.161
			C422.613,393.479,423.261,393.833,424.029,393.833z"/>
		<path style="opacity:0.2;fill:#FFFFFF;" d="M262.349,393.038l0.129-0.574c0.125-0.558-0.574-1.054-1.48-1.051l-13.229,0.052
			c-0.706,0.003-1.311,0.314-1.447,0.745l-0.166,0.522c-0.181,0.57,0.521,1.102,1.456,1.102h13.265
			C261.619,393.833,262.246,393.494,262.349,393.038z"/>
		<path style="opacity:0.2;fill:#FFFFFF;" d="M313.948,393.833h10.978c0.441,0,0.798-0.222,0.798-0.496v-1.68
			c0-0.275-0.36-0.498-0.803-0.496l-10.978,0.043c-0.439,0.002-0.793,0.223-0.793,0.496v1.637
			C313.15,393.611,313.507,393.833,313.948,393.833z"/>
		<path style="opacity:0.2;fill:#FFFFFF;" d="M355.237,393.833h11.186c0.435,0,0.791-0.217,0.798-0.488l0.049-1.843
			c0.007-0.279-0.355-0.506-0.803-0.504l-11.235,0.044c-0.439,0.002-0.793,0.223-0.793,0.496v1.799
			C354.439,393.611,354.796,393.833,355.237,393.833z"/>
		<path style="opacity:0.2;fill:#FFFFFF;" d="M369.615,393.833h9.254c0.446,0,0.805-0.227,0.798-0.504l-0.051-1.892
			c-0.007-0.272-0.365-0.49-0.803-0.488l-9.154,0.036c-0.434,0.002-0.786,0.218-0.793,0.488l-0.049,1.856
			C368.81,393.606,369.169,393.833,369.615,393.833z"/>
		<path style="opacity:0.2;fill:#FFFFFF;" d="M328.117,393.833h9.869c0.441,0,0.798-0.222,0.798-0.496v-1.731
			c0-0.275-0.36-0.498-0.803-0.496l-9.869,0.039c-0.439,0.002-0.793,0.223-0.793,0.496v1.692
			C327.319,393.611,327.676,393.833,328.117,393.833z"/>
		<path style="opacity:0.2;fill:#FFFFFF;" d="M341.177,393.833h10.868c0.441,0,0.798-0.222,0.798-0.496v-1.786
			c0-0.275-0.36-0.498-0.803-0.496l-10.868,0.043c-0.439,0.002-0.793,0.223-0.793,0.496v1.744
			C340.379,393.611,340.736,393.833,341.177,393.833z"/>
		<path style="opacity:0.2;fill:#FFFFFF;" d="M409.25,391.667l0.178,1.443c0.05,0.408,0.597,0.723,1.255,0.723h8.964
			c0.759,0,1.346-0.415,1.248-0.883l-0.308-1.478c-0.082-0.392-0.62-0.685-1.256-0.682l-8.833,0.035
			C409.767,390.827,409.194,391.215,409.25,391.667z"/>
		<path style="opacity:0.2;fill:#FFFFFF;" d="M382.514,393.982h9.439c0.713,0,1.283-0.368,1.258-0.811l-0.079-1.37
			c-0.025-0.423-0.585-0.757-1.266-0.755l-9.396,0.037c-0.7,0.003-1.262,0.36-1.25,0.796l0.036,1.333
			C381.267,393.64,381.827,393.982,382.514,393.982z"/>
		<path style="opacity:0.2;fill:#FFFFFF;" d="M396.068,393.833h10.49c0.733,0,1.311-0.388,1.255-0.842l-0.176-1.427
			c-0.05-0.41-0.602-0.725-1.263-0.723l-10.394,0.041c-0.71,0.003-1.275,0.37-1.25,0.811l0.08,1.386
			C394.835,393.5,395.391,393.833,396.068,393.833z"/>
		<path style="opacity:0.2;fill:#FFFFFF;" d="M289.968,393.833h6.63c0.81,0,1.471-0.404,1.484-0.908l0.019-0.714
			c0.014-0.518-0.66-0.942-1.494-0.939l-6.581,0.026c-0.781,0.003-1.424,0.382-1.472,0.866l-0.069,0.689
			C288.433,393.384,289.112,393.833,289.968,393.833z"/>
		<path style="opacity:0.2;fill:#FFFFFF;" d="M277.431,393.833h7.963c0.784,0,1.433-0.379,1.482-0.866l0.067-0.671
			c0.053-0.534-0.631-0.984-1.491-0.98l-7.926,0.031c-0.759,0.003-1.392,0.361-1.468,0.831l-0.103,0.639
			C275.866,393.361,276.553,393.833,277.431,393.833z"/>
		<path style="opacity:0.2;fill:#FFFFFF;" d="M265.487,393.833h7.356c0.762,0,1.401-0.359,1.477-0.831l0.1-0.621
			c0.088-0.546-0.604-1.019-1.486-1.016l-7.324,0.029c-0.737,0.003-1.359,0.342-1.461,0.795l-0.133,0.593
			C263.892,393.337,264.586,393.833,265.487,393.833z"/>
		<path style="opacity:0.2;fill:#FFFFFF;" d="M300.465,393.833h10.292c0.441,0,0.798-0.222,0.798-0.496v-1.624
			c0-0.275-0.36-0.498-0.803-0.496l-10.248,0.04c-0.433,0.002-0.785,0.218-0.793,0.488l-0.043,1.584
			C299.659,393.606,300.019,393.833,300.465,393.833z"/>
		<path style="opacity:0.3;" d="M556.506,438.663c-4.87,1.652-14.438,2.502-25.755,2.232c-13.845-0.331-55.85-2.546-100.389-1.398
			c-49.142,1.266-193.009,0.692-199.828,0c-3.706-0.376-6.929-1.671-9.172-2.938c-0.2,0.827-0.395,1.635-0.578,2.402
			c-1.187,4.96,3.195,9.609,9.068,9.62c34.36,0.069,135.969,0.246,154.47-0.024c22.338-0.327,70.042-2.612,87.079-1.959
			c12.634,0.484,54.832,1.327,75.8,1.731C553.211,448.444,557.729,443.699,556.506,438.663z"/>
	</g>
</g>
<g id="Mouse">
	<g>
		<path style="fill:#263238;" d="M579.808,404.274c0,0-2.172-7.472,0.815-9.877c2.988-2.405,20.005-2.487,28.569-0.884
			c8.564,1.604,16.244,7.298,19.43,14.675c3.187,7.376,5.953,28.265-12.946,29.185C593.669,438.444,582.767,415.939,579.808,404.274
			z"/>
		<path style="fill:#407BFF;" d="M593.935,392.436c0,0,3.611,2.534,5.008,4.408c1.397,1.874,4.539,4.779,7.216,4.03
			c2.677-0.75,1.008-4.386-4.346-8.219C601.814,392.655,597.478,391.348,593.935,392.436z"/>
	</g>
</g>
<g id="CPU">
	<g>
		<path style="fill:#263238;" d="M192.734,377.178H80.636c-4.342,0-7.862-3.52-7.862-7.862V120.582c0-4.342,3.52-7.862,7.862-7.862
			h112.098c4.342,0,7.862,3.52,7.862,7.862v248.735C200.596,373.659,197.076,377.178,192.734,377.178z"/>
		<path style="opacity:0.3;" d="M186.79,351.917H85.81c-3.71,0-6.728-3.018-6.728-6.727V127.111c0-3.71,3.018-6.728,6.728-6.728
			h100.98c3.71,0,6.728,3.018,6.728,6.728V345.19C193.518,348.899,190.499,351.917,186.79,351.917z M85.81,121.383
			c-3.158,0-5.728,2.57-5.728,5.728V345.19c0,3.158,2.569,5.727,5.728,5.727h100.98c3.158,0,5.728-2.569,5.728-5.727V127.111
			c0-3.158-2.569-5.728-5.728-5.728H85.81z"/>
		<path style="opacity:0.3;" d="M80.648,164.765c29.139,0,58.279,0,87.418,0c8.219,0,16.438,0,24.656,0c0.965,0,0.967-1.5,0-1.5
			c-29.139,0-58.279,0-87.418,0c-8.219,0-16.438,0-24.656,0C79.683,163.265,79.681,164.765,80.648,164.765L80.648,164.765z"/>
		<path style="opacity:0.3;" d="M80.648,205.836c29.139,0,58.279,0,87.418,0c8.219,0,16.438,0,24.656,0c0.965,0,0.967-1.5,0-1.5
			c-29.139,0-58.279,0-87.418,0c-8.219,0-16.438,0-24.656,0C79.683,204.336,79.681,205.836,80.648,205.836L80.648,205.836z"/>
		
			<ellipse transform="matrix(0.7415 -0.671 0.671 0.7415 -171.263 172.2057)" style="fill:#407BFF;" cx="137.829" cy="308.34" rx="7.413" ry="7.413"/>
		<rect x="90.508" y="216.511" style="opacity:0.3;" width="11.906" height="4.25"/>
		<rect x="110.229" y="216.511" style="opacity:0.3;" width="72.929" height="4.25"/>
		<rect x="90.508" y="223.829" style="opacity:0.3;" width="11.906" height="4.25"/>
		<path style="fill:#407BFF;" d="M159.083,228.079c0,1.486-1.205,2.691-2.691,2.691c-1.486,0-2.691-1.205-2.691-2.691
			c0-1.486,1.205-2.691,2.691-2.691C157.879,225.388,159.083,226.593,159.083,228.079z"/>
		<path style="opacity:0.1;fill:#FFFFFF;" d="M170.794,228.079c0,1.486-1.205,2.691-2.691,2.691c-1.486,0-2.691-1.205-2.691-2.691
			c0-1.486,1.205-2.691,2.691-2.691C169.59,225.388,170.794,226.593,170.794,228.079z"/>
		<path style="opacity:0.3;" d="M182.623,228.079c0,1.486-1.205,2.691-2.69,2.691c-1.486,0-2.691-1.205-2.691-2.691
			c0-1.486,1.205-2.691,2.691-2.691C181.419,225.388,182.623,226.593,182.623,228.079z"/>
	</g>
</g>
<g id="Monitor">
	<g>
		<path style="fill:#263238;" d="M559.202,338.663h-328.72c-2.214,0-4.009-1.795-4.009-4.01V113.684c0-2.214,1.795-4.01,4.009-4.01
			h328.72c2.214,0,4.01,1.795,4.01,4.01v220.969C563.212,336.868,561.417,338.663,559.202,338.663z"/>
		<path style="fill:#263238;" d="M353.421,332.865l-12.643,39.18c-0.767,2.377,1.005,4.811,3.503,4.811h100.977
			c2.539,0,4.316-2.511,3.471-4.905l-13.795-39.085H353.421z"/>
		<rect x="234.539" y="116.663" style="opacity:0.3;" width="320.607" height="187.129"/>
		<rect x="240.469" y="121.461" style="fill:#407BFF;" width="308.746" height="182.331"/>
		<polygon style="opacity:0.3;" points="351.966,338.663 437.396,338.663 441.158,349.323 348.526,349.323 		"/>
		<path style="opacity:0.1;fill:#FFFFFF;" d="M234.539,201.251c0,0,155.814,54.173,167.125,30.956
			c11.311-23.217-73.223-44.648-27.98-66.079s181.461-39.29,181.461-39.29v51.196c0,0-149.314-5.358-146.933,8.93
			c2.381,14.287,95.845,41.672,33.337,67.865c-62.507,26.193-207.011,11.906-207.011,11.906V201.251z"/>
		<path style="fill:#FFFFFF;" d="M431.674,234.903h-73.663c-2.204,0-3.991-1.787-3.991-3.991v-0.743
			c0-2.204,1.787-3.991,3.991-3.991h73.663c2.204,0,3.991,1.787,3.991,3.991v0.743C435.665,233.116,433.878,234.903,431.674,234.903
			z"/>
		<g>
			<circle style="fill:#FFFFFF;" cx="394.842" cy="195.083" r="21.462"/>
			<circle style="fill:#407BFF;" cx="394.842" cy="189.349" r="8.679"/>
			<path style="fill:#407BFF;" d="M383.74,209.617c-2.6-2.155-2.096-6.273,0.91-7.81c2.542-1.3,5.953-2.465,10.014-2.465
				c5.827,0,9.778,1.371,12.303,2.786c2.348,1.315,2.737,4.533,0.76,6.359c-2.756,2.546-7.261,5.635-12.884,5.618
				C390.265,214.092,386.421,211.839,383.74,209.617z"/>
		</g>
	</g>
</g>
</svg>
