<?xml version="1.0" encoding="utf-8"?>
<!-- Generator: Adobe Illustrator 27.5.0, SVG Export Plug-In . SVG Version: 6.00 Build 0)  -->
<svg version="1.1" id="Ebene_1" xmlns="http://www.w3.org/2000/svg" xmlns:xlink="http://www.w3.org/1999/xlink" x="0px" y="0px"
	 viewBox="0 0 800 800" style="enable-background:new 0 0 800 800;" xml:space="preserve">
<g>
	<g>
		
			<linearGradient id="SVGID_1_" gradientUnits="userSpaceOnUse" x1="232.0148" y1="272.8289" x2="232.0148" y2="262.3447" gradientTransform="matrix(-1 0 0 -1 632.0148 934.1766)">
			<stop  offset="0" style="stop-color:#000000"/>
			<stop  offset="0.0146" style="stop-color:#121313"/>
			<stop  offset="0.059" style="stop-color:#44464A"/>
			<stop  offset="0.0974" style="stop-color:#696C72"/>
			<stop  offset="0.1278" style="stop-color:#80838A"/>
			<stop  offset="0.1464" style="stop-color:#888C93"/>
			<stop  offset="0.249" style="stop-color:#A1A2A8"/>
			<stop  offset="0.406" style="stop-color:#C3C2C6"/>
			<stop  offset="0.5621" style="stop-color:#DDDCDF"/>
			<stop  offset="0.7148" style="stop-color:#F0EFF1"/>
			<stop  offset="0.8626" style="stop-color:#FBFBFC"/>
			<stop  offset="1" style="stop-color:#FFFFFF"/>
		</linearGradient>
		<path style="fill:url(#SVGID_1_);" d="M307.056,661.348c61.962,0,123.925,0,185.888,0c4.168,2.149,7.4,8.329,9.172,10.484
			c-68.077,0-136.155,0-204.232,0C298.412,670.948,301.629,662.238,307.056,661.348z"/>
	</g>
	<g>
		
			<linearGradient id="SVGID_00000011741655123176501140000005977048998237379756_" gradientUnits="userSpaceOnUse" x1="303.6624" y1="660.2653" x2="496.3376" y2="660.2653">
			<stop  offset="0" style="stop-color:#79777F"/>
			<stop  offset="0.0828" style="stop-color:#CBCDD1"/>
			<stop  offset="0.1091" style="stop-color:#DFDFE2"/>
			<stop  offset="0.1405" style="stop-color:#F1F1F3"/>
			<stop  offset="0.1712" style="stop-color:#FCFCFC"/>
			<stop  offset="0.2" style="stop-color:#FFFFFF"/>
			<stop  offset="0.8" style="stop-color:#FFFFFF"/>
			<stop  offset="0.9043" style="stop-color:#B4B5BD"/>
			<stop  offset="1" style="stop-color:#828189"/>
		</linearGradient>
		<path style="fill:url(#SVGID_00000011741655123176501140000005977048998237379756_);" d="M303.896,657.848
			c-0.283,2.333-1.682,4.917,7.959,4.917c9.641,0,176.333,0.036,176.333,0.036s10.75,0.783,7.556-5.106"/>
		
			<linearGradient id="SVGID_00000083809078436070523740000004007799678562749845_" gradientUnits="userSpaceOnUse" x1="400" y1="661.3477" x2="400" y2="573.7368">
			<stop  offset="0.0141" style="stop-color:#D6D7DD"/>
			<stop  offset="0.031" style="stop-color:#CDCDD3"/>
			<stop  offset="0.0738" style="stop-color:#BAB9C0"/>
			<stop  offset="0.1177" style="stop-color:#ABABB2"/>
			<stop  offset="0.1628" style="stop-color:#A2A2AA"/>
			<stop  offset="0.2111" style="stop-color:#9F9FA7"/>
			<stop  offset="0.2428" style="stop-color:#8D8B93"/>
			<stop  offset="0.2723" style="stop-color:#807F87"/>
			<stop  offset="0.296" style="stop-color:#86848C"/>
			<stop  offset="0.3284" style="stop-color:#96959C"/>
			<stop  offset="0.3658" style="stop-color:#B1B1B8"/>
			<stop  offset="0.3879" style="stop-color:#C5C6CD"/>
			<stop  offset="0.3964" style="stop-color:#CFCFD5"/>
			<stop  offset="0.4176" style="stop-color:#E4E4E8"/>
			<stop  offset="0.4398" style="stop-color:#F3F3F5"/>
			<stop  offset="0.4634" style="stop-color:#FCFCFD"/>
			<stop  offset="0.4907" style="stop-color:#FFFFFF"/>
			<stop  offset="0.5321" style="stop-color:#F4F4F6"/>
			<stop  offset="0.644" style="stop-color:#D7D8DD"/>
			<stop  offset="0.8677" style="stop-color:#B4B5BD"/>
			<stop  offset="1" style="stop-color:#8F8E97"/>
		</linearGradient>
		<path style="fill:url(#SVGID_00000083809078436070523740000004007799678562749845_);" d="M495.906,657.751
			c-1.219-1.656-21.668-15.333-24.668-18.25c-5.487-5.334-9-65.764-9-65.764h-62.25h-62.25c0,0-3.513,60.43-9,65.764
			c-3,2.917-23.449,16.594-24.668,18.25c-0.375,0.813,2.007,3.597,9.173,3.597c7.5,0,86.762,0,86.762,0s80.405,0,87.905,0
			C495.077,661.348,496.281,658.563,495.906,657.751z"/>
	</g>
	
		<linearGradient id="SVGID_00000168831778883545114460000014641535144689187729_" gradientUnits="userSpaceOnUse" x1="83.713" y1="550.7106" x2="716.287" y2="550.7106">
		<stop  offset="0" style="stop-color:#ACADB4"/>
		<stop  offset="0.33" style="stop-color:#BCBDC2"/>
		<stop  offset="0.66" style="stop-color:#D7D8DC"/>
		<stop  offset="1" style="stop-color:#E5E6EB"/>
	</linearGradient>
	<path style="fill:url(#SVGID_00000168831778883545114460000014641535144689187729_);" d="M716.287,563.737
		c0,8.8-7.176,16-15.946,16H99.659c-8.77,0-15.946-7.2-15.946-16v-26.052c0-8.8,0-11.573,0-16h632.574c0,4.802,0,7.2,0,16V563.737z"
		/>
	<g>
		<g>
			<path d="M83.974,521.449V156.933c0-8.563,7.694-15.529,17.152-15.529h597.75c9.458,0,17.152,6.966,17.152,15.529v364.515H83.974z
				"/>
			<g>
				<path d="M716.287,521.685H83.713V156.933c0-8.693,7.811-15.765,17.412-15.765h597.751c9.601,0,17.411,7.072,17.411,15.765
					V521.685z M84.234,521.213h631.532v-364.28c0-8.433-7.576-15.293-16.89-15.293H101.125c-9.314,0-16.891,6.86-16.891,15.293
					V521.213z"/>
			</g>
		</g>
		<path style="fill:#100C06;" d="M698.875,143.291H101.125c-8.287,0-15.068,6.139-15.068,13.642v362.629h627.885V156.933
			C713.943,149.43,707.161,143.291,698.875,143.291z"/>
		<rect x="107.027" y="165.102" style="fill:#FFFFFF;" width="585.945" height="330.899"/>
		
			<linearGradient id="SVGID_00000093150670355635637300000016518719269958575009_" gradientUnits="userSpaceOnUse" x1="789.4304" y1="475.7563" x2="573.6359" y2="101.9892">
			<stop  offset="0" style="stop-color:#000000"/>
			<stop  offset="0.4129" style="stop-color:#020202"/>
			<stop  offset="0.5616" style="stop-color:#090909"/>
			<stop  offset="0.6676" style="stop-color:#141414"/>
			<stop  offset="0.7534" style="stop-color:#252525"/>
			<stop  offset="0.8268" style="stop-color:#3B3B3B"/>
			<stop  offset="0.8918" style="stop-color:#575757"/>
			<stop  offset="0.9492" style="stop-color:#767676"/>
			<stop  offset="1" style="stop-color:#999999"/>
		</linearGradient>
		<path style="fill:url(#SVGID_00000093150670355635637300000016518719269958575009_);" d="M714.803,156.213
			c0-7.503-6.781-13.642-15.068-13.642H503.347l11.546,21.811h179.572v335.359l0.443,4.714l7.615,14.387h12.281V156.213z"/>
		<g>
			<ellipse style="fill:#514F50;" cx="400.007" cy="155.111" rx="2.536" ry="2.296"/>
			<path style="fill:#100C06;" d="M397.471,154.877c0,0.214,0.047,0.417,0.116,0.611c0.372,0.475,0.99,0.787,1.692,0.787
				c1.138,0,2.06-0.817,2.06-1.825c0-0.69-0.438-1.284-1.076-1.594c-0.15-0.027-0.305-0.041-0.464-0.041
				C398.513,152.815,397.471,153.738,397.471,154.877z"/>
		</g>
	</g>
	<rect x="83.713" y="521.385" style="fill:#878787;" width="632.573" height="0.6"/>
</g>
</svg>
