<?xml version="1.0" encoding="utf-8"?>
<!-- Generator: Adobe Illustrator 27.5.0, SVG Export Plug-In . SVG Version: 6.00 Build 0)  -->
<svg version="1.1" xmlns="http://www.w3.org/2000/svg" xmlns:xlink="http://www.w3.org/1999/xlink" x="0px" y="0px"
	 viewBox="0 0 1000 1000" style="enable-background:new 0 0 1000 1000;" xml:space="preserve">
<g id="background">
	<rect style="fill:#212121;" width="1000" height="1000"/>
</g>
<g id="shadow">
	<g>
		<path style="opacity:0;" d="M666.493,875.187c0.03-0.01,0.05-0.03,0.07-0.04c0.01,0,0.03-0.01,0.04-0.01
			C666.563,875.147,666.533,875.167,666.493,875.187z M648.873,148.847h-265.5c-27.4,0-49.62,22.21-49.62,49.61v636.82
			c0,27.4,22.22,49.61,49.62,49.61h265.5c27.4,0,49.62-22.21,49.62-49.61v-636.82C698.493,171.057,676.273,148.847,648.873,148.847z
			"/>
		<path style="opacity:0.0164;" d="M666.229,874.91c0.03-0.01,0.05-0.03,0.07-0.04c0.01,0,0.03-0.01,0.04-0.01
			C666.299,874.87,666.269,874.89,666.229,874.91z M648.609,148.57h-265.5c-27.4,0-49.62,22.21-49.62,49.61V835
			c0,27.4,22.22,49.61,49.62,49.61h265.5c27.4,0,49.62-22.21,49.62-49.61V198.18C698.229,170.78,676.009,148.57,648.609,148.57z"/>
		<path style="opacity:0.0328;" d="M665.965,874.632c0.03-0.01,0.05-0.03,0.07-0.04c0.01,0,0.03-0.01,0.04-0.01
			C666.035,874.592,666.005,874.612,665.965,874.632z M648.345,148.292h-265.5c-27.4,0-49.62,22.21-49.62,49.61v636.82
			c0,27.4,22.22,49.61,49.62,49.61h265.5c27.4,0,49.62-22.21,49.62-49.61v-636.82C697.965,170.502,675.745,148.292,648.345,148.292z
			"/>
		<path style="opacity:0.0492;" d="M665.7,874.354c0.03-0.01,0.05-0.03,0.07-0.04c0.01,0,0.03-0.01,0.04-0.01
			C665.77,874.314,665.74,874.334,665.7,874.354z M648.08,148.014h-265.5c-27.4,0-49.62,22.21-49.62,49.61v636.82
			c0,27.4,22.22,49.61,49.62,49.61h265.5c27.4,0,49.62-22.21,49.62-49.61v-636.82C697.7,170.225,675.48,148.014,648.08,148.014z"/>
		<path style="opacity:0.0656;" d="M665.436,874.077c0.03-0.01,0.05-0.03,0.07-0.04c0.01,0,0.03-0.01,0.04-0.01
			C665.506,874.037,665.476,874.057,665.436,874.077z M647.816,147.737h-265.5c-27.4,0-49.62,22.21-49.62,49.61v636.82
			c0,27.4,22.22,49.61,49.62,49.61h265.5c27.4,0,49.62-22.21,49.62-49.61v-636.82C697.436,169.947,675.216,147.737,647.816,147.737z
			"/>
		<path style="opacity:0.082;" d="M665.172,873.799c0.03-0.01,0.05-0.03,0.07-0.04c0.01,0,0.03-0.01,0.04-0.01
			C665.242,873.759,665.212,873.779,665.172,873.799z M647.552,147.459h-265.5c-27.4,0-49.62,22.21-49.62,49.61v636.82
			c0,27.4,22.22,49.61,49.62,49.61h265.5c27.4,0,49.62-22.21,49.62-49.61v-636.82C697.172,169.669,674.952,147.459,647.552,147.459z
			"/>
		<path style="opacity:0.0984;" d="M664.907,873.521c0.03-0.01,0.05-0.03,0.07-0.04c0.01,0,0.03-0.01,0.04-0.01
			C664.977,873.481,664.948,873.501,664.907,873.521z M647.287,147.181h-265.5c-27.4,0-49.62,22.21-49.62,49.61v636.82
			c0,27.4,22.22,49.61,49.62,49.61h265.5c27.4,0,49.62-22.21,49.62-49.61v-636.82C696.907,169.391,674.687,147.181,647.287,147.181z
			"/>
		<path style="opacity:0.1148;" d="M664.643,873.244c0.03-0.01,0.05-0.03,0.07-0.04c0.01,0,0.03-0.01,0.04-0.01
			C664.713,873.204,664.683,873.224,664.643,873.244z M647.023,146.904h-265.5c-27.4,0-49.62,22.21-49.62,49.61v636.82
			c0,27.4,22.22,49.61,49.62,49.61h265.5c27.4,0,49.62-22.21,49.62-49.61v-636.82C696.643,169.114,674.423,146.904,647.023,146.904z
			"/>
		<path style="opacity:0.1311;" d="M664.379,872.966c0.03-0.01,0.05-0.03,0.07-0.04c0.01,0,0.03-0.01,0.04-0.01
			C664.449,872.926,664.419,872.946,664.379,872.966z M646.759,146.626h-265.5c-27.4,0-49.62,22.21-49.62,49.61v636.82
			c0,27.4,22.22,49.61,49.62,49.61h265.5c27.4,0,49.62-22.21,49.62-49.61v-636.82C696.379,168.836,674.159,146.626,646.759,146.626z
			"/>
		<path style="opacity:0.1475;" d="M664.115,872.688c0.03-0.01,0.05-0.03,0.07-0.04c0.01,0,0.03-0.01,0.04-0.01
			C664.184,872.648,664.154,872.668,664.115,872.688z M646.494,146.348h-265.5c-27.4,0-49.62,22.21-49.62,49.61v636.82
			c0,27.4,22.22,49.61,49.62,49.61h265.5c27.4,0,49.62-22.21,49.62-49.61v-636.82C696.115,168.559,673.894,146.348,646.494,146.348z
			"/>
		<path style="opacity:0.1639;" d="M663.85,872.411c0.03-0.01,0.05-0.03,0.07-0.04c0.01,0,0.03-0.01,0.04-0.01
			C663.92,872.371,663.89,872.391,663.85,872.411z M646.23,146.071h-265.5c-27.4,0-49.62,22.21-49.62,49.61v636.82
			c0,27.4,22.22,49.61,49.62,49.61h265.5c27.4,0,49.62-22.21,49.62-49.61v-636.82C695.85,168.281,673.63,146.071,646.23,146.071z"/>
		<path style="opacity:0.1803;" d="M663.586,872.133c0.03-0.01,0.05-0.03,0.07-0.04c0.01,0,0.03-0.01,0.04-0.01
			C663.656,872.093,663.626,872.113,663.586,872.133z M645.966,145.793h-265.5c-27.4,0-49.62,22.21-49.62,49.61v636.82
			c0,27.4,22.22,49.61,49.62,49.61h265.5c27.4,0,49.62-22.21,49.62-49.61v-636.82C695.586,168.003,673.366,145.793,645.966,145.793z
			"/>
		<path style="opacity:0.1967;" d="M663.321,871.855c0.03-0.01,0.05-0.03,0.07-0.04c0.01,0,0.03-0.01,0.04-0.01
			C663.391,871.815,663.362,871.835,663.321,871.855z M645.701,145.515h-265.5c-27.4,0-49.62,22.21-49.62,49.61v636.82
			c0,27.4,22.22,49.61,49.62,49.61h265.5c27.4,0,49.62-22.21,49.62-49.61v-636.82C695.321,167.725,673.101,145.515,645.701,145.515z
			"/>
		<path style="opacity:0.2131;" d="M663.057,871.578c0.03-0.01,0.05-0.03,0.07-0.04c0.01,0,0.03-0.01,0.04-0.01
			C663.127,871.538,663.097,871.558,663.057,871.578z M645.437,145.238h-265.5c-27.4,0-49.62,22.21-49.62,49.61v636.82
			c0,27.4,22.22,49.61,49.62,49.61h265.5c27.4,0,49.62-22.21,49.62-49.61v-636.82C695.057,167.448,672.837,145.238,645.437,145.238z
			"/>
		<path style="opacity:0.2295;" d="M662.793,871.3c0.03-0.01,0.05-0.03,0.07-0.04c0.01,0,0.03-0.01,0.04-0.01
			C662.863,871.26,662.833,871.28,662.793,871.3z M645.173,144.96h-265.5c-27.4,0-49.62,22.21-49.62,49.61v636.82
			c0,27.4,22.22,49.61,49.62,49.61h265.5c27.4,0,49.62-22.21,49.62-49.61V194.57C694.793,167.17,672.573,144.96,645.173,144.96z"/>
		<path style="opacity:0.2459;" d="M662.529,871.022c0.03-0.01,0.05-0.03,0.07-0.04c0.01,0,0.03-0.01,0.04-0.01
			C662.598,870.982,662.569,871.002,662.529,871.022z M644.908,144.682h-265.5c-27.4,0-49.62,22.21-49.62,49.61v636.82
			c0,27.4,22.22,49.61,49.62,49.61h265.5c27.4,0,49.62-22.21,49.62-49.61v-636.82C694.529,166.893,672.308,144.682,644.908,144.682z
			"/>
		<path style="opacity:0.2623;" d="M662.264,870.745c0.03-0.01,0.05-0.03,0.07-0.04c0.01,0,0.03-0.01,0.04-0.01
			C662.334,870.705,662.304,870.725,662.264,870.745z M644.644,144.405h-265.5c-27.4,0-49.62,22.21-49.62,49.61v636.82
			c0,27.4,22.22,49.61,49.62,49.61h265.5c27.4,0,49.62-22.21,49.62-49.61v-636.82C694.264,166.615,672.044,144.405,644.644,144.405z
			"/>
		<path style="opacity:0.2787;" d="M662,870.467c0.03-0.01,0.05-0.03,0.07-0.04c0.01,0,0.03-0.01,0.04-0.01
			C662.07,870.427,662.04,870.447,662,870.467z M644.38,144.127h-265.5c-27.4,0-49.62,22.21-49.62,49.61v636.82
			c0,27.4,22.22,49.61,49.62,49.61h265.5c27.4,0,49.62-22.21,49.62-49.61v-636.82C694,166.337,671.78,144.127,644.38,144.127z"/>
		<path style="opacity:0.2951;" d="M661.736,870.189c0.03-0.01,0.05-0.03,0.07-0.04c0.01,0,0.03-0.01,0.04-0.01
			C661.805,870.149,661.776,870.169,661.736,870.189z M644.115,143.849h-265.5c-27.4,0-49.62,22.21-49.62,49.61v636.82
			c0,27.4,22.22,49.61,49.62,49.61h265.5c27.4,0,49.62-22.21,49.62-49.61v-636.82C693.736,166.059,671.515,143.849,644.115,143.849z
			"/>
		<path style="opacity:0.3115;" d="M661.471,869.912c0.03-0.01,0.05-0.03,0.07-0.04c0.01,0,0.03-0.01,0.04-0.01
			C661.541,869.872,661.511,869.892,661.471,869.912z M643.851,143.572h-265.5c-27.4,0-49.62,22.21-49.62,49.61v636.82
			c0,27.4,22.22,49.61,49.62,49.61h265.5c27.4,0,49.62-22.21,49.62-49.61v-636.82C693.471,165.782,671.251,143.572,643.851,143.572z
			"/>
		<path style="opacity:0.3279;" d="M661.207,869.634c0.03-0.01,0.05-0.03,0.07-0.04c0.01,0,0.03-0.01,0.04-0.01
			C661.277,869.594,661.247,869.614,661.207,869.634z M643.587,143.294h-265.5c-27.4,0-49.62,22.21-49.62,49.61v636.82
			c0,27.4,22.22,49.61,49.62,49.61h265.5c27.4,0,49.62-22.21,49.62-49.61v-636.82C693.207,165.504,670.987,143.294,643.587,143.294z
			"/>
		<path style="opacity:0.3443;" d="M660.943,869.356c0.03-0.01,0.05-0.03,0.07-0.04c0.01,0,0.03-0.01,0.04-0.01
			C661.012,869.316,660.983,869.336,660.943,869.356z M643.323,143.016h-265.5c-27.4,0-49.62,22.21-49.62,49.61v636.82
			c0,27.4,22.22,49.61,49.62,49.61h265.5c27.4,0,49.62-22.21,49.62-49.61v-636.82C692.943,165.226,670.722,143.016,643.323,143.016z
			"/>
		<path style="opacity:0.3607;" d="M660.678,869.079c0.03-0.01,0.05-0.03,0.07-0.04c0.01,0,0.03-0.01,0.04-0.01
			C660.748,869.039,660.718,869.059,660.678,869.079z M643.058,142.739h-265.5c-27.4,0-49.62,22.21-49.62,49.61v636.82
			c0,27.4,22.22,49.61,49.62,49.61h265.5c27.4,0,49.62-22.21,49.62-49.61v-636.82C692.678,164.949,670.458,142.739,643.058,142.739z
			"/>
		<path style="opacity:0.377;" d="M660.414,868.801c0.03-0.01,0.05-0.03,0.07-0.04c0.01,0,0.03-0.01,0.04-0.01
			C660.484,868.761,660.454,868.781,660.414,868.801z M642.794,142.461h-265.5c-27.4,0-49.62,22.21-49.62,49.61v636.82
			c0,27.4,22.22,49.61,49.62,49.61h265.5c27.4,0,49.62-22.21,49.62-49.61v-636.82C692.414,164.671,670.194,142.461,642.794,142.461z
			"/>
		<path style="opacity:0.3934;" d="M660.15,868.523c0.03-0.01,0.05-0.03,0.07-0.04c0.01,0,0.03-0.01,0.04-0.01
			C660.219,868.483,660.19,868.503,660.15,868.523z M642.529,142.183h-265.5c-27.4,0-49.62,22.21-49.62,49.61v636.82
			c0,27.4,22.22,49.61,49.62,49.61h265.5c27.4,0,49.62-22.21,49.62-49.61v-636.82C692.15,164.393,669.929,142.183,642.529,142.183z"
			/>
		<path style="opacity:0.4098;" d="M659.885,868.246c0.03-0.01,0.05-0.03,0.07-0.04c0.01,0,0.03-0.01,0.04-0.01
			C659.955,868.206,659.925,868.226,659.885,868.246z M642.265,141.906h-265.5c-27.4,0-49.62,22.21-49.62,49.61v636.82
			c0,27.4,22.22,49.61,49.62,49.61h265.5c27.4,0,49.62-22.21,49.62-49.61v-636.82C691.885,164.116,669.665,141.906,642.265,141.906z
			"/>
		<path style="opacity:0.4262;" d="M659.621,867.968c0.03-0.01,0.05-0.03,0.07-0.04c0.01,0,0.03-0.01,0.04-0.01
			C659.691,867.928,659.661,867.948,659.621,867.968z M642.001,141.628h-265.5c-27.4,0-49.62,22.21-49.62,49.61v636.82
			c0,27.4,22.22,49.61,49.62,49.61h265.5c27.4,0,49.62-22.21,49.62-49.61v-636.82C691.621,163.838,669.401,141.628,642.001,141.628z
			"/>
		<path style="opacity:0.4426;" d="M659.357,867.69c0.03-0.01,0.05-0.03,0.07-0.04c0.01,0,0.03-0.01,0.04-0.01
			C659.427,867.65,659.397,867.67,659.357,867.69z M641.737,141.35h-265.5c-27.4,0-49.62,22.21-49.62,49.61v636.82
			c0,27.4,22.22,49.61,49.62,49.61h265.5c27.4,0,49.62-22.21,49.62-49.61V190.96C691.357,163.56,669.136,141.35,641.737,141.35z"/>
		<path style="opacity:0.459;" d="M659.092,867.413c0.03-0.01,0.05-0.03,0.07-0.04c0.01,0,0.03-0.01,0.04-0.01
			C659.162,867.373,659.132,867.393,659.092,867.413z M641.472,141.072h-265.5c-27.4,0-49.62,22.21-49.62,49.61v636.82
			c0,27.4,22.22,49.61,49.62,49.61h265.5c27.4,0,49.62-22.21,49.62-49.61v-636.82C691.092,163.283,668.872,141.072,641.472,141.072z
			"/>
		<path style="opacity:0.4754;" d="M658.828,867.135c0.03-0.01,0.05-0.03,0.07-0.04c0.01,0,0.03-0.01,0.04-0.01
			C658.898,867.095,658.868,867.115,658.828,867.135z M641.208,140.795h-265.5c-27.4,0-49.62,22.21-49.62,49.61v636.82
			c0,27.4,22.22,49.61,49.62,49.61h265.5c27.4,0,49.62-22.21,49.62-49.61v-636.82C690.828,163.005,668.608,140.795,641.208,140.795z
			"/>
		<path style="opacity:0.4918;" d="M658.564,866.857c0.03-0.01,0.05-0.03,0.07-0.04c0.01,0,0.03-0.01,0.04-0.01
			C658.633,866.817,658.604,866.837,658.564,866.857z M640.944,140.517h-265.5c-27.4,0-49.62,22.21-49.62,49.61v636.82
			c0,27.4,22.22,49.61,49.62,49.61h265.5c27.4,0,49.62-22.21,49.62-49.61v-636.82C690.564,162.727,668.344,140.517,640.944,140.517z
			"/>
		<path style="opacity:0.5082;" d="M658.299,866.58c0.03-0.01,0.05-0.03,0.07-0.04c0.01,0,0.03-0.01,0.04-0.01
			C658.369,866.54,658.339,866.56,658.299,866.58z M640.679,140.24h-265.5c-27.4,0-49.62,22.21-49.62,49.61v636.82
			c0,27.4,22.22,49.61,49.62,49.61h265.5c27.4,0,49.62-22.21,49.62-49.61V189.85C690.299,162.45,668.079,140.24,640.679,140.24z"/>
		<path style="opacity:0.5246;" d="M658.035,866.302c0.03-0.01,0.05-0.03,0.07-0.04c0.01,0,0.03-0.01,0.04-0.01
			C658.105,866.262,658.075,866.282,658.035,866.302z M640.415,139.962h-265.5c-27.4,0-49.62,22.21-49.62,49.61v636.82
			c0,27.4,22.22,49.61,49.62,49.61h265.5c27.4,0,49.62-22.21,49.62-49.61v-636.82C690.035,162.172,667.815,139.962,640.415,139.962z
			"/>
		<path style="opacity:0.541;" d="M657.771,866.024c0.03-0.01,0.05-0.03,0.07-0.04c0.01,0,0.03-0.01,0.04-0.01
			C657.841,865.984,657.811,866.004,657.771,866.024z M640.151,139.684h-265.5c-27.4,0-49.62,22.21-49.62,49.61v636.82
			c0,27.4,22.22,49.61,49.62,49.61h265.5c27.4,0,49.62-22.21,49.62-49.61v-636.82C689.771,161.894,667.55,139.684,640.151,139.684z"
			/>
		<path style="opacity:0.5574;" d="M657.506,865.747c0.03-0.01,0.05-0.03,0.07-0.04c0.01,0,0.03-0.01,0.04-0.01
			C657.576,865.707,657.546,865.727,657.506,865.747z M639.886,139.406h-265.5c-27.4,0-49.62,22.21-49.62,49.61v636.82
			c0,27.4,22.22,49.61,49.62,49.61h265.5c27.4,0,49.62-22.21,49.62-49.61v-636.82C689.506,161.617,667.286,139.406,639.886,139.406z
			"/>
		<path style="opacity:0.5738;" d="M657.242,865.469c0.03-0.01,0.05-0.03,0.07-0.04c0.01,0,0.03-0.01,0.04-0.01
			C657.312,865.429,657.282,865.449,657.242,865.469z M639.622,139.129h-265.5c-27.4,0-49.62,22.21-49.62,49.61v636.82
			c0,27.4,22.22,49.61,49.62,49.61h265.5c27.4,0,49.62-22.21,49.62-49.61v-636.82C689.242,161.339,667.022,139.129,639.622,139.129z
			"/>
		<path style="opacity:0.5902;" d="M656.978,865.191c0.03-0.01,0.05-0.03,0.07-0.04c0.01,0,0.03-0.01,0.04-0.01
			C657.048,865.151,657.018,865.171,656.978,865.191z M639.358,138.851h-265.5c-27.4,0-49.62,22.21-49.62,49.61v636.82
			c0,27.4,22.22,49.61,49.62,49.61h265.5c27.4,0,49.62-22.21,49.62-49.61v-636.82C688.978,161.061,666.758,138.851,639.358,138.851z
			"/>
		<path style="opacity:0.6066;" d="M656.713,864.914c0.03-0.01,0.05-0.03,0.07-0.04c0.01,0,0.03-0.01,0.04-0.01
			C656.783,864.874,656.753,864.894,656.713,864.914z M639.093,138.574h-265.5c-27.4,0-49.62,22.21-49.62,49.61v636.82
			c0,27.4,22.22,49.61,49.62,49.61h265.5c27.4,0,49.62-22.21,49.62-49.61v-636.82C688.713,160.784,666.493,138.574,639.093,138.574z
			"/>
		<path style="opacity:0.623;" d="M656.449,864.636c0.03-0.01,0.05-0.03,0.07-0.04c0.01,0,0.03-0.01,0.04-0.01
			C656.519,864.596,656.489,864.616,656.449,864.636z M638.829,138.296h-265.5c-27.4,0-49.62,22.21-49.62,49.61v636.82
			c0,27.4,22.22,49.61,49.62,49.61h265.5c27.4,0,49.62-22.21,49.62-49.61v-636.82C688.449,160.506,666.229,138.296,638.829,138.296z
			"/>
		<path style="opacity:0.6393;" d="M656.185,864.358c0.03-0.01,0.05-0.03,0.07-0.04c0.01,0,0.03-0.01,0.04-0.01
			C656.255,864.318,656.225,864.338,656.185,864.358z M638.565,138.018h-265.5c-27.4,0-49.62,22.21-49.62,49.61v636.82
			c0,27.4,22.22,49.61,49.62,49.61h265.5c27.4,0,49.62-22.21,49.62-49.61v-636.82C688.185,160.228,665.965,138.018,638.565,138.018z
			"/>
		<path style="opacity:0.6557;" d="M655.92,864.081c0.03-0.01,0.05-0.03,0.07-0.04c0.01,0,0.03-0.01,0.04-0.01
			C655.99,864.041,655.961,864.061,655.92,864.081z M638.3,137.74H372.8c-27.4,0-49.62,22.21-49.62,49.61v636.82
			c0,27.4,22.22,49.61,49.62,49.61h265.5c27.4,0,49.62-22.21,49.62-49.61v-636.82C687.92,159.951,665.7,137.74,638.3,137.74z"/>
		<path style="opacity:0.6721;" d="M655.656,863.803c0.03-0.01,0.05-0.03,0.07-0.04c0.01,0,0.03-0.01,0.04-0.01
			C655.726,863.763,655.696,863.783,655.656,863.803z M638.036,137.463h-265.5c-27.4,0-49.62,22.21-49.62,49.61v636.82
			c0,27.4,22.22,49.61,49.62,49.61h265.5c27.4,0,49.62-22.21,49.62-49.61v-636.82C687.656,159.673,665.436,137.463,638.036,137.463z
			"/>
		<path style="opacity:0.6885;" d="M655.392,863.525c0.03-0.01,0.05-0.03,0.07-0.04c0.01,0,0.03-0.01,0.04-0.01
			C655.462,863.485,655.432,863.505,655.392,863.525z M637.772,137.185h-265.5c-27.4,0-49.62,22.21-49.62,49.61v636.82
			c0,27.4,22.22,49.61,49.62,49.61h265.5c27.4,0,49.62-22.21,49.62-49.61v-636.82C687.392,159.395,665.172,137.185,637.772,137.185z
			"/>
		<path style="opacity:0.7049;" d="M655.128,863.248c0.03-0.01,0.05-0.03,0.07-0.04c0.01,0,0.03-0.01,0.04-0.01
			C655.197,863.208,655.167,863.228,655.128,863.248z M637.507,136.908h-265.5c-27.4,0-49.62,22.21-49.62,49.61v636.82
			c0,27.4,22.22,49.61,49.62,49.61h265.5c27.4,0,49.62-22.21,49.62-49.61v-636.82C687.128,159.118,664.907,136.908,637.507,136.908z
			"/>
		<path style="opacity:0.7213;" d="M654.863,862.97c0.03-0.01,0.05-0.03,0.07-0.04c0.01,0,0.03-0.01,0.04-0.01
			C654.933,862.93,654.903,862.95,654.863,862.97z M637.243,136.63h-265.5c-27.4,0-49.62,22.21-49.62,49.61v636.82
			c0,27.4,22.22,49.61,49.62,49.61h265.5c27.4,0,49.62-22.21,49.62-49.61V186.24C686.863,158.84,664.643,136.63,637.243,136.63z"/>
		<path style="opacity:0.7377;" d="M654.599,862.692c0.03-0.01,0.05-0.03,0.07-0.04c0.01,0,0.03-0.01,0.04-0.01
			C654.669,862.652,654.639,862.672,654.599,862.692z M636.979,136.352h-265.5c-27.4,0-49.62,22.21-49.62,49.61v636.82
			c0,27.4,22.22,49.61,49.62,49.61h265.5c27.4,0,49.62-22.21,49.62-49.61v-636.82C686.599,158.562,664.379,136.352,636.979,136.352z
			"/>
		<path style="opacity:0.7541;" d="M654.334,862.415c0.03-0.01,0.05-0.03,0.07-0.04c0.01,0,0.03-0.01,0.04-0.01
			C654.404,862.375,654.375,862.395,654.334,862.415z M636.714,136.074h-265.5c-27.4,0-49.62,22.21-49.62,49.61v636.82
			c0,27.4,22.22,49.61,49.62,49.61h265.5c27.4,0,49.62-22.21,49.62-49.61v-636.82C686.334,158.285,664.114,136.074,636.714,136.074z
			"/>
		<path style="opacity:0.7705;" d="M654.07,862.137c0.03-0.01,0.05-0.03,0.07-0.04c0.01,0,0.03-0.01,0.04-0.01
			C654.14,862.097,654.11,862.117,654.07,862.137z M636.45,135.797h-265.5c-27.4,0-49.62,22.21-49.62,49.61v636.82
			c0,27.4,22.22,49.61,49.62,49.61h265.5c27.4,0,49.62-22.21,49.62-49.61v-636.82C686.07,158.007,663.85,135.797,636.45,135.797z"/>
		<path style="opacity:0.7869;" d="M653.806,861.859c0.03-0.01,0.05-0.03,0.07-0.04c0.01,0,0.03-0.01,0.04-0.01
			C653.876,861.819,653.846,861.839,653.806,861.859z M636.186,135.519h-265.5c-27.4,0-49.62,22.21-49.62,49.61v636.82
			c0,27.4,22.22,49.61,49.62,49.61h265.5c27.4,0,49.62-22.21,49.62-49.61v-636.82C685.806,157.729,663.586,135.519,636.186,135.519z
			"/>
		<path style="opacity:0.8033;" d="M653.542,861.582c0.03-0.01,0.05-0.03,0.07-0.04c0.01,0,0.03-0.01,0.04-0.01
			C653.611,861.542,653.582,861.562,653.542,861.582z M635.921,135.242h-265.5c-27.4,0-49.62,22.21-49.62,49.61v636.82
			c0,27.4,22.22,49.61,49.62,49.61h265.5c27.4,0,49.62-22.21,49.62-49.61v-636.82C685.542,157.452,663.321,135.242,635.921,135.242z
			"/>
		<path style="opacity:0.8197;" d="M653.277,861.304c0.03-0.01,0.05-0.03,0.07-0.04c0.01,0,0.03-0.01,0.04-0.01
			C653.347,861.264,653.317,861.284,653.277,861.304z M635.657,134.964h-265.5c-27.4,0-49.62,22.21-49.62,49.61v636.82
			c0,27.4,22.22,49.61,49.62,49.61h265.5c27.4,0,49.62-22.21,49.62-49.61v-636.82C685.277,157.174,663.057,134.964,635.657,134.964z
			"/>
		<path style="opacity:0.8361;" d="M653.013,861.026c0.03-0.01,0.05-0.03,0.07-0.04c0.01,0,0.03-0.01,0.04-0.01
			C653.083,860.986,653.053,861.006,653.013,861.026z M635.393,134.686h-265.5c-27.4,0-49.62,22.21-49.62,49.61v636.82
			c0,27.4,22.22,49.61,49.62,49.61h265.5c27.4,0,49.62-22.21,49.62-49.61v-636.82C685.013,156.896,662.793,134.686,635.393,134.686z
			"/>
		<path style="opacity:0.8525;" d="M652.749,860.748c0.03-0.01,0.05-0.03,0.07-0.04c0.01,0,0.03-0.01,0.04-0.01
			C652.818,860.708,652.789,860.729,652.749,860.748z M635.128,134.408h-265.5c-27.4,0-49.62,22.21-49.62,49.61v636.82
			c0,27.4,22.22,49.61,49.62,49.61h265.5c27.4,0,49.62-22.21,49.62-49.61v-636.82C684.749,156.619,662.528,134.408,635.128,134.408z
			"/>
		<path style="opacity:0.8689;" d="M652.484,860.471c0.03-0.01,0.05-0.03,0.07-0.04c0.01,0,0.03-0.01,0.04-0.01
			C652.554,860.431,652.524,860.451,652.484,860.471z M634.864,134.131h-265.5c-27.4,0-49.62,22.21-49.62,49.61v636.82
			c0,27.4,22.22,49.61,49.62,49.61h265.5c27.4,0,49.62-22.21,49.62-49.61v-636.82C684.484,156.341,662.264,134.131,634.864,134.131z
			"/>
		<path style="opacity:0.8852;" d="M652.22,860.193c0.03-0.01,0.05-0.03,0.07-0.04c0.01,0,0.03-0.01,0.04-0.01
			C652.29,860.153,652.26,860.173,652.22,860.193z M634.6,133.853H369.1c-27.4,0-49.62,22.21-49.62,49.61v636.82
			c0,27.4,22.22,49.61,49.62,49.61h265.5c27.4,0,49.62-22.21,49.62-49.61v-636.82C684.22,156.063,662,133.853,634.6,133.853z"/>
		<path style="opacity:0.9016;" d="M651.956,859.916c0.03-0.01,0.05-0.03,0.07-0.04c0.01,0,0.03-0.01,0.04-0.01
			C652.025,859.875,651.996,859.896,651.956,859.916z M634.336,133.576h-265.5c-27.4,0-49.62,22.21-49.62,49.61v636.82
			c0,27.4,22.22,49.61,49.62,49.61h265.5c27.4,0,49.62-22.21,49.62-49.61v-636.82C683.956,155.786,661.735,133.576,634.336,133.576z
			"/>
		<path style="opacity:0.918;" d="M651.691,859.638c0.03-0.01,0.05-0.03,0.07-0.04c0.01,0,0.03-0.01,0.04-0.01
			C651.761,859.598,651.731,859.618,651.691,859.638z M634.071,133.298h-265.5c-27.4,0-49.62,22.21-49.62,49.61v636.82
			c0,27.4,22.22,49.61,49.62,49.61h265.5c27.4,0,49.62-22.21,49.62-49.61v-636.82C683.691,155.508,661.471,133.298,634.071,133.298z
			"/>
		<path style="opacity:0.9344;" d="M651.427,859.36c0.03-0.01,0.05-0.03,0.07-0.04c0.01,0,0.03-0.01,0.04-0.01
			C651.497,859.32,651.467,859.34,651.427,859.36z M633.807,133.02h-265.5c-27.4,0-49.62,22.21-49.62,49.61v636.82
			c0,27.4,22.22,49.61,49.62,49.61h265.5c27.4,0,49.62-22.21,49.62-49.61V182.63C683.427,155.23,661.207,133.02,633.807,133.02z"/>
		<path style="opacity:0.9508;" d="M651.163,859.083c0.03-0.01,0.05-0.03,0.07-0.04c0.01,0,0.03-0.01,0.04-0.01
			C651.232,859.042,651.203,859.063,651.163,859.083z M633.542,132.742h-265.5c-27.4,0-49.62,22.21-49.62,49.61v636.82
			c0,27.4,22.22,49.61,49.62,49.61h265.5c27.4,0,49.62-22.21,49.62-49.61v-636.82C683.163,154.953,660.942,132.742,633.542,132.742z
			"/>
		<path style="opacity:0.9672;" d="M650.898,858.805c0.03-0.01,0.05-0.03,0.07-0.04c0.01,0,0.03-0.01,0.04-0.01
			C650.968,858.765,650.938,858.785,650.898,858.805z M633.278,132.465h-265.5c-27.4,0-49.62,22.21-49.62,49.61v636.82
			c0,27.4,22.22,49.61,49.62,49.61h265.5c27.4,0,49.62-22.21,49.62-49.61v-636.82C682.898,154.675,660.678,132.465,633.278,132.465z
			"/>
		<path style="opacity:0.9836;" d="M650.634,858.527c0.03-0.01,0.05-0.03,0.07-0.04c0.01,0,0.03-0.01,0.04-0.01
			C650.704,858.487,650.674,858.507,650.634,858.527z M633.014,132.187h-265.5c-27.4,0-49.62,22.21-49.62,49.61v636.82
			c0,27.4,22.22,49.61,49.62,49.61h265.5c27.4,0,49.62-22.21,49.62-49.61v-636.82C682.634,154.397,660.414,132.187,633.014,132.187z
			"/>
		<path d="M650.37,858.25c0.03-0.01,0.05-0.03,0.07-0.04c0.01,0,0.03-0.01,0.04-0.01C650.44,858.209,650.41,858.229,650.37,858.25z
			 M632.75,131.909h-265.5c-27.4,0-49.62,22.21-49.62,49.61v636.82c0,27.4,22.22,49.61,49.62,49.61h265.5
			c27.4,0,49.62-22.21,49.62-49.61V181.52C682.37,154.12,660.149,131.909,632.75,131.909z"/>
	</g>
</g>
<g id="object">
	<g>
		<g>
			<g>
				<g>
					<path style="fill:#C7C7C7;" d="M632.753,131.976H367.247c-27.402,0-49.618,22.216-49.618,49.617v636.812
						c0,27.401,22.216,49.617,49.618,49.617h265.505c27.402,0,49.618-22.216,49.618-49.617V181.594
						C682.37,154.192,660.154,131.976,632.753,131.976z M680.989,813.801c0,5.167-0.82,10.15-2.33,14.82
						c-0.11,0.359-0.23,0.718-0.359,1.068c-0.12,0.359-0.249,0.709-0.387,1.059c-0.092,0.267-0.193,0.534-0.304,0.792
						c-0.313,0.783-0.645,1.557-0.995,2.321c-0.156,0.341-0.313,0.682-0.479,1.013c-0.23,0.47-0.461,0.93-0.709,1.391
						c-0.157,0.313-0.322,0.617-0.497,0.921c-0.175,0.322-0.359,0.645-0.553,0.967c-0.516,0.884-1.068,1.759-1.649,2.616
						c-0.184,0.267-0.369,0.543-0.562,0.811c-0.212,0.304-0.424,0.599-0.654,0.893c-0.212,0.295-0.433,0.589-0.663,0.884
						c-0.221,0.295-0.451,0.58-0.691,0.866c-0.23,0.285-0.47,0.571-0.718,0.857c-0.47,0.562-0.967,1.115-1.474,1.649
						c-0.774,0.829-1.575,1.63-2.413,2.413c-0.249,0.23-0.497,0.46-0.755,0.681c-0.58,0.516-1.17,1.013-1.768,1.511
						c-0.258,0.203-0.525,0.414-0.792,0.617c-0.875,0.682-1.778,1.326-2.699,1.943c-0.304,0.212-0.617,0.414-0.93,0.608
						c-0.626,0.405-1.262,0.783-1.907,1.151c-0.322,0.193-0.635,0.368-0.958,0.534c-1.041,0.571-2.1,1.105-3.187,1.584
						c-0.286,0.138-0.571,0.258-0.857,0.378c-0.341,0.157-0.682,0.295-1.032,0.433c-0.35,0.138-0.7,0.276-1.05,0.405
						c-0.783,0.295-1.575,0.571-2.376,0.82c-0.276,0.092-0.562,0.175-0.847,0.258c-1.05,0.313-2.128,0.59-3.214,0.829
						c-0.378,0.083-0.755,0.166-1.142,0.239c-0.396,0.083-0.801,0.157-1.216,0.221c-0.746,0.129-1.501,0.24-2.266,0.332h-0.028
						c-0.147,0.018-0.295,0.037-0.442,0.046c-0.101,0.018-0.212,0.028-0.313,0.028c-0.046,0.009-0.083,0.009-0.129,0.009
						c0.682-0.074,1.354-0.166,2.026-0.276c0.332-0.055,0.663-0.111,1.004-0.175c0.332-0.055,0.663-0.129,0.986-0.193
						c0.995-0.203,1.971-0.451,2.938-0.719c0.323-0.083,0.645-0.184,0.958-0.286c0.635-0.193,1.262-0.405,1.888-0.626
						c0.939-0.341,1.861-0.709,2.763-1.105c0.304-0.12,0.608-0.258,0.903-0.405c0.295-0.138,0.589-0.285,0.884-0.424
						c0.589-0.295,1.17-0.599,1.75-0.912c0.571-0.322,1.133-0.645,1.695-0.986c0.507-0.313,1.004-0.635,1.501-0.958
						c0.055-0.028,0.101-0.064,0.147-0.101c0.811-0.553,1.603-1.124,2.376-1.722c0.258-0.193,0.516-0.396,0.764-0.608
						c0.718-0.58,1.418-1.188,2.1-1.814c1.676-1.557,3.242-3.233,4.651-5.029c0.203-0.249,0.405-0.516,0.599-0.774
						c2.045-2.708,3.786-5.655,5.158-8.787c0.221-0.497,0.433-1.013,0.626-1.52c0.976-2.478,1.741-5.066,2.247-7.746
						c0.101-0.525,0.193-1.059,0.276-1.593c0.322-2.155,0.497-4.357,0.497-6.604V181.594c0-22.501-17.122-41.079-39.016-43.4
						c-0.387-0.037-0.783-0.074-1.17-0.101c-0.396-0.028-0.801-0.055-1.197-0.074h-0.009c-0.746-0.037-1.483-0.055-2.238-0.055
						H367.257c-0.755,0-1.501,0.018-2.238,0.055h-0.028c-23.017,1.188-41.374,20.282-41.374,43.575v636.812
						c0,22.406,16.971,40.917,38.732,43.365c-0.294-0.03-0.591-0.049-0.885-0.084h-0.028c-0.764-0.092-1.52-0.203-2.266-0.332
						c-4.55-0.774-8.888-2.183-12.913-4.136c-0.285-0.138-0.562-0.276-0.847-0.414c-0.719-0.378-1.428-0.755-2.128-1.161
						c-0.322-0.184-0.635-0.368-0.949-0.562c-1.584-0.958-3.113-2.008-4.568-3.141c-0.267-0.203-0.525-0.405-0.783-0.617
						c-0.774-0.626-1.529-1.271-2.257-1.934c-0.24-0.221-0.479-0.442-0.709-0.672c-0.276-0.258-0.543-0.516-0.81-0.783
						c-0.258-0.267-0.525-0.534-0.783-0.801c-0.175-0.175-0.341-0.35-0.507-0.534c-0.212-0.23-0.424-0.461-0.626-0.691
						c-1.234-1.382-2.386-2.828-3.454-4.338c-0.193-0.267-0.378-0.543-0.562-0.81c-0.58-0.847-1.124-1.713-1.639-2.597
						c-0.194-0.313-0.378-0.636-0.553-0.958c-1.336-2.395-2.468-4.909-3.38-7.516c-0.129-0.359-0.249-0.709-0.359-1.068
						c-0.58-1.805-1.059-3.647-1.428-5.526c-0.074-0.378-0.148-0.755-0.212-1.133c-0.451-2.653-0.691-5.379-0.691-8.161V181.594
						c0-0.479,0.009-0.949,0.028-1.418c0-0.359,0.018-0.709,0.037-1.059c0.037-0.774,0.092-1.538,0.175-2.303
						c0.037-0.396,0.083-0.792,0.129-1.179c0.028-0.212,0.055-0.414,0.083-0.626c0.028-0.249,0.065-0.497,0.111-0.755
						c0.055-0.396,0.12-0.792,0.193-1.188c0.12-0.691,0.258-1.372,0.415-2.045c0.074-0.341,0.157-0.672,0.24-1.004
						c0.24-1.004,0.516-1.98,0.829-2.957c0.101-0.304,0.203-0.617,0.304-0.921c0.129-0.378,0.258-0.755,0.396-1.124
						c0.11-0.313,0.23-0.617,0.35-0.921c0.101-0.258,0.193-0.507,0.304-0.755c0.12-0.304,0.249-0.608,0.378-0.903
						c0.102-0.23,0.194-0.451,0.304-0.672c0.147-0.332,0.295-0.654,0.46-0.986c0.267-0.571,0.553-1.142,0.857-1.704
						c0.147-0.285,0.304-0.571,0.47-0.857c0.175-0.332,0.368-0.663,0.562-0.986c1.336-2.275,2.855-4.43,4.541-6.457
						c0.24-0.286,0.479-0.571,0.728-0.857c0.276-0.313,0.553-0.635,0.847-0.949c0.479-0.516,0.958-1.022,1.455-1.511
						c0.534-0.534,1.078-1.05,1.63-1.557c0.562-0.497,1.124-0.995,1.704-1.474c0.285-0.239,0.58-0.47,0.875-0.709
						c0.59-0.461,1.188-0.912,1.805-1.354c0.608-0.433,1.225-0.857,1.861-1.271c0.635-0.405,1.271-0.801,1.925-1.179
						c0.323-0.193,0.654-0.378,0.986-0.562c0.332-0.184,0.663-0.359,0.995-0.534c0.341-0.175,0.672-0.35,1.013-0.516
						c0.341-0.166,0.682-0.332,1.032-0.497c0.682-0.313,1.382-0.617,2.091-0.903c0.331-0.138,0.672-0.276,1.013-0.405
						c0.028-0.018,0.064-0.028,0.092-0.037c0.341-0.129,0.691-0.249,1.032-0.378c0.341-0.111,0.682-0.23,1.022-0.35
						c0.387-0.12,0.774-0.249,1.17-0.359c0.368-0.111,0.737-0.212,1.105-0.313c0.378-0.101,0.746-0.203,1.124-0.295
						c0.378-0.092,0.755-0.184,1.133-0.267c0.764-0.175,1.529-0.322,2.303-0.451c0.378-0.064,0.764-0.129,1.151-0.184
						c0.829-0.12,1.667-0.221,2.505-0.295c0.663-0.064,1.336-0.111,2.008-0.147c0.405-0.018,0.82-0.037,1.234-0.046
						c0.414-0.009,0.829-0.018,1.243-0.018h265.496c0.414,0,0.829,0.009,1.243,0.018c0.341,0.009,0.691,0.018,1.032,0.037
						c0.783,0.037,1.557,0.092,2.33,0.166h0.028c0.396,0.037,0.783,0.083,1.17,0.129c0.396,0.046,0.783,0.101,1.17,0.157
						c0.387,0.055,0.774,0.12,1.161,0.184s0.765,0.138,1.142,0.212c0.009-0.009,0.018-0.009,0.018,0
						c0.378,0.074,0.755,0.157,1.133,0.24c0.35,0.074,0.691,0.157,1.032,0.23c0.083,0.018,0.157,0.037,0.221,0.055
						c0.322,0.083,0.645,0.166,0.967,0.258c0.451,0.12,0.903,0.249,1.345,0.387c0.304,0.092,0.608,0.184,0.903,0.286
						c0.672,0.221,1.336,0.451,1.999,0.7c0.451,0.157,0.893,0.332,1.326,0.516c0.322,0.129,0.636,0.267,0.958,0.405
						c0.35,0.147,0.691,0.304,1.041,0.47c0.341,0.157,0.682,0.322,1.022,0.488c2.432,1.188,4.734,2.579,6.908,4.154
						c0.267,0.184,0.534,0.378,0.792,0.58c0.958,0.718,1.879,1.464,2.772,2.247c0.396,0.341,0.783,0.691,1.161,1.05
						c1.557,1.446,3.012,2.993,4.347,4.624c0.249,0.295,0.479,0.58,0.709,0.875c0.488,0.617,0.949,1.234,1.391,1.861
						c0.23,0.313,0.451,0.635,0.663,0.958c0.378,0.543,0.737,1.105,1.087,1.667c0.175,0.286,0.341,0.571,0.516,0.857
						c0.313,0.543,0.626,1.087,0.921,1.649c0.147,0.267,0.295,0.534,0.424,0.811c0.488,0.93,0.93,1.87,1.354,2.837
						c0.101,0.249,0.212,0.497,0.313,0.755c0.396,0.958,0.765,1.934,1.096,2.92c0.129,0.368,0.249,0.728,0.359,1.096
						c0.663,2.118,1.179,4.292,1.547,6.512c0.037,0.23,0.074,0.47,0.111,0.718c0.055,0.387,0.11,0.774,0.157,1.161
						c0.046,0.396,0.092,0.783,0.129,1.179c0.046,0.396,0.074,0.792,0.11,1.188c0.046,0.728,0.083,1.455,0.101,2.192
						c0.018,0.47,0.028,0.939,0.028,1.409V813.801z"/>
					<g>
						<linearGradient id="SVGID_1_" gradientUnits="userSpaceOnUse" x1="319.0115" y1="499.9124" x2="324.3566" y2="499.9124">
							<stop  offset="0" style="stop-color:#666666"/>
							<stop  offset="0.0575" style="stop-color:#727272"/>
							<stop  offset="0.3311" style="stop-color:#A8A8A8"/>
							<stop  offset="0.5675" style="stop-color:#D0D0D0"/>
							<stop  offset="0.7551" style="stop-color:#E8E8E8"/>
							<stop  offset="0.8704" style="stop-color:#F1F1F1"/>
							<stop  offset="0.9471" style="stop-color:#F7F7F7"/>
							<stop  offset="1" style="stop-color:#FFFFFF"/>
						</linearGradient>
						<path style="fill:url(#SVGID_1_);" d="M362.624,861.807c-0.387-0.037-0.774-0.074-1.161-0.12h-0.028
							c-0.764-0.092-1.52-0.203-2.266-0.332c-4.55-0.774-8.888-2.183-12.913-4.136c-0.285-0.138-0.562-0.276-0.847-0.414
							c-0.719-0.378-1.428-0.755-2.128-1.161c-0.322-0.184-0.635-0.368-0.949-0.562c-1.584-0.958-3.113-2.008-4.568-3.141
							c-0.267-0.203-0.525-0.405-0.783-0.617c-0.774-0.626-1.529-1.271-2.257-1.934c-0.24-0.221-0.479-0.442-0.709-0.672
							c-0.276-0.258-0.543-0.516-0.81-0.783c-0.258-0.267-0.525-0.534-0.783-0.801c-0.175-0.175-0.341-0.35-0.507-0.534
							c-0.212-0.23-0.424-0.461-0.626-0.691c-1.234-1.382-2.386-2.828-3.454-4.338c-0.193-0.267-0.378-0.543-0.562-0.81
							c-0.58-0.847-1.124-1.713-1.639-2.597c-0.194-0.313-0.378-0.636-0.553-0.958c-1.336-2.395-2.468-4.909-3.38-7.516
							c-0.129-0.359-0.249-0.709-0.359-1.068c-0.58-1.805-1.059-3.647-1.428-5.526c-0.074-0.378-0.148-0.755-0.212-1.133
							c-0.451-2.653-0.691-5.379-0.691-8.161V186.199c0-25.836,20.429-46.992,45.979-48.181
							c-23.017,1.188-41.374,20.282-41.374,43.575v636.812C323.617,840.908,340.73,859.485,362.624,861.807z"/>
						
							<linearGradient id="SVGID_00000026140065378015281920000004602209646061834134_" gradientUnits="userSpaceOnUse" x1="676.4937" y1="499.9493" x2="681.7924" y2="499.9493">
							<stop  offset="0" style="stop-color:#FFFFFF"/>
							<stop  offset="0.0529" style="stop-color:#F7F7F7"/>
							<stop  offset="0.1296" style="stop-color:#F1F1F1"/>
							<stop  offset="0.2449" style="stop-color:#E8E8E8"/>
							<stop  offset="0.4325" style="stop-color:#D0D0D0"/>
							<stop  offset="0.6689" style="stop-color:#A8A8A8"/>
							<stop  offset="0.9425" style="stop-color:#727272"/>
							<stop  offset="1" style="stop-color:#666666"/>
						</linearGradient>
						<path style="fill:url(#SVGID_00000026140065378015281920000004602209646061834134_);" d="M680.989,186.199v627.602
							c0,5.167-0.82,10.15-2.33,14.82c-0.11,0.359-0.23,0.718-0.359,1.068c-0.12,0.359-0.249,0.709-0.387,1.059
							c-0.092,0.267-0.193,0.534-0.304,0.792c-0.313,0.783-0.645,1.557-0.995,2.321c-0.156,0.341-0.313,0.682-0.479,1.013
							c-0.23,0.47-0.461,0.93-0.709,1.391c-0.157,0.313-0.322,0.617-0.497,0.921c-0.175,0.322-0.359,0.645-0.553,0.967
							c-0.516,0.884-1.068,1.759-1.649,2.616c-0.184,0.267-0.369,0.543-0.562,0.811c-0.212,0.304-0.433,0.599-0.654,0.893
							c-0.212,0.304-0.442,0.599-0.663,0.884c-0.23,0.295-0.461,0.58-0.691,0.866c-0.23,0.285-0.47,0.571-0.718,0.857
							c-0.479,0.562-0.967,1.115-1.474,1.649c-0.774,0.829-1.575,1.63-2.413,2.413c-0.249,0.221-0.497,0.451-0.755,0.681
							c-0.58,0.516-1.17,1.013-1.768,1.511c-0.258,0.203-0.525,0.405-0.792,0.617c-0.875,0.682-1.778,1.326-2.699,1.943
							c-0.304,0.203-0.617,0.405-0.93,0.608c-0.626,0.405-1.262,0.783-1.907,1.151c-0.313,0.184-0.635,0.368-0.958,0.534
							c-1.041,0.571-2.1,1.105-3.187,1.584c-0.286,0.138-0.571,0.258-0.857,0.378c-0.341,0.157-0.682,0.295-1.032,0.433
							c-0.35,0.138-0.7,0.276-1.05,0.405c-0.783,0.295-1.575,0.571-2.376,0.82c-0.285,0.092-0.562,0.175-0.847,0.258
							c-1.05,0.313-2.128,0.59-3.214,0.829c-0.378,0.083-0.755,0.166-1.142,0.239c-0.396,0.083-0.801,0.157-1.216,0.221
							c-0.755,0.129-1.51,0.24-2.266,0.332h-0.028c-0.387,0.046-0.774,0.083-1.161,0.12c21.894-2.321,39.016-20.899,39.016-43.4
							V181.594c0-22.897-17.73-41.733-40.186-43.502C661.195,139.861,680.989,160.759,680.989,186.199z"/>
						
							<linearGradient id="SVGID_00000162319365053402527270000012775700335876151456_" gradientUnits="userSpaceOnUse" x1="500" y1="866.6421" x2="500" y2="824.3209">
							<stop  offset="0" style="stop-color:#F1F1F1"/>
							<stop  offset="0.1164" style="stop-color:#E3E3E3"/>
							<stop  offset="0.3358" style="stop-color:#BFBFBF"/>
							<stop  offset="0.6347" style="stop-color:#848484"/>
							<stop  offset="1" style="stop-color:#333333"/>
						</linearGradient>
						<path style="fill:url(#SVGID_00000162319365053402527270000012775700335876151456_);" d="M680.989,813.801v4.605
							c0,26.6-21.636,48.236-48.236,48.236H367.257c-26.6,0-48.245-21.636-48.245-48.236v-4.605c0,2.781,0.24,5.508,0.691,8.161
							c0.064,0.378,0.138,0.755,0.212,1.133c0.368,1.879,0.847,3.721,1.428,5.526c0.111,0.359,0.23,0.709,0.359,1.068
							c0.912,2.607,2.045,5.121,3.38,7.516c0.175,0.322,0.359,0.645,0.553,0.958c0.516,0.884,1.059,1.75,1.639,2.597
							c0.184,0.267,0.368,0.543,0.562,0.81c1.068,1.511,2.22,2.957,3.454,4.338c0.203,0.23,0.415,0.461,0.626,0.691
							c0.166,0.184,0.332,0.359,0.507,0.534c0.258,0.267,0.525,0.534,0.783,0.801c0.267,0.267,0.534,0.525,0.81,0.783
							c0.23,0.23,0.47,0.451,0.709,0.672c0.728,0.663,1.483,1.308,2.257,1.934c0.258,0.212,0.516,0.414,0.783,0.617
							c1.455,1.133,2.984,2.183,4.568,3.141c0.313,0.193,0.626,0.378,0.949,0.562c0.7,0.405,1.409,0.783,2.128,1.161
							c0.285,0.138,0.562,0.276,0.847,0.414c4.025,1.953,8.363,3.362,12.913,4.136c0.746,0.129,1.501,0.24,2.266,0.332h0.028
							c0.774,0.092,1.547,0.166,2.33,0.221c0.396,0.028,0.801,0.055,1.197,0.074c0.746,0.037,1.501,0.055,2.266,0.055h265.496
							c0.755,0,1.501-0.018,2.247-0.055c0.396-0.019,0.801-0.046,1.197-0.074c0.635-0.046,1.262-0.101,1.888-0.175
							c0.147-0.009,0.295-0.028,0.442-0.046h0.028c0.765-0.092,1.52-0.203,2.266-0.332c0.414-0.064,0.82-0.138,1.216-0.221
							c0.387-0.074,0.764-0.156,1.142-0.239c1.087-0.24,2.164-0.516,3.214-0.829c0.286-0.083,0.571-0.166,0.847-0.258
							c0.801-0.249,1.594-0.525,2.376-0.82c0.35-0.129,0.7-0.267,1.05-0.405c0.35-0.138,0.691-0.276,1.032-0.433
							c0.286-0.12,0.571-0.24,0.857-0.378c1.087-0.479,2.146-1.013,3.187-1.584c0.322-0.166,0.636-0.341,0.958-0.534
							c0.645-0.368,1.28-0.746,1.907-1.151c0.313-0.193,0.626-0.396,0.93-0.608c0.921-0.617,1.824-1.262,2.699-1.943
							c0.267-0.203,0.534-0.414,0.792-0.617c0.599-0.497,1.188-0.995,1.768-1.511c0.258-0.221,0.507-0.451,0.755-0.681
							c0.838-0.783,1.639-1.584,2.413-2.413c0.507-0.534,1.004-1.087,1.474-1.649c0.249-0.286,0.488-0.571,0.718-0.857
							c0.24-0.286,0.47-0.571,0.691-0.866c0.23-0.295,0.451-0.59,0.663-0.884c0.23-0.295,0.442-0.59,0.654-0.893
							c0.193-0.267,0.378-0.543,0.562-0.811c0.58-0.857,1.133-1.732,1.649-2.616c0.193-0.322,0.378-0.645,0.553-0.967
							c0.175-0.304,0.341-0.608,0.497-0.921c0.249-0.461,0.479-0.921,0.709-1.391c0.166-0.332,0.332-0.672,0.479-1.013
							c0.35-0.765,0.682-1.538,0.995-2.321c0.11-0.258,0.212-0.525,0.304-0.792c0.138-0.35,0.267-0.7,0.387-1.059
							c0.129-0.35,0.249-0.709,0.359-1.068C680.169,823.951,680.989,818.968,680.989,813.801z"/>
					</g>
					
						<linearGradient id="SVGID_00000020378988957284760550000012450153430594483083_" gradientUnits="userSpaceOnUse" x1="500" y1="173.7648" x2="500" y2="120.9236">
						<stop  offset="0" style="stop-color:#333333"/>
						<stop  offset="0.0736" style="stop-color:#4C4C4C"/>
						<stop  offset="0.2508" style="stop-color:#828282"/>
						<stop  offset="0.4239" style="stop-color:#AFAFAF"/>
						<stop  offset="0.5891" style="stop-color:#D2D2D2"/>
						<stop  offset="0.7442" style="stop-color:#EBEBEB"/>
						<stop  offset="0.8854" style="stop-color:#FAFAFA"/>
						<stop  offset="1" style="stop-color:#FFFFFF"/>
					</linearGradient>
					<path style="fill:url(#SVGID_00000020378988957284760550000012450153430594483083_);" d="M680.989,181.594v4.605
						c0-25.044-19.177-45.685-43.622-48.006c-0.387-0.037-0.783-0.074-1.17-0.101c-0.396-0.028-0.801-0.055-1.197-0.074h-0.009
						c-0.746-0.037-1.483-0.055-2.238-0.055H367.257c-0.755,0-1.501,0.018-2.238,0.055h-0.028
						c-25.55,1.188-45.979,22.345-45.979,48.181v-4.605c0-0.479,0.009-0.949,0.028-1.418c0-0.359,0.018-0.709,0.037-1.059
						c0.037-0.774,0.092-1.538,0.175-2.303c0.037-0.396,0.083-0.792,0.129-1.179c0.028-0.212,0.055-0.414,0.083-0.626
						c0.028-0.249,0.065-0.497,0.111-0.755c0.055-0.396,0.12-0.792,0.193-1.188c0.12-0.691,0.258-1.372,0.415-2.045
						c0.074-0.341,0.157-0.672,0.24-1.004c0.24-1.004,0.516-1.98,0.829-2.957c0.101-0.304,0.203-0.617,0.304-0.921
						c0.129-0.378,0.258-0.755,0.396-1.124c0.11-0.313,0.23-0.617,0.35-0.921c0.101-0.258,0.193-0.507,0.304-0.755
						c0.12-0.304,0.249-0.608,0.378-0.903c0.102-0.23,0.194-0.451,0.304-0.672c0.147-0.332,0.295-0.654,0.46-0.986
						c0.267-0.571,0.553-1.142,0.857-1.704c0.147-0.285,0.304-0.571,0.47-0.857c0.175-0.332,0.368-0.663,0.562-0.986
						c1.336-2.275,2.855-4.43,4.541-6.457c0.24-0.286,0.479-0.571,0.728-0.857c0.276-0.313,0.553-0.635,0.847-0.949
						c0.479-0.516,0.958-1.022,1.455-1.511c0.534-0.534,1.078-1.05,1.63-1.557c0.562-0.497,1.124-0.995,1.704-1.474
						c0.285-0.239,0.58-0.47,0.875-0.709c0.59-0.461,1.188-0.912,1.805-1.354c0.608-0.433,1.225-0.857,1.861-1.271
						c0.635-0.405,1.271-0.801,1.925-1.179c0.323-0.193,0.654-0.378,0.986-0.562c0.332-0.184,0.663-0.359,0.995-0.534
						c0.341-0.175,0.672-0.35,1.013-0.516c0.341-0.166,0.682-0.332,1.032-0.497c0.682-0.313,1.382-0.617,2.091-0.903
						c0.331-0.138,0.672-0.276,1.013-0.405c0.028-0.018,0.064-0.028,0.092-0.037c0.341-0.129,0.691-0.249,1.032-0.378
						c0.341-0.111,0.682-0.23,1.022-0.35c0.387-0.12,0.774-0.249,1.17-0.359c0.368-0.111,0.737-0.212,1.105-0.313
						c0.378-0.101,0.746-0.203,1.124-0.295c0.378-0.092,0.755-0.184,1.133-0.267c0.764-0.175,1.529-0.322,2.303-0.451
						c0.378-0.064,0.764-0.129,1.151-0.184c0.829-0.12,1.667-0.221,2.505-0.295c0.663-0.064,1.336-0.111,2.008-0.147
						c0.405-0.018,0.82-0.037,1.234-0.046c0.414-0.009,0.829-0.018,1.243-0.018h265.496c0.414,0,0.829,0.009,1.243,0.018
						c0.341,0.009,0.691,0.018,1.032,0.037c0.783,0.037,1.557,0.092,2.33,0.166h0.028c0.396,0.037,0.783,0.083,1.17,0.129
						c0.396,0.046,0.783,0.101,1.17,0.157c0.387,0.055,0.774,0.12,1.161,0.184s0.765,0.138,1.142,0.212
						c0.009-0.009,0.018-0.009,0.018,0c0.378,0.074,0.755,0.157,1.133,0.24c0.35,0.074,0.691,0.157,1.032,0.23
						c0.083,0.018,0.157,0.037,0.221,0.055c0.322,0.083,0.645,0.166,0.967,0.258c0.451,0.12,0.903,0.249,1.345,0.387
						c0.304,0.092,0.608,0.184,0.903,0.286c0.672,0.221,1.336,0.451,1.999,0.7c0.451,0.157,0.893,0.332,1.326,0.516
						c0.322,0.129,0.636,0.267,0.958,0.405c0.35,0.147,0.691,0.304,1.041,0.47c0.341,0.157,0.682,0.322,1.022,0.488
						c2.432,1.188,4.734,2.579,6.908,4.154c0.267,0.184,0.534,0.378,0.792,0.58c0.958,0.718,1.879,1.464,2.772,2.247
						c0.396,0.341,0.783,0.691,1.161,1.05c1.557,1.446,3.012,2.993,4.347,4.624c0.249,0.295,0.479,0.58,0.709,0.875
						c0.488,0.617,0.949,1.234,1.391,1.861c0.23,0.313,0.451,0.635,0.663,0.958c0.378,0.543,0.737,1.105,1.087,1.667
						c0.175,0.286,0.341,0.571,0.516,0.857c0.313,0.543,0.626,1.087,0.921,1.649c0.147,0.267,0.295,0.534,0.424,0.811
						c0.488,0.93,0.93,1.87,1.354,2.837c0.101,0.249,0.212,0.497,0.313,0.755c0.396,0.958,0.765,1.934,1.096,2.92
						c0.129,0.368,0.249,0.728,0.359,1.096c0.663,2.118,1.179,4.292,1.547,6.512c0.037,0.23,0.074,0.47,0.111,0.718
						c0.055,0.387,0.11,0.774,0.157,1.161c0.046,0.396,0.092,0.783,0.129,1.179c0.046,0.396,0.074,0.792,0.11,1.188
						c0.046,0.728,0.083,1.455,0.101,2.192C680.979,180.654,680.989,181.124,680.989,181.594z"/>
				</g>
				<g>
					<path style="fill:#404040;" d="M635,138.018h-0.009c-0.737-0.037-1.483-0.055-2.238-0.055H367.257
						c-0.755,0-1.501,0.018-2.238,0.055h-0.028c-23.017,1.188-41.374,20.282-41.374,43.575v636.812
						c0,22.898,17.721,41.733,40.177,43.502c0.396,0.028,0.801,0.055,1.197,0.074c0.746,0.037,1.501,0.055,2.266,0.055h265.496
						c0.755,0,1.501-0.018,2.247-0.055c0.396-0.019,0.801-0.046,1.197-0.074c22.455-1.768,40.186-20.604,40.186-43.502V181.594
						C676.383,158.291,658.017,139.197,635,138.018z M672.699,818.406c0,20.705-16.165,38.206-36.76,39.827
						c-0.368,0.028-0.746,0.055-1.124,0.065c-0.682,0.037-1.372,0.055-2.063,0.055H367.257c-0.7,0-1.4-0.018-2.091-0.055
						c-0.368-0.009-0.746-0.037-1.087-0.065c-20.622-1.621-36.778-19.121-36.778-39.827V181.594
						c0-21.24,16.588-38.749,37.791-39.891h0.018l0.092-0.009c0.672-0.028,1.363-0.046,2.054-0.046h265.496
						c0.691,0,1.382,0.018,2.054,0.046l0.064,0.009c21.221,1.114,37.828,18.633,37.828,39.891V818.406z"/>
				</g>
				
					<linearGradient id="SVGID_00000139991001712761428790000013222256146659168660_" gradientUnits="userSpaceOnUse" x1="659.8225" y1="500.1888" x2="672.6897" y2="500.1888">
					<stop  offset="0" style="stop-color:#F1F1F1"/>
					<stop  offset="0.0012" style="stop-color:#F0F0F0"/>
					<stop  offset="0.1385" style="stop-color:#B7B7B7"/>
					<stop  offset="0.2715" style="stop-color:#888888"/>
					<stop  offset="0.397" style="stop-color:#636363"/>
					<stop  offset="0.5134" style="stop-color:#494949"/>
					<stop  offset="0.6172" style="stop-color:#393939"/>
					<stop  offset="0.6978" style="stop-color:#333333"/>
				</linearGradient>
				<path style="fill:url(#SVGID_00000139991001712761428790000013222256146659168660_);" d="M672.69,181.852v636.812
					c0,3.942-0.589,7.774-1.676,11.393c-0.875,2.892-2.063,5.655-3.546,8.244c-0.304,0.534-0.626,1.059-0.949,1.575
					c-0.497,0.774-1.013,1.529-1.547,2.266c-1.529,2.082-3.251,4.007-5.139,5.766c3.491-6.097,5.49-13.171,5.49-20.65v-7.341
					c0.018-0.433,0.028-0.875,0.028-1.317V181.787c0-0.451-0.009-0.903-0.028-1.345v-7.184c0-7.571-1.999-14.682-5.499-20.788
					C667.753,159.783,672.69,170.265,672.69,181.852z"/>
				<g>
					<path d="M634.678,145.379l-0.169-0.011c-0.581-0.021-1.163-0.032-1.755-0.032h-265.5c-0.602,0-1.205,0.011-1.796,0.032
						l-0.18,0.021h-0.085c-19.191,1.078-34.208,16.972-34.208,36.206v636.807c0,18.811,14.658,34.684,33.395,36.164
						c0.275,0.021,0.581,0.042,0.877,0.053h0.105c0.624,0.032,1.258,0.053,1.892,0.053h265.5c0.624,0,1.247-0.021,1.86-0.053h0.116
						c0.306-0.011,0.623-0.032,0.919-0.063c18.705-1.469,33.363-17.352,33.363-36.153V181.595
						C669.013,162.298,653.933,146.393,634.678,145.379z M659.344,818.412c0,6.034-2.061,11.646-5.517,16.159
						c-0.19,0.243-0.38,0.476-0.57,0.708c-0.581,0.708-1.205,1.385-1.849,2.029c-0.571,0.56-1.173,1.109-1.797,1.628H649.6
						c-0.782,0.644-1.606,1.247-2.462,1.807c-0.856,0.56-1.733,1.067-2.653,1.522h-0.011c-0.454,0.232-0.919,0.444-1.395,0.645
						c0,0,0,0-0.011,0c-0.465,0.201-0.951,0.391-1.437,0.56c-0.972,0.349-1.976,0.645-3.001,0.877
						c-1.226,0.275-2.484,0.465-3.773,0.571c-0.116,0.011-0.233,0.021-0.349,0.032h-0.169l-0.116,0.011h-0.127
						c-0.116,0.01-0.222,0.01-0.328,0.021c-0.116,0-0.222,0.011-0.338,0.011c-0.232,0-0.465,0.01-0.687,0.01h-265.49
						c-0.222,0-0.454-0.01-0.687-0.01c-0.232-0.011-0.465-0.021-0.698-0.032h-0.095l-0.106-0.011h-0.169
						c-0.116-0.011-0.233-0.021-0.359-0.032c-13.728-1.078-24.486-12.724-24.486-26.505V181.595
						c0-14.013,10.885-25.617,24.835-26.536h0.233l0.359-0.032c0.433-0.021,0.814-0.021,1.173-0.021h265.49
						c0.359,0,0.75,0,1.173,0.021l0.127,0.011h0.127c0.085,0,0.18,0.011,0.264,0.021c0.264,0.011,0.518,0.032,0.771,0.063
						c0.116,0,0.232,0.01,0.349,0.032c0.232,0.021,0.465,0.042,0.697,0.084c0.275,0.021,0.55,0.063,0.824,0.116
						c0.011,0,0.032,0,0.042,0.011c0.401,0.053,0.793,0.127,1.183,0.211c0.074,0.021,0.148,0.042,0.222,0.053
						c0.328,0.063,0.645,0.148,0.962,0.232c0.465,0.127,0.93,0.264,1.395,0.412c0.37,0.106,0.74,0.233,1.099,0.37
						c0.391,0.137,0.782,0.296,1.163,0.465c0.771,0.317,1.511,0.676,2.24,1.078c0.666,0.349,1.31,0.74,1.934,1.152
						c0.138,0.095,0.275,0.19,0.423,0.285c0.254,0.18,0.507,0.359,0.761,0.539c0.338,0.233,0.655,0.486,0.972,0.75
						c0.634,0.518,1.247,1.057,1.828,1.628c0.306,0.275,0.592,0.571,0.856,0.877c0.275,0.296,0.549,0.602,0.814,0.909
						c1.067,1.247,2.018,2.579,2.832,4.005c0.412,0.708,0.782,1.448,1.131,2.198c0.338,0.75,0.655,1.511,0.93,2.304
						c0.138,0.391,0.264,0.782,0.381,1.184c0.254,0.867,0.475,1.744,0.634,2.642c0.074,0.359,0.137,0.708,0.18,1.067
						c0.19,1.258,0.285,2.558,0.285,3.868V818.412z"/>
					<path d="M411.651,167.265c-0.095-0.18-0.169-0.359-0.254-0.539c-0.021-0.074-0.053-0.138-0.074-0.201
						C411.429,166.779,411.535,167.022,411.651,167.265z"/>
					<path d="M588.675,166.525c-0.021,0.063-0.053,0.127-0.074,0.201c-0.085,0.18-0.159,0.359-0.254,0.539
						C588.464,167.022,588.57,166.779,588.675,166.525z"/>
				</g>
				<path d="M594.435,155.006c-2.188,0.116-3.963,1.807-4.185,3.974c0,0.201-0.011,0.391-0.021,0.581
					c-0.032,0.803-0.116,1.596-0.254,2.378c-0.042,0.275-0.085,0.539-0.148,0.803c0,0.011,0,0.011,0,0.011
					c-0.063,0.328-0.138,0.645-0.222,0.962c-0.064,0.285-0.148,0.571-0.232,0.856c-0.021,0.063-0.042,0.127-0.064,0.201
					c-0.021,0.063-0.042,0.137-0.074,0.212c-0.011,0.063-0.032,0.116-0.053,0.169c-0.031,0.095-0.063,0.19-0.095,0.285
					c-0.042,0.106-0.074,0.211-0.116,0.317c-0.084,0.264-0.19,0.518-0.296,0.772c-0.106,0.254-0.211,0.497-0.328,0.74
					c-0.01,0.042-0.021,0.074-0.042,0.106c-0.01,0.021-0.01,0.032-0.021,0.053c-0.095,0.211-0.201,0.412-0.307,0.613
					c-0.085,0.18-0.18,0.359-0.275,0.528c-0.021,0.053-0.053,0.105-0.095,0.169c-0.042,0.095-0.095,0.18-0.148,0.264
					c-0.063,0.127-0.138,0.243-0.212,0.359c-0.021,0.032-0.031,0.064-0.053,0.095c-0.021,0.042-0.053,0.084-0.085,0.137
					c-0.053,0.085-0.095,0.158-0.148,0.232c-0.053,0.095-0.106,0.18-0.169,0.264c-0.042,0.074-0.095,0.148-0.148,0.222
					c-0.021,0.042-0.053,0.074-0.085,0.116c-0.063,0.095-0.116,0.18-0.18,0.264c-0.042,0.063-0.085,0.127-0.137,0.18
					c-0.053,0.095-0.116,0.18-0.19,0.264c-0.011,0.021-0.032,0.042-0.042,0.063c-0.011,0.021-0.031,0.042-0.053,0.053
					c-0.063,0.095-0.138,0.19-0.212,0.285c-0.021,0.042-0.053,0.074-0.085,0.105c-0.074,0.106-0.158,0.212-0.243,0.307h-0.01
					c-0.106,0.127-0.212,0.254-0.317,0.37c-0.095,0.137-0.211,0.264-0.328,0.38c0,0.011-0.01,0.021-0.01,0.021h-0.011
					c-0.064,0.085-0.138,0.158-0.211,0.232c-0.074,0.085-0.158,0.169-0.243,0.254c-0.074,0.085-0.148,0.159-0.232,0.233
					c-0.138,0.148-0.275,0.285-0.433,0.423c-0.106,0.116-0.211,0.211-0.338,0.317c-0.074,0.063-0.137,0.127-0.211,0.19
					c-0.169,0.148-0.349,0.296-0.518,0.433c-0.158,0.137-0.328,0.264-0.497,0.402c-0.106,0.085-0.201,0.158-0.306,0.232
					c-0.116,0.095-0.233,0.18-0.359,0.264c0,0.011-0.011,0.011-0.011,0.011c-0.116,0.085-0.232,0.169-0.359,0.243
					c-0.053,0.053-0.105,0.085-0.158,0.116c-0.201,0.127-0.402,0.264-0.602,0.381c-0.159,0.116-0.317,0.211-0.476,0.296
					c-0.201,0.127-0.402,0.243-0.613,0.338c-0.074,0.053-0.158,0.095-0.232,0.137c-0.021,0.011-0.032,0.021-0.053,0.021
					c-0.148,0.085-0.296,0.159-0.454,0.232c-0.127,0.074-0.264,0.137-0.412,0.201c-0.116,0.064-0.243,0.116-0.37,0.169
					c-0.063,0.032-0.127,0.053-0.201,0.085c-0.053,0.031-0.106,0.053-0.169,0.074h-0.011c-0.328,0.137-0.644,0.264-0.972,0.38
					c-0.307,0.106-0.602,0.211-0.909,0.306c-0.338,0.106-0.666,0.201-1.004,0.285c-0.676,0.169-1.374,0.317-2.071,0.423
					c-0.285,0.042-0.581,0.084-0.877,0.116c-0.063,0.01-0.116,0.01-0.18,0.021c-0.254,0.021-0.507,0.042-0.75,0.053
					c-0.296,0.021-0.581,0.032-0.867,0.042c-0.095,0-0.19,0-0.275,0.011H430.631c-0.085-0.011-0.18-0.011-0.275-0.011
					c-0.285-0.011-0.571-0.021-0.866-0.042c-0.243-0.011-0.497-0.032-0.75-0.053c-0.064-0.011-0.116-0.011-0.18-0.021
					c-0.296-0.032-0.592-0.074-0.877-0.116c-0.698-0.106-1.395-0.254-2.071-0.423c-0.338-0.084-0.666-0.18-1.004-0.285
					c-0.307-0.095-0.602-0.201-0.909-0.306c-0.328-0.116-0.645-0.243-0.973-0.38h-0.011c-0.063-0.021-0.116-0.042-0.169-0.074
					c-0.074-0.032-0.138-0.053-0.201-0.085c-0.127-0.053-0.254-0.106-0.37-0.169c-0.148-0.063-0.285-0.127-0.412-0.201
					c-0.159-0.074-0.307-0.148-0.455-0.232c-0.021,0-0.032-0.011-0.053-0.021c-0.074-0.042-0.159-0.084-0.233-0.137
					c-0.211-0.095-0.412-0.211-0.613-0.338c-0.159-0.085-0.317-0.179-0.476-0.296c-0.201-0.116-0.402-0.254-0.602-0.381
					c-0.053-0.031-0.106-0.063-0.159-0.116c-0.127-0.074-0.243-0.158-0.359-0.243c0,0-0.011,0-0.011-0.011
					c-0.127-0.085-0.243-0.169-0.359-0.264c-0.105-0.074-0.201-0.148-0.306-0.232c-0.169-0.137-0.338-0.264-0.497-0.402
					c-0.169-0.137-0.349-0.285-0.518-0.433c-0.074-0.063-0.137-0.127-0.211-0.19c-0.127-0.106-0.233-0.201-0.338-0.317
					c-0.158-0.137-0.296-0.275-0.433-0.423c-0.085-0.074-0.159-0.148-0.233-0.233c-0.085-0.084-0.169-0.169-0.243-0.254
					c-0.074-0.074-0.148-0.148-0.211-0.232h-0.01c-0.064-0.063-0.116-0.127-0.169-0.201c-0.169-0.19-0.328-0.381-0.486-0.571h-0.011
					c-0.084-0.095-0.169-0.201-0.243-0.307c-0.032-0.032-0.064-0.063-0.084-0.105c-0.074-0.095-0.148-0.19-0.211-0.285
					c-0.021-0.011-0.042-0.032-0.053-0.053c-0.011-0.021-0.032-0.042-0.042-0.063c-0.074-0.085-0.138-0.169-0.19-0.264
					c-0.053-0.053-0.095-0.116-0.137-0.18c-0.063-0.085-0.116-0.169-0.18-0.264c-0.032-0.032-0.053-0.074-0.085-0.116
					c-0.053-0.074-0.106-0.148-0.148-0.222c-0.063-0.084-0.116-0.169-0.169-0.264c-0.053-0.074-0.095-0.148-0.148-0.232
					c-0.021-0.042-0.053-0.085-0.085-0.137c-0.021-0.032-0.032-0.063-0.053-0.095c-0.074-0.116-0.148-0.232-0.211-0.359
					c-0.053-0.085-0.106-0.169-0.148-0.264c-0.031-0.053-0.063-0.116-0.095-0.169c-0.095-0.169-0.19-0.349-0.275-0.528
					c-0.106-0.201-0.211-0.402-0.306-0.613c-0.011-0.021-0.011-0.032-0.021-0.053c-0.021-0.032-0.032-0.063-0.042-0.106
					c-0.116-0.243-0.222-0.486-0.327-0.74c-0.106-0.254-0.212-0.507-0.296-0.772c-0.042-0.106-0.074-0.211-0.116-0.317
					c-0.032-0.095-0.063-0.19-0.095-0.285c-0.021-0.053-0.042-0.106-0.053-0.169c-0.032-0.074-0.053-0.137-0.074-0.212
					c-0.021-0.064-0.042-0.137-0.064-0.201c-0.085-0.285-0.169-0.571-0.232-0.856c-0.085-0.317-0.159-0.634-0.222-0.962
					c0,0,0,0,0-0.011c-0.064-0.264-0.106-0.528-0.148-0.803c-0.138-0.782-0.222-1.575-0.254-2.378
					c-0.01-0.19-0.021-0.381-0.021-0.581c-0.222-2.167-1.997-3.857-4.185-3.974H594.435z"/>
				<path d="M429.49,179.587c0.296,0.021,0.581,0.032,0.866,0.042c-0.158,0-0.327,0-0.486-0.011c-0.169,0-0.338-0.011-0.507-0.032
					c-0.19-0.011-0.37-0.032-0.56-0.042c-0.021,0-0.042,0-0.063-0.011C428.993,179.555,429.247,179.577,429.49,179.587z"/>
				<path d="M571.26,179.534c-0.021,0.011-0.042,0.011-0.064,0.011c-0.19,0.01-0.37,0.032-0.56,0.042
					c-0.169,0.021-0.338,0.032-0.507,0.032c-0.159,0.011-0.328,0.011-0.486,0.011c0.285-0.011,0.571-0.021,0.867-0.042
					C570.752,179.577,571.006,179.555,571.26,179.534z"/>
				<path d="M411.027,165.754c-0.01-0.011-0.01-0.021-0.021-0.032c-0.032-0.095-0.064-0.19-0.095-0.285
					C410.954,165.542,410.985,165.648,411.027,165.754z"/>
				<path d="M411.651,167.265c-0.095-0.18-0.169-0.359-0.254-0.539c-0.021-0.074-0.053-0.138-0.074-0.201
					C411.429,166.779,411.535,167.022,411.651,167.265z"/>
				<path d="M414.251,171.534c-0.095-0.106-0.18-0.222-0.264-0.338c0.01,0.021,0.031,0.042,0.053,0.053
					C414.103,171.344,414.177,171.439,414.251,171.534z"/>
				<path d="M415.075,172.517c-0.116-0.116-0.222-0.232-0.317-0.359c-0.064-0.074-0.127-0.137-0.18-0.211h0.011
					C414.747,172.137,414.906,172.327,415.075,172.517z"/>
				<path d="M415.466,172.95c-0.085-0.074-0.158-0.158-0.222-0.232h0.01C415.318,172.803,415.392,172.876,415.466,172.95z"/>
				<path d="M417.939,175.201c-0.169-0.116-0.338-0.254-0.497-0.391c-0.095-0.074-0.201-0.158-0.296-0.254
					c-0.084-0.063-0.148-0.127-0.222-0.19c0.169,0.148,0.349,0.296,0.518,0.433C417.601,174.937,417.77,175.064,417.939,175.201z"/>
				<path d="M418.245,175.434c0.116,0.095,0.233,0.18,0.359,0.264c-0.042-0.021-0.074-0.042-0.106-0.064
					C418.415,175.571,418.33,175.508,418.245,175.434z"/>
				<path d="M419.736,176.448c-0.127-0.063-0.243-0.137-0.359-0.211c-0.011,0-0.011-0.011-0.021-0.011
					c-0.074-0.053-0.148-0.106-0.222-0.159C419.334,176.195,419.535,176.332,419.736,176.448z"/>
				<path d="M423.699,178.382c-0.275-0.095-0.539-0.19-0.814-0.307c-0.053-0.021-0.106-0.042-0.159-0.074
					C423.054,178.139,423.371,178.266,423.699,178.382z"/>
				<path d="M424.607,178.689c0.338,0.106,0.666,0.201,1.004,0.285c-0.222-0.053-0.455-0.116-0.677-0.18
					c-0.116-0.032-0.222-0.063-0.328-0.095c-0.148-0.042-0.296-0.095-0.444-0.148c-0.158-0.053-0.317-0.106-0.465-0.169
					C424.005,178.488,424.301,178.594,424.607,178.689z"/>
				<path d="M427.683,179.397c0.285,0.042,0.581,0.084,0.877,0.116c-0.264-0.021-0.528-0.053-0.782-0.095
					c-0.032,0-0.064-0.011-0.095-0.011c-0.116-0.021-0.233-0.042-0.349-0.064c-0.233-0.032-0.465-0.074-0.698-0.127
					c-0.296-0.063-0.581-0.127-0.877-0.201c-0.042-0.011-0.095-0.021-0.148-0.042C426.288,179.143,426.985,179.291,427.683,179.397z
					"/>
				<path d="M429.49,179.587h-0.127c-0.064,0-0.137,0-0.201-0.011c-0.116-0.011-0.243-0.021-0.359-0.032
					c-0.021,0-0.042,0-0.063-0.011C428.993,179.555,429.247,179.577,429.49,179.587z"/>
				<path d="M569.368,179.64c-0.085,0.01-0.18,0.01-0.275,0.01H430.906c-0.095,0-0.19,0-0.275-0.01H569.368z"/>
				<path d="M570.509,179.587c0.243-0.011,0.497-0.032,0.75-0.053c-0.021,0.011-0.042,0.011-0.064,0.011
					c-0.116,0.01-0.243,0.021-0.359,0.032c-0.064,0.011-0.138,0.011-0.201,0.011H570.509z"/>
				<path d="M572.316,179.397c0.698-0.106,1.395-0.254,2.071-0.423c-0.053,0.021-0.105,0.032-0.148,0.042
					c-0.296,0.074-0.581,0.137-0.877,0.201c-0.232,0.053-0.465,0.095-0.697,0.127c-0.116,0.021-0.232,0.042-0.349,0.064
					c-0.032,0-0.063,0.011-0.095,0.011c-0.254,0.042-0.518,0.074-0.782,0.095C571.735,179.481,572.031,179.439,572.316,179.397z"/>
				<path d="M576.3,178.382c-0.148,0.063-0.307,0.116-0.465,0.169c-0.148,0.053-0.296,0.106-0.444,0.148
					c-0.106,0.032-0.212,0.063-0.328,0.095c-0.222,0.063-0.455,0.127-0.677,0.18c0.338-0.084,0.666-0.18,1.004-0.285
					C575.698,178.594,575.994,178.488,576.3,178.382z"/>
				<path d="M576.3,178.382c0.328-0.116,0.645-0.243,0.972-0.38c-0.053,0.032-0.105,0.053-0.158,0.074
					C576.839,178.192,576.575,178.287,576.3,178.382z"/>
				<path d="M580.263,176.448c0.201-0.116,0.401-0.254,0.602-0.381c-0.074,0.053-0.148,0.106-0.222,0.159
					c-0.01,0-0.01,0.011-0.021,0.011C580.506,176.311,580.39,176.385,580.263,176.448z"/>
				<path d="M581.754,175.434c-0.085,0.074-0.169,0.137-0.254,0.201c-0.031,0.021-0.063,0.042-0.106,0.064
					C581.521,175.613,581.637,175.529,581.754,175.434z"/>
				<path d="M583.075,174.367c-0.074,0.063-0.138,0.127-0.222,0.19c-0.095,0.095-0.201,0.18-0.296,0.254
					c-0.158,0.137-0.328,0.275-0.497,0.391c0.169-0.137,0.338-0.264,0.497-0.402C582.726,174.663,582.906,174.514,583.075,174.367z"
					/>
				<path d="M584.755,172.718c-0.063,0.074-0.137,0.158-0.222,0.232c0.074-0.074,0.148-0.148,0.211-0.232H584.755z"/>
				<path d="M585.42,171.946c-0.053,0.074-0.116,0.137-0.18,0.211c-0.042,0.053-0.085,0.106-0.148,0.159
					c0.106-0.116,0.211-0.243,0.317-0.37H585.42z"/>
				<path d="M586.012,171.196c-0.085,0.116-0.169,0.232-0.264,0.338c0.074-0.095,0.148-0.19,0.212-0.285
					C585.981,171.238,586.002,171.217,586.012,171.196z"/>
				<path d="M588.675,166.525c-0.021,0.063-0.053,0.127-0.074,0.201c-0.085,0.18-0.159,0.359-0.254,0.539
					C588.464,167.022,588.57,166.779,588.675,166.525z"/>
				<path d="M589.088,165.437c-0.032,0.095-0.063,0.19-0.095,0.285c-0.01,0.011-0.01,0.021-0.021,0.032
					C589.014,165.648,589.045,165.542,589.088,165.437z"/>
				<g>
					
						<linearGradient id="SVGID_00000109011978736626945550000009112643394301249959_" gradientUnits="userSpaceOnUse" x1="334.688" y1="838.5728" x2="665.3212" y2="838.5728">
						<stop  offset="0" style="stop-color:#000000"/>
						<stop  offset="0.1045" style="stop-color:#141414"/>
						<stop  offset="0.2593" style="stop-color:#2C2C2C"/>
						<stop  offset="0.4027" style="stop-color:#3B3B3B"/>
						<stop  offset="0.5229" style="stop-color:#404040"/>
						<stop  offset="0.6306" style="stop-color:#393939"/>
						<stop  offset="0.7927" style="stop-color:#242424"/>
						<stop  offset="0.9882" style="stop-color:#020202"/>
						<stop  offset="1" style="stop-color:#000000"/>
					</linearGradient>
					<path style="fill:url(#SVGID_00000109011978736626945550000009112643394301249959_);" d="M665.321,819.917v7.341
						c0,7.479-1.999,14.553-5.49,20.65c-6.383,5.913-14.691,9.791-23.874,10.518c-0.368,0.028-0.746,0.055-1.124,0.065
						c-0.682,0.037-1.372,0.055-2.063,0.055H367.275c-0.7,0-1.4-0.018-2.091-0.055c-0.368-0.009-0.746-0.037-1.087-0.065
						c-0.507-0.037-1.013-0.092-1.52-0.157c-8.584-1.004-16.33-4.771-22.354-10.353c-3.518-6.116-5.536-13.217-5.536-20.724v-8.594
						c0,9.809,4.449,18.744,11.467,24.749c5.066,4.347,11.476,7.175,18.522,7.728c0.23,0.018,0.461,0.046,0.691,0.046l0.101,0.009
						h0.101c0.562,0.028,1.133,0.046,1.704,0.046h265.496c0.553,0,1.114-0.018,1.667-0.046h0.11l0.101-0.009
						c0.258,0,0.507-0.028,0.755-0.046C651.745,849.796,664.658,836.229,665.321,819.917z"/>
					
						<linearGradient id="SVGID_00000021805053527882568580000014624555815592034961_" gradientUnits="userSpaceOnUse" x1="334.688" y1="161.6528" x2="672.7174" y2="161.6528">
						<stop  offset="0" style="stop-color:#000000"/>
						<stop  offset="0.1045" style="stop-color:#141414"/>
						<stop  offset="0.2593" style="stop-color:#2C2C2C"/>
						<stop  offset="0.4027" style="stop-color:#3B3B3B"/>
						<stop  offset="0.5229" style="stop-color:#404040"/>
						<stop  offset="0.6306" style="stop-color:#393939"/>
						<stop  offset="0.7927" style="stop-color:#242424"/>
						<stop  offset="0.9882" style="stop-color:#020202"/>
						<stop  offset="1" style="stop-color:#000000"/>
					</linearGradient>
					<path style="fill:url(#SVGID_00000021805053527882568580000014624555815592034961_);" d="M672.69,181.658l0.028-0.064
						c0-21.258-16.607-38.777-37.828-39.891l-0.065-0.009c-0.672-0.028-1.363-0.046-2.054-0.046H367.275
						c-0.691,0-1.382,0.018-2.054,0.046l-0.092,0.009h-0.018c-0.866,0.046-1.713,0.12-2.56,0.221
						c-8.612,1.013-16.349,4.743-22.363,10.288c-3.5,6.107-5.499,13.217-5.499,20.788v8.594c0-9.892,4.421-18.799,11.44-24.795
						c5.213-4.449,11.854-7.295,19.195-7.728h0.175l0.239-0.028c0.562-0.018,1.068-0.028,1.538-0.028h265.496
						c0.424,0,0.884,0.009,1.391,0.028h0.009l0.332,0.018c16.846,0.884,30.137,14.461,30.819,31.187v-7.184
						c0-7.571-1.999-14.682-5.499-20.788C667.753,159.59,672.69,170.071,672.69,181.658z"/>
					
						<linearGradient id="SVGID_00000152222742903389316610000005467468049642771351_" gradientUnits="userSpaceOnUse" x1="327.3011" y1="499.9677" x2="334.935" y2="499.9677">
						<stop  offset="0" style="stop-color:#404040"/>
						<stop  offset="0.644" style="stop-color:#1A1A1A"/>
						<stop  offset="1" style="stop-color:#0A0A0A"/>
					</linearGradient>
					<path style="fill:url(#SVGID_00000152222742903389316610000005467468049642771351_);" d="M340.205,847.724
						c-7.94-7.35-12.904-17.841-12.904-29.317V181.594c0-11.587,4.937-22.069,12.867-29.382c-3.5,6.107-5.499,13.217-5.499,20.788
						V827C334.67,834.506,336.687,841.608,340.205,847.724z"/>
					
						<linearGradient id="SVGID_00000071559862509484902180000006717360246267956644_" gradientUnits="userSpaceOnUse" x1="659.8041" y1="500.059" x2="672.7081" y2="500.059">
						<stop  offset="0" style="stop-color:#0A0A0A"/>
						<stop  offset="0.356" style="stop-color:#1A1A1A"/>
						<stop  offset="1" style="stop-color:#404040"/>
					</linearGradient>
					<path style="fill:url(#SVGID_00000071559862509484902180000006717360246267956644_);" d="M672.708,181.685v636.812
						c0,3.942-0.589,7.774-1.676,11.394c-0.875,2.892-2.063,5.655-3.546,8.243c-0.304,0.534-0.626,1.059-0.949,1.575
						c-0.479,0.774-0.995,1.529-1.547,2.266c-1.529,2.109-3.27,4.071-5.186,5.839c0.018-0.028,0.028-0.046,0.046-0.074
						c3.491-6.097,5.49-13.171,5.49-20.65V173.092c0-7.571-1.999-14.682-5.499-20.788
						C667.771,159.617,672.708,170.098,672.708,181.685z"/>
				</g>
				<g>
					
						<linearGradient id="SVGID_00000135691578145002812540000013677169187807131266_" gradientUnits="userSpaceOnUse" x1="478.8156" y1="160.089" x2="521.1844" y2="160.089">
						<stop  offset="0" style="stop-color:#333333"/>
						<stop  offset="0.0901" style="stop-color:#2B2B2B"/>
						<stop  offset="0.2885" style="stop-color:#1E1E1E"/>
						<stop  offset="0.4787" style="stop-color:#1A1A1A"/>
						<stop  offset="0.7885" style="stop-color:#1C1C1C"/>
						<stop  offset="0.8999" style="stop-color:#232323"/>
						<stop  offset="0.9792" style="stop-color:#2E2E2E"/>
						<stop  offset="1" style="stop-color:#333333"/>
					</linearGradient>
					<path style="fill:url(#SVGID_00000135691578145002812540000013677169187807131266_);" d="M519.413,162.315h-38.827
						c-0.978,0-1.771-0.793-1.771-1.771v-0.91c0-0.978,0.793-1.771,1.771-1.771h38.827c0.978,0,1.771,0.793,1.771,1.771v0.91
						C521.184,161.522,520.391,162.315,519.413,162.315z"/>
				</g>
				<g>
					<defs>
						<path id="SVGID_00000170959775760637313070000010702035875572408485_" d="M634.512,155.063h-0.24l-0.359-0.037
							c-0.424-0.018-0.811-0.018-1.17-0.018h-38.307c-2.192,0.111-3.961,1.805-4.182,3.97c-0.009,0.147-0.018,0.295-0.018,0.451
							v0.055c-0.525,11.228-9.791,20.162-21.138,20.162h-65.395h-7.405h-65.395c-11.348,0-20.613-8.934-21.138-20.162v-0.055
							c0-0.157-0.009-0.304-0.018-0.451c-0.221-2.165-1.99-3.859-4.182-3.97h-38.307c-0.359,0-0.746,0-1.17,0.018l-0.359,0.037
							h-0.24c-13.945,0.912-24.832,12.517-24.832,26.536v636.812c0,13.779,10.758,25.43,24.482,26.508
							c0.138,0.009,0.249,0.018,0.359,0.028h0.092l0.074,0.009h0.157l0.055,0.009c0.46,0.018,0.921,0.037,1.382,0.037h129.04h7.405
							h129.041c0.461,0,0.921-0.018,1.382-0.037l0.055-0.009h0.157l0.074-0.009h0.092c0.11-0.009,0.221-0.018,0.359-0.028
							c13.724-1.078,24.482-12.729,24.482-26.508V181.598C659.344,167.58,648.456,155.975,634.512,155.063z"/>
					</defs>
					<clipPath id="SVGID_00000114059911653156526560000016523757418437844407_">
						<use xlink:href="#SVGID_00000170959775760637313070000010702035875572408485_"  style="overflow:visible;"/>
					</clipPath>
				</g>
			</g>
			
				<linearGradient id="SVGID_00000137099671881111944090000004204864834280227466_" gradientUnits="userSpaceOnUse" x1="255.6333" y1="255.6047" x2="744.3718" y2="744.3432">
				<stop  offset="0" style="stop-color:#2B2B2B"/>
				<stop  offset="0.123" style="stop-color:#202020"/>
				<stop  offset="0.3913" style="stop-color:#0E0E0E"/>
				<stop  offset="0.6755" style="stop-color:#030303"/>
				<stop  offset="1" style="stop-color:#000000"/>
			</linearGradient>
			<path style="fill:url(#SVGID_00000137099671881111944090000004204864834280227466_);" d="M659.344,181.595v636.817
				c0,6.034-2.061,11.646-5.517,16.159c-0.19,0.243-0.38,0.476-0.57,0.708c-0.592,0.708-1.205,1.385-1.849,2.029
				c-0.571,0.56-1.173,1.109-1.797,1.628H649.6c-0.782,0.644-1.606,1.247-2.462,1.807c-0.846,0.55-1.733,1.057-2.653,1.522h-0.011
				c-0.454,0.222-0.919,0.433-1.395,0.645c0,0,0,0-0.011,0c-0.465,0.201-0.951,0.38-1.437,0.56
				c-0.972,0.349-1.976,0.634-3.001,0.877c-1.226,0.275-2.484,0.465-3.773,0.571c-0.138,0.011-0.233,0.021-0.349,0.032h-0.095
				l-0.074,0.011h-0.18l-0.032,0.01c-0.116,0-0.243,0-0.359,0.011c-0.116,0-0.222,0.011-0.338,0.011c-0.232,0-0.465,0.01-0.687,0.01
				h-265.49c-0.222,0-0.454-0.01-0.687-0.01c-0.232-0.011-0.465-0.021-0.698-0.021l-0.042-0.01h-0.169l-0.074-0.011h-0.084
				c-0.116-0.011-0.222-0.021-0.359-0.032c-13.728-1.078-24.486-12.724-24.486-26.505V181.595c0-14.013,10.885-25.617,24.835-26.536
				h0.233l0.359-0.032c0.433-0.021,0.814-0.021,1.173-0.021h38.309c2.188,0.116,3.963,1.807,4.185,3.974
				c0.011,0.148,0.011,0.296,0.011,0.444v0.063c0,0.021,0,0.053,0.01,0.074c0.032,0.803,0.116,1.596,0.254,2.378
				c0.042,0.275,0.084,0.539,0.148,0.803c0,0.011,0,0.011,0,0.011c0.063,0.328,0.137,0.645,0.222,0.962
				c0.063,0.285,0.148,0.571,0.232,0.856c0.021,0.063,0.042,0.137,0.064,0.201c0.021,0.074,0.042,0.137,0.074,0.212
				c0.011,0.063,0.032,0.116,0.053,0.169c0.031,0.095,0.063,0.19,0.095,0.285c0.032,0.095,0.063,0.19,0.095,0.285
				c0.011,0.011,0.011,0.021,0.021,0.032c0.085,0.264,0.19,0.518,0.296,0.772c0.105,0.254,0.211,0.497,0.327,0.74
				c0.011,0.042,0.021,0.074,0.042,0.106c0.011,0.021,0.011,0.032,0.021,0.053c0.095,0.211,0.201,0.412,0.306,0.613
				c0.084,0.18,0.18,0.359,0.275,0.528c0.032,0.053,0.064,0.116,0.095,0.169c0.042,0.095,0.095,0.18,0.148,0.264
				c0.064,0.127,0.137,0.243,0.211,0.359c0.021,0.032,0.032,0.064,0.053,0.095c0.032,0.053,0.063,0.095,0.085,0.137
				c0.053,0.085,0.095,0.158,0.148,0.232c0.053,0.095,0.105,0.18,0.169,0.264c0.042,0.074,0.095,0.148,0.148,0.222
				c0.032,0.042,0.053,0.085,0.085,0.116c0.063,0.095,0.116,0.18,0.18,0.264c0.042,0.063,0.085,0.127,0.137,0.18
				c0.053,0.095,0.116,0.18,0.19,0.264c0.01,0.021,0.031,0.042,0.042,0.063c0.01,0.021,0.031,0.042,0.053,0.053
				c0.063,0.095,0.138,0.19,0.211,0.285c0.021,0.042,0.053,0.074,0.084,0.105c0.074,0.106,0.159,0.212,0.243,0.307h0.011
				c0.053,0.074,0.106,0.148,0.169,0.211c0.095,0.127,0.201,0.243,0.317,0.359c0.053,0.074,0.106,0.137,0.169,0.201h0.01
				c0.063,0.085,0.137,0.158,0.211,0.232c0.074,0.085,0.159,0.169,0.243,0.254c0.074,0.085,0.148,0.159,0.233,0.233
				c0.137,0.148,0.275,0.285,0.433,0.423c0.106,0.116,0.212,0.211,0.338,0.317c0.074,0.063,0.137,0.127,0.211,0.19
				c0.074,0.063,0.137,0.127,0.222,0.19c0.095,0.085,0.19,0.169,0.296,0.243v0.011c0.159,0.137,0.328,0.275,0.497,0.391
				c0.106,0.085,0.201,0.158,0.306,0.232c0.085,0.074,0.169,0.137,0.254,0.201c0.032,0.021,0.064,0.042,0.106,0.064
				c0,0.011,0.011,0.011,0.011,0.011c0.116,0.085,0.233,0.169,0.359,0.243c0.053,0.053,0.106,0.085,0.159,0.116
				c0.074,0.053,0.148,0.106,0.222,0.159c0.011,0,0.011,0.011,0.021,0.011c0.116,0.074,0.232,0.148,0.359,0.211
				c0.158,0.116,0.317,0.211,0.476,0.296c0.201,0.127,0.401,0.243,0.613,0.338c0.074,0.053,0.159,0.095,0.233,0.137
				c0.021,0.011,0.031,0.021,0.053,0.021c0.148,0.085,0.296,0.159,0.455,0.232c0.127,0.074,0.264,0.137,0.412,0.201
				c0.116,0.064,0.243,0.116,0.37,0.169c0.063,0.032,0.127,0.064,0.201,0.085c0.053,0.031,0.105,0.053,0.169,0.074
				c0.053,0.032,0.116,0.053,0.169,0.074c0.275,0.116,0.539,0.211,0.814,0.307c0.148,0.063,0.306,0.116,0.465,0.169
				c0.148,0.053,0.296,0.095,0.444,0.137v0.011c0.106,0.032,0.212,0.063,0.328,0.095c0.222,0.063,0.454,0.127,0.677,0.18
				c0.053,0.021,0.106,0.032,0.148,0.042c0.296,0.074,0.581,0.137,0.877,0.201c0.233,0.053,0.465,0.095,0.698,0.127
				c0.116,0.021,0.232,0.042,0.349,0.053v0.011c0.031,0,0.063,0.011,0.095,0.011c0.254,0.042,0.518,0.074,0.782,0.095
				c0.063,0.01,0.116,0.01,0.18,0.021c0.021,0.011,0.042,0.011,0.063,0.011c0.116,0.01,0.243,0.021,0.359,0.032
				c0.064,0.011,0.137,0.011,0.201,0.011c0.169,0.021,0.338,0.032,0.507,0.032c0.254,0.021,0.507,0.032,0.761,0.021
				c0.084,0.01,0.18,0.01,0.275,0.01h138.187c0.095,0,0.19,0,0.275-0.01c0.254,0.01,0.507,0,0.761-0.021
				c0.169,0,0.338-0.011,0.507-0.032c0.063,0,0.137,0,0.201-0.011c0.116-0.011,0.243-0.021,0.359-0.032c0.021,0,0.042,0,0.064-0.011
				c0.063-0.011,0.116-0.011,0.18-0.021c0.264-0.021,0.528-0.053,0.782-0.095c0.031,0,0.063-0.011,0.095-0.011v-0.011
				c0.116-0.011,0.233-0.032,0.349-0.053c0.232-0.032,0.465-0.074,0.697-0.127c0.296-0.063,0.581-0.127,0.877-0.201
				c0.042-0.011,0.095-0.021,0.148-0.042c0.222-0.053,0.455-0.116,0.677-0.18c0.116-0.032,0.222-0.063,0.328-0.095v-0.011
				c0.148-0.042,0.296-0.084,0.444-0.137c0.158-0.053,0.317-0.106,0.465-0.169c0.275-0.095,0.539-0.19,0.814-0.307
				c0.053-0.021,0.116-0.042,0.169-0.074c0.063-0.021,0.116-0.042,0.169-0.074c0.074-0.021,0.137-0.053,0.201-0.085
				c0.127-0.053,0.254-0.106,0.37-0.169c0.148-0.063,0.285-0.127,0.412-0.201c0.158-0.074,0.307-0.148,0.454-0.232
				c0.021,0,0.032-0.011,0.053-0.021c0.074-0.042,0.158-0.084,0.232-0.137c0.211-0.095,0.412-0.211,0.613-0.338
				c0.159-0.085,0.317-0.179,0.476-0.296c0.127-0.063,0.243-0.137,0.359-0.211c0.01,0,0.01-0.011,0.021-0.011
				c0.074-0.053,0.148-0.106,0.222-0.159c0.053-0.031,0.105-0.063,0.158-0.116c0.127-0.074,0.243-0.158,0.359-0.243
				c0,0,0.011,0,0.011-0.011c0.042-0.021,0.074-0.042,0.106-0.064c0.085-0.063,0.169-0.127,0.254-0.201
				c0.105-0.074,0.201-0.148,0.306-0.232c0.169-0.116,0.338-0.254,0.497-0.391V174.8c0.106-0.074,0.201-0.158,0.296-0.243
				c0.085-0.063,0.148-0.127,0.222-0.19c0.074-0.063,0.137-0.127,0.211-0.19c0.127-0.106,0.233-0.201,0.338-0.317
				c0.159-0.137,0.296-0.275,0.433-0.423c0.084-0.074,0.158-0.148,0.232-0.233c0.085-0.084,0.169-0.169,0.243-0.254
				c0.074-0.074,0.148-0.148,0.211-0.232h0.011c0,0,0.01-0.011,0.01-0.021c0.116-0.116,0.233-0.243,0.328-0.38
				c0.063-0.053,0.106-0.106,0.148-0.159c0.063-0.063,0.116-0.137,0.169-0.211h0.01c0.085-0.095,0.169-0.201,0.243-0.307
				c0.032-0.032,0.063-0.063,0.085-0.105c0.074-0.095,0.148-0.19,0.212-0.285c0.021-0.011,0.042-0.032,0.053-0.053
				c0.011-0.021,0.032-0.042,0.042-0.063c0.074-0.085,0.137-0.169,0.19-0.264c0.053-0.053,0.095-0.116,0.137-0.18
				c0.063-0.085,0.116-0.169,0.18-0.264c0.032-0.042,0.064-0.074,0.085-0.116c0.053-0.074,0.106-0.148,0.148-0.222
				c0.064-0.084,0.116-0.169,0.169-0.264c0.053-0.074,0.095-0.148,0.148-0.232c0.032-0.053,0.063-0.095,0.085-0.137
				c0.021-0.032,0.032-0.063,0.053-0.095c0.074-0.116,0.148-0.232,0.212-0.359c0.053-0.085,0.106-0.169,0.148-0.264
				c0.042-0.064,0.074-0.116,0.095-0.169c0.095-0.169,0.19-0.349,0.275-0.528c0.106-0.201,0.211-0.402,0.307-0.613
				c0.01-0.021,0.01-0.032,0.021-0.053c0.021-0.032,0.032-0.063,0.042-0.106c0.116-0.243,0.222-0.486,0.328-0.74
				c0.106-0.254,0.212-0.507,0.296-0.772c0.011-0.011,0.011-0.021,0.021-0.032c0.032-0.095,0.063-0.19,0.095-0.285
				c0.031-0.095,0.063-0.19,0.095-0.285c0.021-0.053,0.042-0.106,0.053-0.169c0.032-0.074,0.053-0.148,0.074-0.212
				c0.021-0.074,0.042-0.137,0.064-0.201c0.084-0.285,0.169-0.571,0.232-0.856c0.084-0.317,0.158-0.634,0.222-0.962c0,0,0,0,0-0.011
				c0.063-0.264,0.106-0.528,0.148-0.803c0.138-0.782,0.222-1.575,0.254-2.378c0.011-0.021,0.011-0.053,0.011-0.074v-0.063
				c0-0.148,0.011-0.296,0.011-0.444c0.222-2.167,1.997-3.857,4.185-3.974h38.309c0.359,0,0.75,0,1.173,0.021l0.127,0.011
				l0.232,0.021h0.233c0.232,0.011,0.465,0.032,0.697,0.063c0.116,0,0.232,0.01,0.349,0.032c0.232,0.021,0.465,0.042,0.697,0.084
				c0.275,0.032,0.55,0.063,0.824,0.116c0.011,0,0.032,0,0.042,0.011c0.401,0.064,0.793,0.137,1.183,0.211
				c0.074,0.021,0.148,0.042,0.222,0.053c0.328,0.074,0.645,0.148,0.962,0.232c0.465,0.127,0.93,0.264,1.395,0.412
				c0.37,0.116,0.74,0.243,1.099,0.37c0.391,0.148,0.782,0.307,1.163,0.465c0.761,0.328,1.511,0.687,2.24,1.078
				c0.655,0.359,1.31,0.74,1.934,1.152c0.138,0.095,0.275,0.19,0.423,0.285c0.254,0.18,0.507,0.359,0.761,0.539
				c0.327,0.243,0.655,0.497,0.972,0.75c0.634,0.518,1.247,1.057,1.828,1.628c0.296,0.285,0.581,0.581,0.856,0.877
				c0.275,0.296,0.549,0.602,0.814,0.909c1.057,1.247,2.008,2.589,2.832,4.005c0.412,0.708,0.782,1.448,1.131,2.198
				c0.338,0.75,0.655,1.511,0.93,2.304c0.138,0.391,0.264,0.782,0.381,1.184c0.254,0.867,0.475,1.744,0.634,2.642
				c0.074,0.349,0.127,0.708,0.18,1.067C659.249,178.985,659.344,180.285,659.344,181.595z"/>
		</g>
	</g>
</g>
</svg>
