<?xml version="1.0" encoding="utf-8"?>
<!-- Generator: Adobe Illustrator 27.5.0, SVG Export Plug-In . SVG Version: 6.00 Build 0)  -->
<svg version="1.1" id="Layer_1" xmlns="http://www.w3.org/2000/svg" xmlns:xlink="http://www.w3.org/1999/xlink" x="0px" y="0px"
	 viewBox="0 0 150.944 200" style="enable-background:new 0 0 150.944 200;" xml:space="preserve">
<g>
	<g id="XMLID_11290_">
		<g id="XMLID_11529_">
			<path style="fill:#39A1FF;" d="M127.867,82.978L29.072,25.938c-0.875-0.505-1.678-0.562-2.313-0.252l-0.018,0.007
				c-0.012,0.006-0.024,0.01-0.035,0.016c-3.595,1.611-6.086,3.584-6.086,3.584l4.743,4.626v70.924c0,2.731,1.66,5.903,3.708,7.086
				l95.965,55.406l-3.343,1.651l2.422,3.79c0,0,2.967-0.812,6.326-3.712c0.698-0.496,1.133-1.503,1.133-2.899V90.064
				C131.575,87.333,129.915,84.16,127.867,82.978z"/>
			<path style="fill:#150035;" d="M123.892,173.356l-2.921-4.572l3.005-1.484l-95.155-54.938c-2.219-1.28-3.959-4.584-3.959-7.518
				V34.131l-4.999-4.875l0.446-0.353c0.104-0.082,2.581-2.031,6.192-3.649c0.848-0.412,1.837-0.317,2.82,0.252l98.795,57.039
				c2.22,1.282,3.959,4.585,3.959,7.519v76.102c0,1.517-0.477,2.691-1.344,3.307c-3.369,2.911-6.359,3.752-6.484,3.787
				L123.892,173.356z M122.416,169.188l1.912,2.993c0.861-0.305,3.215-1.275,5.787-3.494c0.623-0.446,0.959-1.354,0.959-2.52V90.063
				c0-2.567-1.551-5.551-3.458-6.652L28.821,26.372c-0.697-0.403-1.335-0.485-1.843-0.236c-2.665,1.194-4.717,2.58-5.589,3.21
				l4.475,4.363v71.135c0,2.568,1.551,5.551,3.458,6.652l96.775,55.873L122.416,169.188z"/>
		</g>
		<g id="XMLID_11515_">
			<polygon style="fill:#150035;" points="25.403,40.79 25.403,66.99 86.288,102.703 124.153,80.811 40.119,32.294 			"/>
			<path style="fill:#150035;" d="M86.286,103.282L24.902,67.276V40.501l15.216-8.785l85.035,49.095L86.286,103.282z M25.904,66.704
				l60.385,35.421l36.863-21.313l-83.034-47.94l-14.215,8.207V66.704z"/>
		</g>
		<g id="XMLID_11509_">
			<polygon style="fill:#150035;" points="24.127,32.758 25.319,33.92 25.319,36.215 35.826,29.864 30.72,26.916 24.615,30.378 			
				"/>
			<path style="fill:#150035;" d="M24.819,37.103v-2.972l-1.236-1.206l0.588-2.87l6.551-3.716l6.088,3.515L24.819,37.103z
				 M24.673,32.59l1.147,1.118v1.619l9.023-5.454l-4.126-2.381l-5.658,3.209L24.673,32.59z"/>
		</g>
		<g id="XMLID_11491_">
			<path style="fill:#39A1FF;" d="M102.236,168.562c-0.194-0.942-0.839-1.73-1.672-2.211l-3.838-2.216
				c-3.91-2.258-7.11-7.799-7.11-12.314v-25.473c0-0.032-0.017-0.061-0.045-0.077l-3.865-2.231c-0.07-0.04-0.149,0.025-0.126,0.102
				c0.302,1.005,0.473,2.014,0.473,2.972v18.455c0,1.138-0.241,2.07-0.658,2.779l-0.393-3.016c-0.006-0.048-0.05-0.083-0.099-0.077
				l-8.023,0.935c-0.032,0.004-0.063-0.009-0.083-0.035c-1.713-2.224-2.857-5.075-2.857-7.579v-18.454
				c0-0.99,0.183-1.824,0.504-2.491c0.02-0.041,0.005-0.089-0.035-0.112l-3.898-2.251c-0.059-0.034-0.134,0.009-0.134,0.077v25.267
				c0,4.572-3.24,6.447-7.199,4.161l-3.999-2.309c-0.418-0.242-0.713-0.298-0.982-0.13l-0.082,0.041c0,0-3.652,1.453-7.481,4.356
				c-0.045,0.034-0.049,0.102-0.006,0.14l3.015,2.691l0.016,0.011l36.959,20.525l0.025,0.02l3.62,4.247
				c0.024,0.029,0.058,0.041,0.093,0.028c0.535-0.198,5.002-1.905,7.628-4.49C102.246,169.658,102.369,169.204,102.236,168.562z"/>
			<path style="fill:#150035;" d="M94.328,174.899c-0.167,0-0.33-0.074-0.447-0.212l-3.571-4.188l-36.992-20.564l-3.198-2.849
				l-0.02-0.306c0.007-0.177,0.093-0.341,0.234-0.448c3.841-2.912,7.445-4.362,7.597-4.422l0.045-0.024
				c0.509-0.322,1.077-0.073,1.455,0.145l3.998,2.303c1.753,1.01,3.381,1.186,4.584,0.493c1.202-0.694,1.864-2.192,1.864-4.217
				v-25.267c0-0.209,0.113-0.405,0.294-0.51c0.18-0.104,0.408-0.107,0.588-0.002l3.902,2.253c0.266,0.15,0.369,0.477,0.237,0.758
				c-0.303,0.629-0.456,1.394-0.456,2.278v18.455c0,2.253,0.974,4.887,2.613,7.09l7.791-0.908c0.307-0.042,0.608,0.187,0.653,0.504
				l0.054,0.417c0.001-0.036,0.001-18.564,0.001-18.564c0-0.879-0.152-1.83-0.451-2.827c-0.071-0.232,0.006-0.48,0.195-0.631
				c0.189-0.15,0.448-0.171,0.658-0.05l3.867,2.233c0.18,0.102,0.295,0.299,0.295,0.511v25.473c0,4.367,3.077,9.697,6.859,11.882
				l3.838,2.215c1.002,0.578,1.699,1.505,1.912,2.544c0.215,1.044-0.157,1.58-0.398,1.806c-2.694,2.651-7.282,4.403-7.797,4.594
				C94.465,174.887,94.396,174.899,94.328,174.899z M53.939,149.153l37.007,20.553l3.511,4.112c1.121-0.439,4.891-2.022,7.178-4.272
				c0.157-0.148,0.196-0.475,0.112-0.883c-0.157-0.759-0.678-1.443-1.432-1.879l-3.838-2.215c-4.058-2.343-7.36-8.062-7.36-12.748
				v-25.236l-2.805-1.62c0.162,0.744,0.244,1.463,0.244,2.147v18.455c0,1.193-0.245,2.213-0.727,3.033l-0.739,1.256l-0.529-4.06
				l-7.621,0.888c-0.198,0.024-0.408-0.061-0.535-0.222c-1.857-2.412-2.964-5.36-2.964-7.889v-18.455c0-0.879,0.135-1.669,0.4-2.353
				l-2.962-1.711v24.555c0,2.398-0.84,4.203-2.365,5.084c-1.526,0.88-3.507,0.706-5.585-0.494l-3.999-2.303
				c-0.353-0.204-0.435-0.158-0.466-0.138l-0.126,0.064c-0.07,0.03-3.421,1.381-7,4.009L53.939,149.153z"/>
		</g>
		<g id="XMLID_11485_">
			<path style="fill:#1A0E33;" d="M102.236,168.663c-0.097-0.474-0.017-0.532-0.309-0.908c-3.72,3.111-7.648,4.25-7.648,4.25
				l-1.9,0.25l1.884,2.211c0.024,0.028,0.058,0.041,0.093,0.028c0.535-0.198,5.002-1.905,7.628-4.49
				C102.246,169.758,102.369,169.305,102.236,168.663z"/>
			<path style="fill:#150035;" d="M94.328,175c-0.167,0-0.33-0.074-0.447-0.212l-2.481-2.909l2.814-0.37
				c-0.022,0,3.809-1.143,7.392-4.138l0.399-0.333l0.318,0.411c0.281,0.364,0.319,0.557,0.359,0.842
				c0.011,0.073,0.022,0.159,0.045,0.272c0.215,1.044-0.158,1.58-0.398,1.806c-2.694,2.651-7.282,4.403-7.797,4.594
				C94.465,174.988,94.396,175,94.328,175z M93.356,172.628l1.101,1.291c1.121-0.439,4.891-2.022,7.178-4.272
				c0.157-0.148,0.196-0.475,0.112-0.884c-0.014-0.071-0.026-0.134-0.035-0.19c-3.584,2.814-7.135,3.867-7.292,3.912L93.356,172.628
				z"/>
		</g>
		<g id="XMLID_11445_">
			<path style="fill:#FFFFFF;" d="M90.443,170.051l0.025,0.02l0.977,1.146l8.771-5.012l-3.665-2.116
				c-0.558-0.323-1.1-0.718-1.622-1.162c-3.646,2.079-7.193,4.028-8.638,4.818L90.443,170.051z"/>
			<path style="fill:#150035;" d="M91.332,171.858l-1.197-1.405l-4.881-2.711l9.732-5.422l0.267,0.227
				c0.525,0.447,1.046,0.82,1.548,1.11l4.419,2.551L91.332,171.858z M87.327,167.748l3.512,1.987l0.718,0.842l7.654-4.374
				l-2.911-1.68c-0.466-0.269-0.944-0.601-1.424-0.989C91.88,165.239,88.974,166.844,87.327,167.748z"/>
		</g>
		<g id="XMLID_11422_">
			<path style="fill:#FFFFFF;" d="M63.179,144.772l-3.999-2.309c-0.418-0.242-0.713-0.298-0.982-0.13l-0.082,0.041
				c0,0-3.652,1.453-7.481,4.356c-0.045,0.034-0.049,0.102-0.006,0.14l3.015,2.691l0.016,0.011l0.389,0.591L63.179,144.772z"/>
			<path style="fill:#150035;" d="M53.896,150.836l-0.611-0.92l-3.164-2.83l-0.02-0.306c0.007-0.178,0.091-0.342,0.234-0.448
				c3.836-2.909,7.445-4.362,7.597-4.422l0.045-0.024c0.509-0.322,1.077-0.074,1.455,0.145l4.74,2.742L53.896,150.836z
				 M53.939,149.153l0.064,0.036l0.201,0.302l7.982-4.71l-3.257-1.885c-0.353-0.204-0.435-0.158-0.466-0.138l-0.126,0.064
				c-0.07,0.03-3.421,1.381-7,4.009L53.939,149.153z"/>
		</g>
		<g id="XMLID_11400_">
			<path style="fill:#150035;" d="M89.617,151.821v-9.861c-1.646-0.563-2.881-0.971-3.016-0.971c-0.051,0-0.248,0.05-0.547,0.136
				v4.442c0,1.138-0.24,2.07-0.658,2.779l-0.393-3.016c-0.006-0.048-0.05-0.083-0.099-0.077l-8.023,0.935
				c-0.032,0.004-0.063-0.009-0.083-0.035c-0.411-0.534-0.787-1.105-1.124-1.697c-0.222,0.073-0.352,0.116-0.352,0.116l0.876,17.223
				l4.231,2.557l0.115,0.15l3.446,1.914l0.501-0.639c0,0,4.261-2.332,8.549-4.978C90.994,158.172,89.617,154.779,89.617,151.821z"/>
			<path style="fill:#150035;" d="M84.12,167.061l-3.911-2.173l-0.12-0.158l-4.378-2.645l-0.91-17.869l1.104-0.363l0.202,0.355
				c0.293,0.514,0.611,1.003,0.947,1.456l7.791-0.908c0.307-0.042,0.608,0.187,0.653,0.504l0.054,0.417
				c0.001-0.037,0.001-4.929,0.001-4.929l0.363-0.104c0.501-0.144,0.6-0.155,0.684-0.155c0.129,0,0.262,0,3.178,0.998l0.339,0.116
				v10.218c0,2.721,1.271,6.043,3.318,8.67l0.343,0.441l-0.475,0.293c-3.908,2.411-7.84,4.587-8.481,4.941L84.12,167.061z
				 M80.879,164.115l2.981,1.656l0.301-0.383l0.09-0.05c0.041-0.023,3.99-2.187,8.059-4.677c-2.007-2.749-3.193-6.016-3.193-8.839
				v-9.503c-1.778-0.605-2.347-0.778-2.521-0.821c-0.012,0.003-0.026,0.006-0.041,0.01v4.06c0,1.193-0.245,2.213-0.727,3.033
				l-0.739,1.256l-0.529-4.06l-7.621,0.888c-0.196,0.026-0.407-0.06-0.535-0.222c-0.179-0.233-0.353-0.475-0.522-0.724l0.803,15.765
				L80.879,164.115z"/>
		</g>
		<g id="XMLID_11379_">
			<path style="fill:#39A1FF;" d="M93.292,170.889l-4.132-2.386c-3.902-2.253-7.065-7.731-7.065-12.237v-25.576l-4.102-2.368
				c0.343,1.076,0.539,2.159,0.539,3.185v18.454c0,3.863-2.712,5.428-6.057,3.497c-3.345-1.931-6.057-6.628-6.057-10.491v-18.454
				c0-1.025,0.196-1.883,0.539-2.562l-4.102-2.368v25.576c0,4.506-3.163,6.332-7.065,4.079l-4.132-2.386
				c-0.815-0.471-1.476-0.089-1.476,0.852c0,0.941,0.661,2.086,1.476,2.556l41.634,24.038c0.815,0.471,1.476,0.089,1.476-0.852
				C94.768,172.504,94.107,171.359,93.292,170.889z"/>
			<path style="fill:#150035;" d="M93.954,174.998c-0.292,0-0.604-0.089-0.913-0.268l-41.634-24.038
				c-0.968-0.559-1.726-1.872-1.726-2.989c0-0.632,0.249-1.139,0.683-1.39c0.432-0.252,0.996-0.214,1.544,0.104l4.132,2.387
				c1.725,0.995,3.322,1.171,4.495,0.495c1.173-0.678,1.819-2.148,1.819-4.141v-26.444l5.263,3.039l-0.214,0.423
				c-0.322,0.636-0.485,1.422-0.485,2.336v18.454c0,3.698,2.605,8.209,5.806,10.057c1.457,0.841,2.8,0.992,3.782,0.424
				c0.983-0.567,1.523-1.805,1.523-3.487v-18.455c0-0.941-0.173-1.962-0.515-3.033l-0.394-1.232l5.474,3.16v25.865
				c0,4.339,3.056,9.634,6.814,11.804l4.132,2.386c0.968,0.559,1.726,1.872,1.726,2.99c0,0.632-0.249,1.138-0.683,1.389
				C94.396,174.944,94.181,174.998,93.954,174.998z M50.999,147.149c-0.053,0-0.099,0.01-0.135,0.032
				c-0.114,0.066-0.182,0.261-0.182,0.523c0,0.767,0.561,1.738,1.226,2.123l41.635,24.038c0.225,0.13,0.429,0.168,0.543,0.103
				c0.114-0.065,0.182-0.261,0.182-0.522c0-0.767-0.561-1.739-1.226-2.123l-4.132-2.386c-4.033-2.329-7.315-8.012-7.315-12.671
				v-25.287l-2.805-1.62c0.161,0.744,0.243,1.463,0.243,2.148v18.455c0,2.054-0.719,3.601-2.024,4.354
				c-1.305,0.754-3.005,0.603-4.784-0.425c-3.478-2.007-6.307-6.908-6.307-10.924v-18.454c0-0.88,0.135-1.669,0.4-2.354l-2.962-1.71
				v24.71c0,2.366-0.824,4.144-2.32,5.007c-1.496,0.865-3.448,0.689-5.497-0.495l-4.132-2.387
				C51.253,147.196,51.111,147.149,50.999,147.149z"/>
		</g>
		<g id="XMLID_11364_">
			<path style="fill:#FFFFFF;" d="M66.402,124.571v18.454c0,3.862,2.712,8.559,6.057,10.491c3.345,1.931,6.057,0.366,6.057-3.497
				v-18.455c0-1.025-0.196-2.109-0.539-3.185l2.15,1.241v-7.065H66.711C66.512,123.132,66.402,123.804,66.402,124.571z"/>
			<path style="fill:#150035;" d="M75.165,154.847c-0.918,0-1.924-0.301-2.957-0.898c-3.478-2.008-6.307-6.908-6.307-10.924v-18.454
				c0-0.801,0.114-1.533,0.336-2.177l0.117-0.338h14.274v8.432l-1.854-1.071c0.162,0.744,0.244,1.462,0.244,2.147v18.455
				c0,2.054-0.72,3.601-2.025,4.354C76.445,154.689,75.828,154.847,75.165,154.847z M67.082,123.058
				c-0.119,0.456-0.179,0.964-0.179,1.514v18.454c0,3.697,2.604,8.209,5.806,10.057c1.456,0.84,2.797,0.993,3.783,0.424
				c0.983-0.567,1.523-1.805,1.523-3.487v-18.455c0-0.939-0.173-1.96-0.515-3.032l-0.393-1.232l2.519,1.455v-5.697H67.082z"/>
		</g>
		<g id="XMLID_11357_">
			<path style="fill:#150035;" d="M75.322,122.557h-8.611c-0.199,0.575-0.308,1.247-0.308,2.014v18.454
				c0,2.87,1.499,6.198,3.64,8.513c2.157,0.175,3.668-1.426,3.668-4.309v-18.454c0-1.025-0.196-2.109-0.539-3.185l2.15,1.242
				V122.557z"/>
			<path style="fill:#150035;" d="M70.36,152.052c-0.118,0-0.238-0.005-0.359-0.015l-0.194-0.016l-0.133-0.143
				c-2.292-2.477-3.773-5.952-3.773-8.853v-18.454c0-0.8,0.114-1.533,0.336-2.177l0.117-0.338h9.468v5.642l-1.854-1.071
				c0.162,0.744,0.244,1.463,0.244,2.147v18.454c0,1.7-0.489,3.05-1.416,3.905C72.14,151.738,71.304,152.052,70.36,152.052z
				 M70.274,151.05c0.736,0.025,1.36-0.205,1.843-0.652c0.716-0.66,1.093-1.755,1.093-3.169v-18.454
				c0-0.939-0.173-1.959-0.515-3.033l-0.393-1.232l2.518,1.454v-2.907h-7.739c-0.119,0.456-0.179,0.964-0.179,1.514v18.454
				C66.903,145.631,68.221,148.759,70.274,151.05z"/>
		</g>
		<g id="XMLID_11351_">
			<path style="fill:#39A1FF;" d="M68.459,123.572v18.455c0,3.862,2.712,8.559,6.057,10.491c1.079,0.623,2.09,0.877,2.967,0.813
				c0.652-0.739,1.033-1.864,1.033-3.31v-18.455c0-1.025-0.196-2.109-0.539-3.185l2.15,1.241v-1.912
				c-0.032-0.109-0.058-0.219-0.093-0.328l0.093,0.054v-4.878H68.532C68.485,122.875,68.459,123.212,68.459,123.572z"/>
			<path style="fill:#150035;" d="M77.22,153.839c-0.927,0-1.942-0.304-2.954-0.888c-3.478-2.008-6.307-6.909-6.307-10.924v-18.455
				c0-0.366,0.026-0.731,0.077-1.086l0.062-0.429h12.529v8.432l-1.854-1.071c0.162,0.744,0.244,1.462,0.244,2.147v18.455
				c0,1.523-0.401,2.781-1.158,3.641l-0.135,0.153l-0.204,0.015C77.421,153.836,77.321,153.839,77.22,153.839z M68.98,123.058
				c-0.014,0.169-0.02,0.34-0.02,0.514v18.455c0,3.697,2.605,8.209,5.806,10.058c0.867,0.5,1.711,0.743,2.472,0.754
				c0.509-0.672,0.777-1.641,0.777-2.819v-18.455c0-0.939-0.173-1.96-0.515-3.032l-0.393-1.232l2.519,1.455l-0.015-1.034
				c-0.017-0.062-0.034-0.124-0.053-0.186l-0.399-1.232l0.468,0.268v-3.514H68.98z"/>
		</g>
		<g id="XMLID_11345_">
			<path style="fill:#150035;" d="M103.945,99.989l-1.132,54.751l21.717,12.538l7.045-4.041V90.298c0-1.748-0.682-3.674-1.709-5.146
				L103.945,99.989z"/>
			<path style="fill:#150035;" d="M124.53,167.855l-22.223-12.831l1.144-55.33l26.565-15.205l0.262,0.376
				c1.127,1.615,1.799,3.646,1.799,5.433v73.229L124.53,167.855z M103.32,154.453l21.211,12.247l6.543-3.753V90.298
				c0-1.453-0.505-3.096-1.366-4.478l-25.269,14.462L103.32,154.453z"/>
		</g>
		<g id="XMLID_11339_">
			<path style="fill:#FFFFFF;" d="M121.872,172.495l-98.795-57.04c-2.048-1.182-3.708-4.355-3.708-7.086V32.268
				c0-2.731,1.66-3.986,3.708-2.803l98.795,57.04c2.048,1.182,3.709,4.355,3.709,7.086v76.102
				C125.581,172.423,123.92,173.678,121.872,172.495z"/>
			<path style="fill:#150035;" d="M123.347,173.441c-0.548,0-1.135-0.171-1.725-0.513l-98.795-57.04
				c-2.22-1.281-3.959-4.584-3.959-7.518V32.268c0-1.619,0.559-2.871,1.532-3.433c0.833-0.482,1.872-0.413,2.927,0.196l98.795,57.04
				c2.22,1.282,3.959,4.585,3.959,7.52v76.101c0,1.62-0.559,2.871-1.533,3.433C124.182,173.336,123.776,173.441,123.347,173.441z
				 M21.607,29.518c-0.238,0-0.478,0.052-0.705,0.184c-0.656,0.379-1.032,1.314-1.032,2.566v76.102c0,2.567,1.551,5.551,3.458,6.652
				l98.795,57.04c0.517,0.297,1.267,0.573,1.926,0.195c0.656-0.379,1.032-1.314,1.032-2.566V93.59c0-2.567-1.551-5.551-3.458-6.653
				l-98.795-57.04C22.49,29.703,22.052,29.518,21.607,29.518z"/>
		</g>
		<g id="XMLID_11333_">
			<path style="fill:#39A1FF;" d="M121.539,164.412L23.41,107.757c-0.585-0.338-1.059-1.244-1.059-2.025V33.839
				c0-0.78,0.474-1.139,1.059-0.801l98.129,56.655c0.585,0.338,1.059,1.244,1.059,2.025v71.894
				C122.599,164.391,122.124,164.75,121.539,164.412z"/>
			<path style="fill:#150035;" d="M121.967,165.038c-0.22,0-0.455-0.063-0.678-0.192L23.16,108.19
				c-0.735-0.423-1.311-1.503-1.311-2.457V33.839c0-0.594,0.225-1.064,0.617-1.29c0.35-0.203,0.784-0.18,1.195,0.056l98.129,56.655
				c0.734,0.424,1.31,1.504,1.31,2.458v71.894c0,0.594-0.225,1.065-0.616,1.29C122.324,164.994,122.151,165.038,121.967,165.038z
				 M121.79,163.979c0.104,0.059,0.175,0.065,0.193,0.056c0.03-0.017,0.116-0.133,0.116-0.424V91.717
				c0-0.599-0.378-1.342-0.809-1.591L23.16,33.471c-0.104-0.061-0.174-0.066-0.193-0.056c-0.03,0.017-0.116,0.133-0.116,0.424
				v71.894c0,0.598,0.378,1.342,0.809,1.59L121.79,163.979z"/>
		</g>
		<g id="XMLID_11327_">
			<path style="fill:#150035;" d="M122.46,163.842l-98.129-56.655c-0.585-0.338-1.06-1.244-1.06-2.024V33.269
				c0-0.105,0.01-0.201,0.026-0.29c-0.525-0.219-0.934,0.134-0.934,0.857v71.894c0,0.78,0.474,1.687,1.059,2.024l98.129,56.655
				c0.507,0.292,0.929,0.062,1.033-0.511C122.544,163.88,122.503,163.867,122.46,163.842z"/>
			<path style="fill:#150035;" d="M121.967,165.038c-0.219,0-0.442-0.067-0.665-0.196l-98.129-56.655
				c-0.734-0.423-1.31-1.503-1.31-2.457V33.835c0-0.565,0.198-1.009,0.557-1.248c0.308-0.204,0.688-0.23,1.07-0.071l0.374,0.156
				l-0.075,0.398c-0.011,0.061-0.017,0.127-0.017,0.199v71.894c0,0.599,0.378,1.343,0.809,1.592l98.129,56.655l-0.009,0.016
				l-0.148,0.46l0.226-0.449l0.372,0.156l-0.072,0.396c-0.083,0.455-0.32,0.793-0.666,0.953
				C122.273,165.004,122.12,165.038,121.967,165.038z M22.873,105.892c0.059,0.564,0.407,1.202,0.801,1.429l0.041,0.023
				C23.331,106.982,23.024,106.45,22.873,105.892z"/>
		</g>
		<g id="XMLID_11321_">
			<path style="fill:#150035;" d="M76.025,142.722l-7.102-4.101c-0.317-0.183-0.574-0.674-0.574-1.097
				c0-0.423,0.257-0.617,0.574-0.434l7.102,4.1c0.317,0.183,0.574,0.674,0.574,1.097C76.6,142.711,76.343,142.905,76.025,142.722z"
				/>
			<path style="fill:#150035;" d="M76.255,143.291c-0.159,0-0.322-0.045-0.479-0.135l-7.103-4.101
				c-0.47-0.272-0.824-0.93-0.824-1.53c0-0.406,0.164-0.733,0.449-0.898c0.262-0.153,0.58-0.141,0.876,0.03l7.103,4.101
				c0.469,0.27,0.824,0.928,0.824,1.53c0,0.405-0.164,0.732-0.448,0.897C76.529,143.256,76.394,143.291,76.255,143.291z
				 M68.858,137.631c0.038,0.237,0.188,0.484,0.316,0.558l6.916,3.993c-0.037-0.237-0.187-0.484-0.314-0.556L68.858,137.631z"/>
		</g>
		
			<rect x="68.353" y="148.314" transform="matrix(0.8672 -0.498 0.498 0.8672 -64.8668 54.1892)" style="fill:#39A1FF;" width="1.604" height="0.77"/>
		
			<rect x="22.838" y="104.946" transform="matrix(0.8658 -0.5004 0.5004 0.8658 -49.3071 26.7974)" style="fill:#39A1FF;" width="4.944" height="0.769"/>
		
			<rect x="115.648" y="159.088" transform="matrix(0.8658 -0.5004 0.5004 0.8658 -63.9438 80.5013)" style="fill:#39A1FF;" width="4.945" height="0.769"/>
		<g id="XMLID_11294_">
			<g id="XMLID_11301_">
				<path style="fill:#150035;" d="M129.313,149.099l-1.504,0.868c-0.266,0.154-0.482-0.009-0.482-0.364v-3.998
					c0-0.355,0.216-0.767,0.482-0.92l1.504-0.868c0.266-0.154,0.482,0.01,0.482,0.364v3.998
					C129.795,148.533,129.579,148.945,129.313,149.099z"/>
				<path style="fill:#39A1FF;" d="M127.617,150.41c-0.111,0-0.218-0.028-0.315-0.084c-0.228-0.132-0.359-0.395-0.359-0.723v-3.998
					c0-0.493,0.289-1.032,0.674-1.253l1.505-0.868c0.236-0.137,0.492-0.147,0.7-0.025c0.228,0.132,0.359,0.395,0.359,0.723v3.999
					c0,0.493-0.289,1.031-0.673,1.253l-1.505,0.868C127.876,150.374,127.744,150.41,127.617,150.41z M129.41,144.206l-1.408,0.811
					c-0.131,0.076-0.289,0.355-0.289,0.587v3.972l1.408-0.811c0.134-0.078,0.289-0.351,0.289-0.587V144.206z"/>
			</g>
			<g id="XMLID_11295_">
				<path style="fill:#150035;" d="M129.313,141.193l-1.504,0.868c-0.266,0.154-0.482-0.009-0.482-0.364V137.7
					c0-0.355,0.216-0.767,0.482-0.92l1.504-0.868c0.266-0.154,0.482,0.01,0.482,0.364v3.998
					C129.795,140.628,129.579,141.04,129.313,141.193z"/>
				<path style="fill:#39A1FF;" d="M127.617,142.505c-0.111,0-0.218-0.028-0.315-0.084c-0.228-0.132-0.359-0.395-0.359-0.723v-3.999
					c0-0.492,0.289-1.03,0.673-1.253l1.505-0.868c0.237-0.138,0.492-0.146,0.7-0.026c0.228,0.132,0.359,0.396,0.359,0.723v3.998
					c0,0.493-0.289,1.032-0.674,1.254l-1.505,0.868C127.875,142.468,127.744,142.505,127.617,142.505z M129.41,136.301l-1.408,0.811
					c-0.13,0.076-0.289,0.355-0.289,0.587v3.972l1.408-0.812c0.134-0.077,0.289-0.35,0.289-0.587V136.301z"/>
			</g>
		</g>
	</g>
</g>
</svg>
