<?xml version="1.0" encoding="utf-8"?>
<!-- Generator: Adobe Illustrator 27.5.0, SVG Export Plug-In . SVG Version: 6.00 Build 0)  -->
<svg version="1.1" xmlns="http://www.w3.org/2000/svg" xmlns:xlink="http://www.w3.org/1999/xlink" x="0px" y="0px"
	 viewBox="0 0 500 500.001" style="enable-background:new 0 0 500 500.001;" xml:space="preserve">
<g id="BACKGROUND">
	<rect style="fill:#5CB4CC;" width="500" height="500.001"/>
</g>
<g id="OBJECTS">
	<path style="fill:#498EAD;" d="M124.858,266.798c0.032,0.034,0.08,0.082,0.14,0.145c2.053,2.094,125.449,169.454,130.028,174.023
		c5.11,5.097,11.019,7.871,17.133,8.878c0.236,0.039,0.472,0.084,0.709,0.118c0.336,0.047,0.671,0.082,1.009,0.12
		c0.276,0.03,0.554,0.061,0.83,0.087c0.318,0.025,0.638,0.045,0.957,0.064c0.299,0.016,0.598,0.032,0.896,0.04
		c0.306,0.011,0.609,0.014,0.915,0.016c0.318,0.002,0.638-0.002,0.959-0.009c0.286-0.007,0.575-0.015,0.862-0.028
		c0.346-0.016,0.69-0.04,1.036-0.065c0.264-0.02,0.526-0.037,0.791-0.063c0.393-0.038,0.786-0.088,1.179-0.137
		c0.217-0.029,0.433-0.05,0.646-0.082c0.61-0.087,1.22-0.188,1.824-0.305c0.11-0.021,0.245-0.049,0.388-0.076
		c0.054-0.011,0.106-0.022,0.163-0.034c0.129-0.025,0.268-0.055,0.417-0.087c0.102-0.021,0.213-0.043,0.325-0.066
		c0.079-0.018,0.163-0.036,0.247-0.054c0.162-0.035,0.331-0.069,0.513-0.109c0.194-0.042,0.399-0.085,0.613-0.132
		c0.007-0.002,0.014-0.003,0.022-0.005l0,0c22.837-4.946,45.564-9.111,46.036-9.203c0.015-0.003,68.641-51.417,68.573-52.6
		c-0.098-1.753-21.838-48.477-24.434-52.518c-19.419-15.39-86.092-67.845-86.092-67.845L124.858,266.798z"/>
	<g>
		<g>
			<path style="fill:#111111;" d="M109.401,59.847l9.476,212.949l136.038,175.969c0,0,2.393,3.529,10.504,2.299
				c8.111-1.229,52.847-11.307,55.06-12.045c2.213-0.736,17.697-23.105,17.697-23.842c0-0.738,7.374-227.614,7.374-242.853
				c0-15.24-5.162-29.25-17.943-36.87c-12.781-7.62-137.626-83.281-141.389-85.363c-4.409-2.438-7.598-1.688-42.308,1.97
				C115.42,55.063,109.401,54.969,109.401,59.847z"/>
			<path style="opacity:0.6;fill:#ACACAC;" d="M281.215,150.335c3.615-2.156,16.175-11.282,32.409-23.304
				C277.66,105.314,189.373,51.835,186.217,50.09c-4.409-2.438-7.598-1.688-42.308,1.97c-28.49,3.003-34.508,2.908-34.508,7.787
				l9.476,212.949l136.038,175.969c0,0,1.975,2.877,8.356,2.518c0-27.344,0-249.755,0-264.077
				C263.271,171.966,268.434,157.956,281.215,150.335z"/>
			<path d="M239.52,152.261c-10.485-6.252-96.136-71.08-128.649-95.32c-1.069,0.733-1.469,1.656-1.469,2.906l9.476,212.949
				l136.038,175.969c0,0,0.689,0.998,2.548,1.748c0-36.764,0-247.455,0-261.382C257.463,173.891,252.301,159.881,239.52,152.261z"/>
			<path style="opacity:0.5;fill:#373737;" d="M186.217,50.09c-4.409-2.438-7.598-1.688-42.308,1.97
				c-28.49,3.003-34.508,2.908-34.508,7.787l9.476,212.949l18.473,23.895L246.994,86.742
				C216.157,68.093,187.975,51.063,186.217,50.09z"/>
		</g>
		<g>
			<path style="fill:#373737;" d="M345.55,172.323c0-15.24-5.162-29.25-17.943-36.87c-12.781-7.62-137.626-83.281-141.389-85.363
				c-4.409-2.438-7.598-1.688-42.308,1.97c-22.891,2.413-31.27,2.828-33.681,5.427c11.56,8.07,130.848,98.469,143.191,105.828
				c7.405,4.941,10.53,4.751,39.302,0.89c9.164-1.23,13.811-1.462,18.331,0c15.638,5.06,17.944,17.059,17.944,43.997
				c0,12.612-3.456,171.736-4.648,226.665c5.303-6.691,13.827-19.145,13.827-19.691C338.176,414.439,345.55,187.563,345.55,172.323z
				"/>
			<path d="M255.438,160.291c-0.052-0.034-0.104-0.067-0.156-0.099c-7.753-4.622-60.371-44.033-98.791-72.809
				c-16.689-12.5-30.758-23.038-38.557-28.789c3.874-0.613,9.672-1.204,16.601-1.909c2.916-0.297,6.157-0.627,9.756-1.006
				c4.277-0.451,8.076-0.858,11.457-1.22c13.342-1.429,20.04-2.146,23.95-2.146c2.812,0,3.71,0.38,4.759,0.96
				c2.082,1.152,44.054,26.539,81.085,48.938c14.863,8.99,29.29,17.716,40.404,24.432L255.438,160.291z"/>
			<path style="opacity:0.6;fill:#ACACAC;" d="M345.55,172.323c0-6.719-1.007-13.198-3.225-18.997l-18.381,20.501
				c2.95,5.018,4.251,11.882,4.761,21.22l16.788-18.725C345.53,174.469,345.55,173.11,345.55,172.323z"/>
			<path style="fill:#5F5F5F;" d="M315.198,164.206c-2.719-0.879-5.49-1.143-9.254-0.948c1.852,0.122,3.49,0.424,5.108,0.948
				c15.638,5.06,17.944,17.059,17.944,43.997c0,12.612-3.456,171.736-4.648,226.665c1.288-1.625,2.768-3.594,4.268-5.646
				c1.289-59.416,4.525-208.815,4.525-221.019C333.143,181.265,330.836,169.266,315.198,164.206z"/>
			<g>
				<path style="fill:#373737;" d="M301.486,123.948c-1.198-0.724-2.431-1.469-3.686-2.227c-3.479,2.082-10.807,6.592-26.706,16.378
					c-11.911,7.332-24.223,14.91-25.186,15.47c-0.045,0.024-0.087,0.054-0.129,0.081c1.229,0.881,2.364,1.688,3.4,2.418
					c2.604-1.559,8.77-5.354,23.935-14.688C285.025,134.049,298.362,125.839,301.486,123.948z"/>
				<path style="fill:#373737;" d="M291.296,117.787c-1.244-0.752-2.503-1.514-3.782-2.288c-3.527,1.937-11.029,6.184-27.52,15.523
					c-11.842,6.707-24.083,13.638-25.179,14.205c-0.127,0.056-0.243,0.129-0.354,0.209c1.174,0.859,2.313,1.693,3.413,2.495
					c2.528-1.387,8.624-4.838,24.019-13.556C273.835,127.612,288.487,119.315,291.296,117.787z"/>
				<path style="fill:#373737;" d="M281.127,111.637c-1.287-0.778-2.586-1.563-3.894-2.354c-3.566,1.787-11.225,5.758-28.28,14.598
					c-11.841,6.138-24.08,12.484-25.248,13.019c-0.176,0.065-0.333,0.16-0.477,0.269c1.172,0.866,2.324,1.716,3.454,2.55
					c2.538-1.272,8.643-4.432,24.046-12.417C263.348,120.759,278.925,112.684,281.127,111.637z"/>
				<path style="fill:#373737;" d="M270.89,105.538c0.033-0.009,0.063-0.024,0.095-0.035c-1.333-0.806-2.672-1.616-4.016-2.429
					c-3.624,1.646-11.495,5.351-29.208,13.707c-11.792,5.563-23.981,11.314-25.178,11.799c-0.204,0.065-0.388,0.167-0.554,0.29
					c1.182,0.878,2.352,1.747,3.51,2.605c2.577-1.175,8.697-4.052,23.866-11.208C252.742,113.975,269.3,106.164,270.89,105.538z"/>
				<path style="fill:#373737;" d="M260.507,99.503c0.123-0.029,0.241-0.072,0.354-0.123c-1.378-0.834-2.761-1.67-4.145-2.508
					c-3.694,1.509-11.821,4.955-30.292,12.832c-11.695,4.986-23.784,10.141-24.975,10.564c-0.219,0.061-0.417,0.161-0.595,0.287
					c1.199,0.893,2.392,1.782,3.577,2.664c2.648-1.089,8.765-3.686,23.505-9.972C241.72,107.371,258.834,100.073,260.507,99.503z"/>
				<path style="fill:#373737;" d="M250.134,93.462c0.21-0.039,0.407-0.115,0.587-0.216c-1.42-0.859-2.839-1.717-4.255-2.573
					c-3.752,1.367-12.132,4.545-31.505,11.95c-11.555,4.416-23.499,8.982-24.654,9.34c-0.223,0.053-0.425,0.148-0.608,0.269
					c1.22,0.912,2.438,1.821,3.653,2.728c2.774-1.023,8.938-3.369,22.984-8.737C230.64,100.756,248.403,93.966,250.134,93.462z"/>
				<path style="fill:#373737;" d="M240.562,87.102c-1.453-0.879-2.899-1.753-4.335-2.622c-3.87,1.24-12.593,4.171-32.988,11.089
					c-11.305,3.835-22.992,7.798-24.085,8.092c-0.217,0.046-0.415,0.132-0.596,0.242c1.245,0.931,2.492,1.864,3.741,2.797
					c2.943-0.965,9.179-3.073,22.178-7.482C218.636,94.416,240.327,87.26,240.562,87.102z"/>
				<path style="fill:#373737;" d="M230.399,80.958c-1.485-0.899-2.956-1.787-4.406-2.664c-4.043,1.125-13.268,3.837-34.911,10.272
					c-10.866,3.23-22.1,6.57-23.091,6.798c-0.204,0.038-0.39,0.114-0.564,0.208c1.271,0.952,2.552,1.911,3.838,2.873
					c3.066-0.886,9.245-2.718,20.915-6.187C207.142,87.811,230.122,81.178,230.399,80.958z"/>
				<path style="fill:#373737;" d="M220.214,74.801c-1.512-0.914-2.997-1.81-4.449-2.688c-4.371,1.038-14.461,3.597-37.551,9.52
					c-10.567,2.71-20.549,5.271-21.398,5.437c-0.184,0.031-0.353,0.095-0.513,0.173c0.064,0.047,0.125,0.093,0.189,0.141
					c1.238,0.927,2.492,1.867,3.758,2.815c3.128-0.784,9.05-2.301,18.921-4.833C194.33,81.477,219.905,75.086,220.214,74.801z"/>
				<path style="fill:#373737;" d="M210.028,68.647c-1.546-0.934-3.042-1.837-4.485-2.708c-5.014,0.995-16.893,3.542-41.705,8.92
					c-9.424,2.043-17.563,3.808-18.213,3.917c-0.158,0.025-0.305,0.074-0.446,0.134c1.33,0.995,2.688,2.012,4.068,3.045
					c2.971-0.635,8.103-1.747,15.408-3.331C180.431,75.207,209.699,69.001,210.028,68.647z"/>
				<path style="fill:#373737;" d="M200.491,62.891c-1.605-0.968-3.78-2.28-5.173-3.119c-5.785,0.933-20.415,3.506-49.553,8.702
					c-6.079,1.084-10.881,1.94-11.343,2.013c-0.129,0.021-0.253,0.054-0.372,0.098c1.353,1.012,2.759,2.063,4.202,3.142
					c1.984-0.353,4.785-0.852,8.19-1.459C162.676,69.373,200.491,62.891,200.491,62.891z"/>
				<path style="fill:#373737;" d="M190.222,56.707c-2.168-1.301-4.34-2.601-5.165-3.086c-12.743,1.603-61.346,8.499-61.844,8.578
					c-0.106,0.017-0.205,0.048-0.304,0.08c1.345,1,2.795,2.079,4.333,3.226C140.508,63.602,190.222,56.707,190.222,56.707z"/>
			</g>
		</g>
		<g>
			<path style="fill:#A7A7A7;" d="M306.865,363.976c0,2.512-1.837,4.979-4.104,5.514l-17.089,4.023
				c-2.267,0.533-4.103-1.068-4.103-3.58v-37.209c0-2.512,1.837-4.978,4.103-5.514l17.089-4.023c2.267-0.533,4.104,1.068,4.104,3.58
				V363.976z"/>
			<path style="fill:#666666;" d="M285.673,370.784c-0.904,0.215-1.642-0.43-1.642-1.432v-37.209c0-1.004,0.737-1.992,1.642-2.205
				l17.089-4.025c0.905-0.213,1.642,0.43,1.642,1.434v37.209c0,1.004-0.736,1.992-1.642,2.205L285.673,370.784z"/>
			<path style="fill:#0A090E;" d="M300.978,358.462c0,2.512-1.837,4.978-4.104,5.512l-5.314,1.252
				c-2.267,0.533-4.103-1.07-4.103-3.58v-23.408c0-2.51,1.837-4.979,4.103-5.512l5.314-1.252c2.267-0.533,4.104,1.068,4.104,3.58
				V358.462z"/>
			<polygon style="fill:#F0F0F0;" points="295.757,364.237 292.678,364.962 292.678,332.462 295.757,331.737 			"/>
			<path style="fill:#B7B7B7;" d="M297.467,331.401v32.367c0.666-0.266,1.279-0.684,1.801-1.225v-30.768
				C298.746,331.483,298.133,331.351,297.467,331.401z"/>
			<g>
				<polygon style="fill:#666666;" points="291.167,339.788 286.641,340.659 286.641,338.767 291.167,337.894 				"/>
				<polygon style="fill:#666666;" points="291.167,343.995 286.641,344.868 286.641,342.974 291.167,342.101 				"/>
				<polygon style="fill:#666666;" points="291.167,348.204 286.641,349.077 286.641,347.183 291.167,346.31 				"/>
				<polygon style="fill:#666666;" points="291.167,352.413 286.641,353.286 286.641,351.392 291.167,350.519 				"/>
				<polygon style="fill:#666666;" points="291.167,356.62 286.641,357.493 286.641,355.601 291.167,354.726 				"/>
				<polygon style="fill:#666666;" points="291.167,360.829 286.641,361.702 286.641,359.81 291.167,358.935 				"/>
			</g>
		</g>
		<g>
			<path style="fill:#A7A7A7;" d="M306.865,419.314c0,2.51-1.837,4.977-4.104,5.512l-17.089,4.023
				c-2.267,0.535-4.103-1.068-4.103-3.58V388.06c0-2.512,1.837-4.979,4.103-5.512l17.089-4.025c2.267-0.533,4.104,1.068,4.104,3.58
				V419.314z"/>
			<path style="fill:#666666;" d="M285.673,426.122c-0.904,0.213-1.642-0.43-1.642-1.434v-37.209c0-1.002,0.737-1.992,1.642-2.205
				l17.089-4.023c0.905-0.215,1.642,0.43,1.642,1.432v37.209c0,1.004-0.736,1.992-1.642,2.205L285.673,426.122z"/>
			<path style="fill:#0A090E;" d="M300.978,413.798c0,2.512-1.837,4.978-4.104,5.512l-5.314,1.252
				c-2.267,0.535-4.103-1.068-4.103-3.58v-23.406c0-2.512,1.837-4.98,4.103-5.514l5.314-1.252c2.267-0.533,4.104,1.07,4.104,3.58
				V413.798z"/>
			<polygon style="fill:#F0F0F0;" points="295.757,419.573 292.678,420.298 292.678,387.798 295.757,387.073 			"/>
			<path style="fill:#B7B7B7;" d="M297.467,386.737v32.367c0.666-0.266,1.279-0.684,1.801-1.225v-30.766
				C298.746,386.819,298.133,386.689,297.467,386.737z"/>
			<g>
				<polygon style="fill:#666666;" points="291.167,395.124 286.641,395.997 286.641,394.103 291.167,393.229 				"/>
				<polygon style="fill:#666666;" points="291.167,399.333 286.641,400.206 286.641,398.31 291.167,397.439 				"/>
				<polygon style="fill:#666666;" points="291.167,403.54 286.641,404.413 286.641,402.519 291.167,401.646 				"/>
				<polygon style="fill:#666666;" points="291.167,407.749 286.641,408.622 286.641,406.728 291.167,405.854 				"/>
				<polygon style="fill:#666666;" points="291.167,411.956 286.641,412.829 286.641,410.937 291.167,410.064 				"/>
				<polygon style="fill:#666666;" points="291.167,416.165 286.641,417.038 286.641,415.146 291.167,414.272 				"/>
			</g>
		</g>
	</g>
</g>
</svg>
